<?xml version="1.0" encoding="UTF-8"?>
<svg id="Layer_1" data-name="Layer 1" xmlns="http://www.w3.org/2000/svg" viewBox="0 0 1441 600">
  <defs>
    <style>
      .cls-1 {
        font-size: 68.6px;
      }

      .cls-1, .cls-2, .cls-3, .cls-4 {
        font-family: TimesNewRomanPSMT, 'Times New Roman';
      }

      .cls-1, .cls-2, .cls-3, .cls-4, .cls-5 {
        fill: #231f20;
      }

      .cls-2 {
        font-size: 33.41px;
      }

      .cls-6 {
        letter-spacing: -.02em;
      }

      .cls-7 {
        fill: #040305;
      }

      .cls-8 {
        fill-rule: evenodd;
      }

      .cls-8, .cls-9 {
        fill: #010101;
      }

      .cls-10 {
        fill: #ed1c24;
        opacity: .6;
      }

      .cls-11 {
        letter-spacing: -.04em;
      }

      .cls-3 {
        font-size: 37.44px;
      }

      .cls-4 {
        font-size: 55.76px;
      }
    </style>
  </defs>
  <text class="cls-1" transform="translate(40.59 82.15)"><tspan x="0" y="0">Key:</tspan></text>
  <path class="cls-7" d="M163.28,201.76c-2.78-2.11-6.76-1.59-8.89,1.21-.2,.28-.37,.58-.53,.87l-15.56-2.64c.15-1.08,.24-2.17,.24-3.28,0-4.52-1.26-8.75-3.41-12.38l9.92-6.42c.63,.43,1.41,.66,2.22,.58,1.89-.17,3.27-1.83,3.11-3.73-.17-1.89-1.84-3.27-3.73-3.1s-3.27,1.84-3.11,3.73c.02,.19,.06,.36,.1,.54l-9.86,6.36c-1.97-2.66-4.44-4.9-7.31-6.57l7.08-11.19c.75,.12,1.55,0,2.27-.4,1.64-.95,2.21-3.04,1.25-4.68-.95-1.65-3.05-2.21-4.69-1.26-1.64,.95-2.2,3.05-1.25,4.69,.09,.16,.2,.3,.32,.45l-7.13,11.26c-2.41-1.1-5.02-1.84-7.78-2.1l1.45-8.55c.56-.13,1.07-.41,1.44-.89,.84-1.11,.63-2.69-.48-3.53-1.11-.85-2.69-.63-3.53,.47-.84,1.11-.63,2.69,.48,3.53,.11,.07,.23,.1,.34,.17l-1.48,8.71c-.19,0-.36-.03-.55-.03-3.16,0-6.17,.62-8.93,1.72l-6.83-12.54c.66-.84,1.07-1.89,1.05-3.05-.04-2.67-2.23-4.8-4.89-4.74-2.66,.04-4.78,2.23-4.74,4.89,.04,2.66,2.23,4.77,4.89,4.73,.27,0,.52-.05,.77-.09l6.67,12.25c-3.34,1.88-6.18,4.55-8.29,7.73l-9.97-7.82c.2-.73,.16-1.54-.17-2.29-.78-1.73-2.8-2.5-4.53-1.72-1.73,.78-2.5,2.81-1.73,4.54,.79,1.72,2.81,2.49,4.54,1.72,.17-.08,.32-.18,.47-.28l10.13,7.96c-1.5,2.86-2.44,6.05-2.7,9.46l-14.95-.03c-.42-.98-1.15-1.85-2.17-2.38-2.36-1.24-5.28-.35-6.51,2.01-1.24,2.36-.33,5.27,2.01,6.5,2.36,1.25,5.27,.34,6.51-2.02,.13-.23,.2-.47,.29-.71l14.8,.04c.12,1.93,.45,3.81,.99,5.6l-9.56,3.68c-.53-.55-1.24-.93-2.06-1.02-1.88-.21-3.58,1.14-3.79,3.01-.22,1.88,1.13,3.6,3.02,3.81,1.88,.21,3.58-1.14,3.79-3.02,.02-.19,.02-.36,.01-.56l9.42-3.63c1.87,4.43,5.01,8.2,8.97,10.82l-4.62,4.77c-.71-.27-1.52-.32-2.3-.07-1.81,.6-2.78,2.54-2.19,4.33,.59,1.8,2.54,2.79,4.33,2.21,1.8-.6,2.77-2.54,2.19-4.35-.06-.18-.14-.34-.22-.51l4.95-5.1c2.36,1.24,4.94,2.1,7.67,2.5l-1.32,12.34c-.75,.17-1.44,.59-1.95,1.22-1.16,1.5-.89,3.64,.61,4.82,1.5,1.16,3.66,.88,4.82-.61,1.16-1.5,.88-3.65-.62-4.82-.15-.1-.3-.19-.46-.28l1.32-12.43c.42,.03,.82,.06,1.25,.06,3.16,0,6.17-.62,8.95-1.72l2.46,10.94c-.61,.45-1.1,1.08-1.32,1.88-.49,1.83,.59,3.71,2.43,4.2,1.83,.48,3.71-.59,4.2-2.43,.49-1.84-.6-3.71-2.43-4.2-.18-.05-.36-.07-.54-.09l-2.54-11.32c1.77-.92,3.39-2.05,4.88-3.37l3.37,4.74c-.3,.48-.46,1.03-.38,1.64,.19,1.37,1.46,2.34,2.84,2.16,1.38-.19,2.35-1.46,2.16-2.84-.19-1.38-1.46-2.35-2.84-2.16-.13,.02-.23,.09-.35,.12l-3.47-4.89c2.56-2.61,4.52-5.79,5.69-9.35l16.01,2.72c.33,1.38,1.09,2.65,2.29,3.57,2.79,2.12,6.77,1.59,8.89-1.21,2.11-2.78,1.57-6.76-1.22-8.88Zm-56.63-4.97c-2,0-3.63-1.63-3.63-3.65s1.63-3.63,3.63-3.63,3.64,1.62,3.64,3.63c0,2.01-1.63,3.65-3.64,3.65Zm9.38,7.91c-1.47,0-2.67-1.2-2.67-2.67s1.2-2.67,2.67-2.67,2.67,1.19,2.67,2.67c0,1.48-1.2,2.67-2.67,2.67Zm9.92-11.31c-2.17,0-3.94-1.76-3.94-3.93s1.76-3.95,3.94-3.95,3.94,1.77,3.94,3.95c0,2.17-1.76,3.93-3.94,3.93Z"/>
  <path id="path1641" d="M113.36,276.87c-27.61,0-50,22.39-50,50s22.39,50,50,50,50-22.39,50-50-22.39-50-50-50Zm0,12.5c20.71,0,37.5,16.79,37.5,37.5s-16.79,37.5-37.5,37.5-37.5-16.79-37.5-37.5,16.79-37.5,37.5-37.5Z"/>
  <rect id="rect1152-3-5" x="67.3" y="320.62" width="89.81" height="12.5"/>
  <rect id="rect1152-3-5-3" x="67.3" y="320.62" width="89.81" height="12.5" transform="translate(-226.98 260.61) rotate(-60)"/>
  <rect id="rect1152-3-5-3-6" x="105.95" y="281.97" width="12.5" height="89.81" transform="translate(-148.4 99.89) rotate(-30)"/>
  <path class="cls-9" d="M146.16,484.49c-3.73-1.4-7.98-3.57-7.98-6.38v-7.38c1.37-3.79,3.42-4.06,4.45-9.87,2.39-.86,3.76-2.22,5.47-8.21,1.28-4.5-.61-5.71-1.83-6.04,.02-.24,.05-.48,.07-.77,.46-6.75,4.38-26.77-9.18-29.17-3.59-2.79-5.87-4.06-13.56-3.59-4.87,0-8.57,1.07-13.73-.4-6.88,5.77-4.99,24.74-4.03,33.89-1.21,.27-3.3,1.4-1.96,6.07,1.71,5.98,3.08,7.35,5.47,8.21,1.03,5.81,4.15,7.68,4.38,9.87v7.38c0,2.81-4.59,5.19-7.98,6.38-6.53,2.3-24.72,9.11-23.13,28.2h86.69c1.59-19.09-16.64-25.77-23.13-28.2Z"/>
  <g id="Page-1">
    <g id="Dribbble-Light-Preview">
      <g id="icons">
        <path id="pin_fill_sharp_circle-_634_" data-name="pin_fill_sharp_circle-[#634]" class="cls-8" d="M527.8,214.9c-5.52,0-10-4.48-10-10s4.48-10,10-10,10,4.47,10,10-4.48,10-10,10m0-46.1c-19.33,0-35,15.67-35,35s35,65,35,65c0,0,35-45.67,35-65s-15.67-35-35-35"/>
      </g>
    </g>
  </g>
  <path class="cls-9" d="M510.24,104.54h0s-.02-.01-.02-.01h.02Zm59.43-9.82l-6.9-18.25-25.07-13.63-51.95,27.69-7.6,20.3,30.63,16.29,.5-22.08-23.83-13.6,2.04,1.08-1.17-.67,4.16,2.21-3.79-2.21,23.52,12.7,50.64-26.18-8.11,4.45,9.49-4.85-18.78,9.95-32.61,17.9-2.09,21.3,60.89-32.41h0Zm-58.42,3.47l-13.72-7.32,13.34,4.13,40.84-18.13-40.47,21.32h0Z"/>
  <text class="cls-4" transform="translate(196.73 211.52)"><tspan x="0" y="0">Disease</tspan></text>
  <text class="cls-4" transform="translate(200.96 333.82)"><tspan x="0" y="0">Invention</tspan></text>
  <text class="cls-4" transform="translate(200.96 476.76)"><tspan x="0" y="0">Person</tspan></text>
  <text class="cls-4" transform="translate(612.29 109.43)"><tspan x="0" y="0">Goods</tspan></text>
  <text class="cls-4" transform="translate(614.3 232.95)"><tspan x="0" y="0">Places</tspan></text>
  <circle class="cls-5" cx="530.96" cy="348.67" r="38.15"/>
  <circle class="cls-10" cx="530.96" cy="441.95" r="38.15"/>
  <text class="cls-2" transform="translate(595.54 360.9)"><tspan x="0" y="0">Current</tspan></text>
  <text class="cls-2" transform="translate(597.95 450.4)"><tspan x="0" y="0">Ended</tspan></text>
  <text class="cls-3" transform="translate(33.94 565.67)"><tspan x="0" y="0">Other objects are clickable too!</tspan><tspan class="cls-6" x="469.85" y="0"> </tspan><tspan class="cls-11" x="478.53" y="0">T</tspan><tspan x="500.08" y="0">ry clicking on routes and arrows to learn more about them! </tspan></text>
</svg>