<?xml version="1.0" encoding="UTF-8"?>
<svg id="Layer_2" data-name="Layer 2" xmlns="http://www.w3.org/2000/svg" xmlns:xlink="http://www.w3.org/1999/xlink" viewBox="0 0 800 600">
  <defs>
    <style>
      .cls-1 {
        fill: #ececec;
        stroke: #000;
        stroke-linecap: round;
        stroke-linejoin: round;
        stroke-width: .2px;
      }

      .cls-2 {
        clip-path: url(#clippath);
      }

      .cls-3 {
        fill: none;
      }
    </style>
    <clipPath id="clippath">
      <rect class="cls-3" width="800" height="600"/>
    </clipPath>
  </defs>
  <g class="cls-2">
    <g>
      <path id="AF" class="cls-1" d="M440.5,78.54l1.42,1.7-2.74,.76-2.27,1.04-5.58,.76-5.01,1.23-2.27,2.65,1.8,2.55,1.32,3.03-1.89,2.55,.76,2.36-.85,2.18-4.92-.19,2.93,3.97-2.93,1.61-1.32,3.59,1.04,3.69-1.7,1.7-1.99-.57-3.78,.85-.19,1.61h-3.88l-2.18,3.5,.76,5.11-6.24,2.55-3.69-.57-.85,1.32-3.22-.76-5.01,.95-9.08-3.12,3.69-5.49-1.04-3.88-4.07-1.04-1.13-3.88-2.55-4.82,1.51-3.31-2.36-.95,.47-4.45,.57-7.57,5.58,2.36,3.69-.85,.38-2.74,3.78-.85,2.46-1.89-.19-4.82,3.97-1.23,.28-2.08,2.74,1.61,1.51,.19h2.84l4.07,1.32,1.7,.66,3.22-1.89,1.99,1.14,.85-2.74,3.03,.09,.57-.85-.19-2.46,1.61-2.08,3.12,1.32-.09,1.89,1.61,.28,.85,5.11,2.55,1.99,1.42-1.32,2.08-.57,2.36-2.74,3.59,.47h5.11Z"/>
      <path class="cls-1" d="M192.88,372.12l.57,1.89-.66,2.93,.85,2.84-.85,2.27,.38,2.08-11.07-.09-.76,19.39,3.4,4.92,3.4,3.78-9.84,2.46-12.77-.85-3.59-2.84-21.47,.19-.76,.47-3.12-2.74-3.4-.19-3.22,1.04-2.55,1.14-.47-3.78,.85-5.39,1.89-5.58,.28-2.55,1.8-5.49,1.32-2.46,3.12-3.97,1.8-2.74,.57-4.45-.28-3.5-1.51-2.18-1.42-3.69-1.23-3.59,.28-1.32,1.61-2.36-1.51-5.86-1.13-4.07-2.65-3.88,.57-1.14,2.18-.85,1.61,.09,1.89-.66,15.8,.09,1.23,4.45,1.51,3.69,1.23,1.99,1.99,3.12,3.59-.47,1.7-.85,2.93,.85,.85-1.51,1.42-3.5,3.31-.28,.28-1.04h2.74l-.47,2.18,6.43-.09,.09,3.88,1.04,2.27-.85,3.69,.38,3.78,1.7,2.27-.38,7.19,1.32-.57,2.27,.19,3.31-.95,2.46,.38Z"/>
      <path class="cls-1" d="M130.55,340.91l-1.42-4.54,2.18-2.65,1.61-1.04,1.99,2.08-1.89,1.32-.95,1.51-.19,2.65-1.32,.66Z"/>
      <path id="AL" class="cls-1" d="M161.48,46.76l.38,1.13,1.32-.57,1.13,1.61,1.23,.66,.57,2.18-.47,2.08,.95,2.55,2.18,1.42,.09,1.61-1.61,.85-.09,1.99-2.08,2.93-.85-.38-.19-1.32-2.93-2.08-.66-2.84,.09-4.16,.47-1.8-.85-.95-.47-1.99,1.8-2.93h0Z"/>
      <path id="AE" class="cls-1" d="M358.4,149.57l1.23,4.82h-2.65v3.97l1.04,.85-2.27,1.23,.19,2.46-1.23,2.46v2.46l-.95,1.32-15.98-3.03-2.55-6.24-.28-1.32,.85-.38,.38,1.7,3.97-.95,4.35,.19,3.22,.19,3.12-4.16,3.5-3.88,2.84-3.78,1.23,2.08h0Z"/>
      <path id="AM" class="cls-1" d="M296.54,70.4l-1.7,.19-2.65-3.5-.19-.95h-2.18l-1.8-1.61-.95,.09-2.27-1.7-3.97-1.51-.09-2.93-1.23-2.08,6.62-.95,1.32,1.51,2.08,1.04-.66,1.51,3.03,2.08-1.04,1.99,2.46,1.61,2.36,.95,.85,4.26h0Z"/>
      <path class="cls-1" d="M781,553.34l3.5,2.08,3.12-.85,4.63-1.14,2.65,.38-4.26,7.19-3.12,1.99-3.78,4.92-.57-1.7-6.24,4.16-.76-.28-2.84-.19,.47-5.11,1.89-3.97,.57-5.3,1.89-2.74,2.84,.57Z"/>
      <path class="cls-1" d="M828.76,389.34l1.13,4.73,3.78-2.27,1.32,2.55,2.18,2.36-1.04,2.74,.19,5.2,.19,3.03,1.23,.76,.38,5.2-1.14,3.12,.76,4.07,5.11,3.22,3.03,2.84,3.03,2.65-1.04,1.51,2.18,3.78,.47,6.62,2.46-1.32,1.42,2.55,1.51-.85-.66,6.43,2.74,3.69,1.8,2.27,2.65,4.92v4.92l-.95,3.5-1.7,3.69,.66,5.2-2.36,5.39-1.99,2.84-3.59,5.39-1.42,3.5-2.93,4.35-4.73,5.49-5.2,3.03-4.16,4.63-3.12,3.03-4.16,5.2-3.5,3.03-3.69,4.54-2.93,4.16-.76,1.99-4.07,2.08-5.77,.19-5.96,2.55-3.59,2.27-4.54,2.65-2.55-2.74-2.46-1.04,2.46-3.12-3.31,1.14-6.81,4.35-3.4-1.61-2.27-.95-2.65-.47-3.88-1.7-1.23-3.78,1.42-4.54,.38-3.12-1.32-2.46-4.45-.66,3.03-3.03,.85-4.45-4.45,4.16-5.01,1.14,4.26-3.31,2.36-3.5,3.31-3.03,1.51-4.45-6.43,5.11-4.07,2.08-4.07,4.82-2.84-2.46,1.61-3.22-1.32-4.45-1.7-2.27,1.51-1.42-5.01-3.69-3.59-.09-3.78-3.03-9.36,.57-7.47,2.18-6.53,2.08-4.73-.38-6.62,3.12-5.01,1.32-2.18,3.22-2.84,2.46-4.45,.19-3.4,.47-3.97-1.04-3.97,.66-3.59,.28-4.26,3.22-1.42-.28-3.22,1.7-3.22,1.89-3.59-.19h-3.31l-3.88-3.88-2.27-1.13,1.42-3.5,2.74-.85,1.42-1.32,.57-2.18,2.18-4.26,.66-3.59-.66-6.15,.19-3.5,1.32-3.4-.85-3.97,.28-1.8-1.61-2.46,.66-4.73-1.8-4.82-.09-2.55,1.7,2.65-.47-5.67,2.18,1.8,1.04,2.36,.57-3.12-1.51-4.82-.09-1.89-.76-1.8,1.23-3.5,1.42-1.51,1.23-3.03,.09-3.59,2.93-4.35-.38,4.63,2.93-4.16,4.63-2.08,3.03-2.55,4.45-2.27,2.46-.47,1.32,.76,4.54-2.27,3.31-.66,1.04-1.32,1.42-.57,2.93,.19,5.86-1.8,3.31-2.74,1.89-3.22,3.69-3.03,.66-2.46,.66-3.31,4.63-5.2,1.32,5.3,2.46-1.23-1.42-2.84,2.18-2.93,2.08,1.32,1.42-4.63,3.31-3.03,1.7-2.36,2.74-1.04,.38-1.7,2.18,.66,.38-1.51,2.46-.85,2.65-.85,3.5,2.84,2.46,3.59h3.31l3.31,.57-.66-3.31,3.31-4.82,2.55-1.61-.57-1.51,2.74-3.5,3.5-2.18,2.55,.76,4.63-1.14,.28-3.12-3.69-1.99,2.93-.85,3.4,1.51,2.55,2.46,4.26,1.51,1.61-.57,3.12,1.89,3.31-1.8,1.89,.57,1.42-1.23,2.08,3.03-1.89,3.31-2.36,2.46-1.8,.19,.28,2.36-2.08,3.03-2.36,3.03,.19,1.7,3.59,3.41,3.78,1.89,2.36,2.08,3.12,3.59h1.51l2.46,1.61,.47,1.89,4.63,1.99,3.88-2.08,1.7-3.22,1.61-2.74,1.23-3.31,2.46-4.82-.19-2.93,.66-1.8-.09-3.41,1.32-4.63,1.23-1.23-.57-1.99,1.7-3.22,1.42-3.31,.38-1.8,2.18-2.27,1.23,3.03-.09,3.78,1.23,.76-.09,2.55,1.51,3.03-.09,3.5-.57,2.18Z"/>
      <path id="AT" class="cls-1" d="M145.02,11.57l-.28,.76,.66,1.99-.19,2.46h-2.65l1.04,1.32-1.23,3.78-.85,1.04-4.16,.09-2.27,1.42-3.97-.47-6.9-1.61-1.23-1.99-4.63,1.04-.47,1.13-2.93-.85-2.46-.19-2.18-1.13,.66-1.42-.19-1.04,1.32-.28,2.55,1.61,.57-1.61,4.16,.28,3.31-1.04,2.27,.19,1.61,1.23,.38-1.04-.95-3.88,1.61-.76,1.51-2.74,3.59,1.99,2.46-2.46,1.61-.47,3.78,1.8,2.18-.28,2.27,1.13h0Z"/>
      <path class="cls-1" d="M294.84,70.59l-3.59-.85-3.03-2.74-1.13-2.36,.95-.09,1.8,1.61h2.18l.19,.95,2.65,3.5Z"/>
      <path class="cls-1" d="M300.8,54.51l2.36-2.46,3.31,3.12,3.4,4.35,2.36,.28,1.8,1.61-3.97,.47,.09,4.73-.38,2.08-1.61,1.42,.76,2.93-1.23,.38-3.69-3.22,1.14-2.93-1.8-1.8-1.8,.47-5.01,4.45-.85-4.26-2.36-.95-2.46-1.61,1.04-1.99-3.03-2.08,.66-1.51-2.08-1.04-1.32-1.51,1.04-1.04,3.97,1.8,2.74,.28,.57-.66-3.12-3.31,1.13-.76,1.42,.19,4.07,3.59,2.27,.47,.57-1.51Z"/>
      <path id="BI" class="cls-1" d="M224.75,332.78l-.57,.09v-.28l-1.89-5.77v-.06s-.09-.98-.09-.98l-1.32-2.74,3.31,.47,1.61-3.5,2.93,.38,.28,2.36,1.13,1.42v1.99l-1.32,1.23-2.18,3.22-1.89,2.18h0Z"/>
      <path id="BE" class="cls-1" d="M93.85-1.39l-.38,3.97-1.23,.19-.38,3.31-4.16-2.74-2.36,.47-3.31-2.74-2.27-2.36-2.08-.09-.76-2.08,3.69-1.13,3.4,.47,4.26-1.23,2.93,2.55,2.65,1.42h0Z"/>
      <path id="BJ" class="cls-1" d="M84.58,234.98l-.19,1.99,1.23,3.59-1.04,2.46,.57,1.61-2.65,3.78-1.61,1.89-1.04,3.78,.19,3.88-.28,9.74-4.45,.76-1.32-4.16,.28-14-1.14-1.23-.19-3.03-1.89-2.08-1.61-1.8,.66-3.22,1.89-.66,1.04-2.65,2.65-.57,1.14-1.8,1.8-1.8h1.89l4.07,3.5h0Z"/>
      <path id="BF" class="cls-1" d="M67.37,215.11l-.47,2.93,.76,2.74,2.93,3.97,.19,2.93,6.15,1.42-.09,4.16-1.14,1.8-2.65,.57-1.04,2.65-1.89,.66-4.63-.09-2.46-.47-1.7,.95-2.36-.47-9.27,.28-.19,3.5,.76,4.54-3.69-1.51-2.46,.19-1.89,1.51-2.36-1.23-.95-2.08-2.36-1.32-.38-3.5,1.51-2.55-.19-2.08,4.26-5.01,.85-4.16,1.42-1.51,2.55,.85,2.27-1.23,.76-1.61,4.07-2.65,1.04-1.89,5.01-2.55,2.93-.85,1.32,1.14h3.41Z"/>
      <path id="BD" class="cls-1" d="M551.73,171.89l.57,4.35-1.99-.95,1.04,4.92-1.99-3.12-.76-3.12-1.42-2.93-2.65-3.5-4.92-.28,.85,2.55-1.13,3.31-2.46-1.23-.57,1.14-1.61-.66-2.08-.57-1.51-5.01-2.46-4.54,.28-3.69-3.5-1.61,.85-2.18,2.84-2.27-4.35-3.22,1.13-4.16,4.63,2.65,2.55,.28,1.13,4.26,5.11,.85,4.82-.09,3.22,1.04-1.51,5.11-2.27,.38-1.13,3.4,3.4,3.22,.28-3.97h1.42l4.16,9.65h0Z"/>
      <path id="BG" class="cls-1" d="M203.66,40.7l-2.18,2.46-1.23,4.26,1.99,3.4-4.35-.76-4.73,1.89,.28,3.03-4.35,.57-3.69-2.18-3.78,1.7-3.59-.19-.76-3.97-2.65-1.99,.66-.76-.57-.76,.57-1.89,1.7-1.89-2.65-2.55-.66-2.27,1.04-1.32,1.7,2.46,1.8-.38,3.78,.85,7.19,.38,2.18-1.51,5.58-1.42,3.78,2.18,2.93,.66h0Z"/>
      <path id="BA" class="cls-1" d="M156.75,33.8l1.8-.09-1.04,2.65,2.55,2.36-.47,2.74-1.04,.28-.85,.57-1.51,1.42-.38,3.31-4.54-2.27-1.99-2.55-1.99-1.32-2.36-2.27-1.23-1.8-2.55-2.84,.76-2.46,1.89,1.42,.95-1.32,2.18-.09,4.26,1.04,3.31-.09,2.27,1.32h0Z"/>
      <path id="BN" class="cls-1" d="M677.05,278.3l2.08-2.27,4.35-3.4-.09,3.03-.09,3.88-2.55-.19-1.04,2.08-2.65-3.12h0Z"/>
      <path id="BT" class="cls-1" d="M540.57,137.08l2.46,1.99,.47,3.69-4.26,.19-4.45-.38-3.03,.95-5.2-2.36-.38-1.14,2.46-4.54,2.46-1.51,4.07,1.32,2.74,.19,2.65,1.61h0Z"/>
      <path id="BW" class="cls-1" d="M198.93,413.46l1.8,4.82,1.04,1.14,1.51,3.5,5.77,6.62,2.18,.66-.09,2.18,1.42,3.88,4.07,.95,3.22,2.74-7.66,4.45-4.92,4.54-1.89,4.07-1.7,2.27-2.84,.47-1.13,2.93-.57,1.89-3.4,1.32-4.26-.28-2.36-1.7-2.18-.66-2.65,1.32-1.42,2.93-2.55,1.8-2.65,2.74-3.78,.66-1.04-2.18,.57-3.69-2.84-5.77-1.32-.95,.57-17.69,5.2-.19,.76-21.66,3.97-.19,8.23-2.18,1.89,2.55,3.5-2.36h1.61l3.03-1.42,.95,.47h0Z"/>
      <path id="CF" class="cls-1" d="M192.97,253.42l3.69,2.36,2.93,2.46,.09,1.99,3.69,3.12,2.27,2.65,1.32,3.59,4.07,2.46,.85,1.89-1.7,.66-3.5-.09-3.97-.66-1.99,.47-.85,1.51-1.7,.19-2.08-1.32-5.96,3.03-2.46-.57-.76,.47-1.51,3.69-4.07-1.23-3.88-.57-3.4-2.27-4.45-2.08-2.84,1.99-2.08,3.03-.47,4.26-3.4-.28-3.69-1.04-3.12,3.22-2.84,5.67-.57-1.8-.28-2.74-2.46-1.99-1.99-3.12-.47-2.18-2.55-3.22,.47-1.8-.57-2.55,.38-4.73,1.32-1.04,2.65-6.15,4.35-.47,.95-1.61,.95,.19,1.32,1.32,6.72-2.27,2.27-2.36,2.74-2.18-.57-2.08,1.51-.57,5.2,.38,4.92-2.84,3.78-6.62,2.65-2.46,3.4-1.04,.66,2.55,3.12,3.78v2.55l-.76,2.46,.38,1.89,1.8,1.8,.47,.28h0Z"/>
      <path id="CH" class="cls-1" d="M110.78,17.91l.19,1.04-.66,1.42,2.18,1.13,2.46,.19-.28,2.36-1.99,1.04-3.59-.76-.95,2.36-2.27,.19-.85-.95-2.55,2.08-2.36,.28-2.08-1.32-1.7-2.55-2.27,.95v-2.74l3.4-3.31-.19-1.51,2.18,.57,1.23-1.04h3.97l.95-1.23,5.2,1.8h0Z"/>
      <path class="cls-1" d="M647.82,192.32l-4.07,2.93-4.63-1.89-.95-5.2,2.08-2.74,5.49-1.7,3.12,.09,1.51,2.36-1.89,2.65-.66,3.5Z"/>
      <path class="cls-1" d="M669.96,6.56l8.51,4.26,5.67,5.49h7.19l2.46-2.27,6.53-1.8,1.23,5.39-.28,2.18,2.65,6.43,.57,5.86-6.53-1.04-2.74,2.08,4.45,5.11,3.69,7.09-2.36,.09,1.8,3.12-5.2-3.59v3.4l-6.05,2.55,2.65,3.22-4.35-.28-3.4-1.89-1.04,4.35-3.69,3.22-1.99,3.88-5.96,1.7-2.27,2.84-4.54,1.7,1.23-2.84-2.18-2.36,1.89-4.07-4.26-3.12-3.22,2.08-3.4,4.26-1.23,3.88-4.73,.28-1.23,2.84,4.54,4.07,4.54,1.04,1.32,2.65,4.82,1.8,3.59-4.35,5.58,2.36,3.31,.19,2.18,3.12-6.34,1.7-.95,3.31-3.59,3.03-.85,4.26,6.72,3.31,4.35,5.96,5.2,5.58,5.2,4.63,1.51,4.54-2.65,1.7,2.27,3.22,3.69,1.89,.76,4.92,.09,4.82-2.65,.57-1.99,6.53-2.18,8.04-3.22,7.19-6.05,5.58-6.24,5.2-5.77,.66-2.74,2.65-2.18-1.89-2.36,2.93-6.81,3.12-5.49,.85-.66,6.43-2.93,.38-2.08-4.45,.85-2.27-7.38-1.99-2.27,1.04-5.58-1.61-2.93-2.46,.28-3.5-5.01-1.14-2.93-2.27-3.88,3.22-5.01,.76-4.16-.09-2.55,1.51-2.55,.85,1.89,7-2.84-.19-.76-1.42-.47-2.55-3.59,1.8-2.46-1.13-4.26-2.27,.76-5.01-3.5-1.23-2.27-5.58-5.3,1.04-.66-7.19,3.97-5.11-.85-5.01-1.23-4.63-2.55-1.42-2.55-3.59-2.93,.47-5.77-.95,1.13-2.55-3.4-3.78-3.03,2.55-4.63-1.42-5.11,3.78-3.69,4.54-3.97,.76-2.65-1.61-2.74-.19-4.07-1.32-2.46,1.51-2.46,4.54-1.42-4.82-2.93,1.32-6.15-.66-6.15-1.32-4.73-2.74-4.26-1.13-2.36-2.93-3.12-.85-6.05-3.97-4.54-1.89-1.8,1.42-8.13-4.26-5.86-3.78-3.03-6.72,3.88,.85-.57-3.12-2.84-3.12-.76-4.92-7.28-7.19-8.99-2.36-2.74-4.73-4.45-2.84-1.42-1.7-1.7-3.4-.47-2.36-3.5-1.42-1.42,.66-2.93-5.67,1.04-1.32-1.13-1.42,3.88-2.84,3.03-1.23,5.49,.85,.57-3.88,6.05-.66,.95-2.46,6.53-3.22,.19-1.32-1.61-3.5,2.74-1.51-8.32-10.4,8.61-2.36,1.89-1.32-.95-10.69,10.22,1.99,1.51-2.74-2.36-5.86,3.59-.57,1.8-3.97,1.61-.47,3.12,4.16,5.39,3.12,7.76,2.18,5.49,4.82,1.32,6.9,2.84,2.65,6.15,1.04,6.81,.76,7.57,3.78,3.22,.66,4.73,5.49,4.45,3.59,5.3-.19,10.69,1.42,6.05-.85,5.3,.85,8.89,3.69h5.86l3.12,1.8,4.16-3.22,6.81-2.08,7.19-.19,4.63-2.08,1.89-3.22,2.27-2.08-1.8-1.99-2.74-2.27,.47-3.88,3.03,.57,5.58,1.23,3.03-3.22,6.05-2.27,1.23-3.97,2.36-1.7,6.43-.76,4.16,.66-.76-2.08-6.81-4.16-4.92-1.89-2.36,2.18-5.2-.95-2.18,.76-2.65-2.36-.28-5.96-.57-4.45,7,2.27,4.16-3.69-1.8-2.65-.19-6.15,1.23-1.89-2.36-3.22-3.5-1.32,1.61-2.93,4.82-1.04,5.86-.19,8.13,1.8,5.67,2.08,7.28,5.86,3.59,2.55,4.26,3.59,5.86,5.67,9.46,1.89Z"/>
      <path id="CI" class="cls-1" d="M36.53,242.73l2.36,1.32,.95,2.08,2.36,1.23,1.89-1.51,2.46-.19,3.69,1.51,1.42,8.7-2.27,5.01-1.42,6.9,2.27,5.2-.19,2.46h-2.46l-3.69-1.14h-3.5l-6.34,1.14-3.69,1.7-5.3,2.27-1.04-.19,.38-5.01,.57-.76-.19-2.36-2.27-2.55-1.7-.38-1.51-1.7,1.14-2.74-.47-2.93,.19-1.7h.85l.38-2.65-.38-1.23,.47-.85,1.99-.66-1.32-4.92-1.23-2.46,.47-2.08,1.04-.47,.76-.57,1.42,.95h4.16l.95-1.7,.95,.09,1.51-.66,.85,2.55,1.23-.76,2.27-.95Z"/>
      <path id="CM" class="cls-1" d="M147.1,260.7l-2.65,6.15-1.32,1.04-.38,4.73,.57,2.55-.47,1.8,2.55,3.22,.47,2.18,1.99,3.12,2.46,1.99,.28,2.74,.57,1.8-.38,3.22-4.26-1.42-4.35-1.61-6.72-.19-.66-.38-3.22,.76-3.22-.76-2.55,.38-8.8-.09,.85-4.82-2.18-4.07-2.46-.95-1.04-2.74-1.42-.85,.09-1.7,1.32-4.35,2.55-5.86h1.51l3.22-3.59,1.99-.09,3.03,2.55,3.69-2.08,.47-2.55,1.23-2.46,.76-3.03,2.84-2.46,1.04-4.26,1.13-1.42,.76-3.12,1.32-3.88,4.45-4.73,.28-1.99,.57-1.14-2.18-2.36,.19-1.99,1.42-.28,2.18,3.88,.47,3.97-.19,4.07,3.03,5.49h-3.03l-1.51,.38-2.46-.57-1.13,2.84,3.22,3.59,2.36,1.04,.76,2.46,1.7,4.16-.76,1.7h0Z"/>
      <path id="CD" class="cls-1" d="M211.89,273.95l3.31,5.01,2.46,.76,1.42-1.04,2.46,.38,2.93-1.23,1.32,2.55,4.82,4.07-.28,7.09,2.18,.85-1.8,2.08-1.99,1.7-2.08,3.12-1.13,2.84-.28,4.82-1.23,2.36-.09,4.54-1.51,1.7-.19,3.59-.76,.47-.57,3.4,1.32,2.74,.09,.95-1.13,9.74,1.42,3.4-.95,2.55,1.7,4.35,3.22,3.31,.66,3.31,1.51,1.61-.28,1.04-.85-.28-7.28,1.04-1.42,.76-1.61,3.88,1.13,2.65-1.04,7.19-.85,6.05,1.42,1.14,3.69,2.36,1.51-1.14,.19,6.53h-4.07l-2.08-3.31-1.89-2.65-4.07-.85-1.13-3.12-3.31,1.89-4.16-.85-1.8-2.74-3.31-.57-2.55,.09-.28-1.89-1.8-.09-2.46-.38-3.31,.95-2.27-.19-1.32,.57,.38-7.19-1.7-2.27-.38-3.78,.85-3.69-1.04-2.27-.09-3.88-6.43,.09,.47-2.18h-2.74l-.28,1.04-3.31,.28-1.42,3.5-.85,1.51-2.93-.85-1.7,.85-3.59,.47-1.99-3.12-1.23-1.99-1.51-3.69-1.23-4.45-15.8-.09-1.89,.66-1.61-.09-2.18,.85-.76-1.89,1.32-.66,.19-2.65,.95-1.51,1.89-1.32,1.42,.66,1.89-2.36,2.93,.09,.28,1.7,1.99,1.04,3.22-3.78,3.12-2.93,1.32-1.99-.09-5.01,2.36-5.86,2.46-3.12,3.5-2.93,.66-1.89,.09-2.27,.85-2.08-.28-3.5,.66-5.39,1.04-3.78,1.61-3.22,.28-3.69,.47-4.26,2.08-3.03,2.84-1.99,4.45,2.08,3.4,2.27,3.88,.57,4.07,1.23,1.51-3.69,.76-.47,2.46,.57,5.96-3.03,2.08,1.32,1.7-.19,.85-1.51,1.99-.47,3.97,.66,3.5,.09,1.7-.66h0Z"/>
      <path id="CG" class="cls-1" d="M164.22,284.44l-.28,3.69-1.61,3.22-1.04,3.78-.66,5.39,.28,3.5-.85,2.08-.09,2.27-.66,1.89-3.5,2.93-2.46,3.12-2.36,5.86,.09,5.01-1.32,1.99-3.12,2.93-3.22,3.78-1.99-1.04-.28-1.7-2.93-.09-1.89,2.36-1.42-.66-1.99-2.08-1.61,1.04-2.18,2.65-4.35-6.43,4.07-3.4-1.99-3.97,1.89-1.51,3.59-.76,.38-2.74,2.93,2.93,4.73,.28,1.61-2.84,.66-4.07-.57-4.73-2.55-3.59,2.36-7.09-1.32-1.14-3.97,.47-1.51-3.12,.38-2.65,6.72,.19,4.35,1.61,4.26,1.42,.38-3.22,2.84-5.67,3.12-3.22,3.69,1.04,3.4,.28h0Z"/>
      <path id="CZ" class="cls-1" d="M134.71-3.18l2.36,1.89,3.5,.47-.19,1.61,2.65,1.23,.57-1.51,3.22,.66,.66,1.89,3.5,.28,2.46,2.93h-1.42l-.66,1.04-1.04,.28-.19,1.32-.85,.28-.09,.57-1.51,.57-2.08-.09-.57,1.32-2.27-1.13-2.18,.28-3.78-1.8-1.61,.47-2.46,2.46-3.59-1.99-2.84-2.46-2.46-1.42-.66-2.55-.95-1.7,3.22-1.23,1.61-1.51,3.31-1.13,1.04-1.13,1.23,.66,2.08-.57h0Z"/>
      <path id="DE" class="cls-1" d="M129.22-18.6l1.32,2.93-1.13,1.61,1.8,1.99,1.42,3.12-.19,2.08,2.27,3.69-2.08,.57-1.23-.66-1.04,1.13-3.31,1.13-1.61,1.51-3.22,1.23,.95,1.7,.66,2.55,2.46,1.42,2.84,2.46-1.51,2.74-1.61,.76,.95,3.88-.38,1.04-1.61-1.23-2.27-.19-3.31,1.04-4.16-.28-.57,1.61-2.55-1.61-1.32,.28-5.2-1.8-.95,1.23h-3.97l.38-4.26,2.27-3.97-6.81-1.13-2.27-1.51,.19-2.55-.95-1.32,.38-3.97-1.04-6.15h2.74l1.14-2.18,.85-5.3-.85-1.99,.76-1.23,3.78-.28,.95,1.23,2.93-2.84-1.23-2.18-.38-3.22,3.5,.76,2.74-.85,.28,2.18,4.63,1.32,.09,2.08,4.45-1.13,2.46-1.51,5.3,2.27,2.27,1.8h0Z"/>
      <path id="DJ" class="cls-1" d="M295.31,236.11l-1.8,3.31-1.23-1.14-1.23,.47-3.03-.09-.19-1.89-.47-1.7,1.7-2.84,1.8-2.65,2.27,.57,1.61-1.51,1.32,1.89-.09,2.46-2.93,1.51,2.27,1.61h0Z"/>
      <path id="DZ" class="cls-1" d="M107.56,81.37l-.95,3.12,.95,5.77-1.04,5.01-3.03,3.4,.57,4.54,4.26,3.69,.09,1.42,3.22,2.46,2.46,10.88,1.8,5.39,.38,2.84-.76,4.92,.38,2.84-.57,3.31,.57,3.78-2.08,2.55,3.22,4.45,.19,2.55,1.99,3.4,2.36-1.14,4.26,2.84,2.36,3.78-17.78,11.63-15.13,11.92-7.38,2.65-5.86,.66-.09-3.88-2.46-1.04-3.31-1.7-1.23-2.84-17.69-13.24-17.59-13.24-19.39-14.75,.09-1.14,.09-.38,.09-7.19,8.42-4.54,5.11-.95,4.26-1.61,1.99-3.03,6.05-2.36,.28-4.54,2.93-.57,2.36-2.18,6.72-1.04,.95-2.36-1.32-1.32-1.8-6.43-.28-3.69-1.8-3.88,4.82-3.31,5.49-1.04,3.12-2.46,4.82-1.89,8.51-1.04,8.32-.47,2.55,.85,4.63-2.36,5.39-.09,2.08,1.42,3.4-.38h0Z"/>
      <path id="EG" class="cls-1" d="M241.02,116.18l3.69,8.89,.66,1.51-1.23,2.46-.66,4.54-1.13,3.22-1.13,1.04-1.89-1.99-2.55-2.65-4.45-8.7-.47,.57,2.65,6.34,3.69,6.15,4.63,9.46,2.18,3.31,1.89,3.4,5.11,6.72-.95,1.04,.38,3.97,6.43,5.49,1.04,1.23h-62.33l-.95-22.42-1.23-21.56-1.89-4.92,1.04-3.69-.95-2.65,1.61-2.93,6.81-.09,5.11,1.61,5.2,1.8,2.46,.95,3.78-1.89,1.99-1.7,4.45-.57,3.69,.76,1.7,3.03,1.04-1.99,4.16,1.42,4.07,.38,2.36-1.51h0Z"/>
      <path id="ER" class="cls-1" d="M294.74,228.64l-1.61,1.51-2.27-.57-1.89-1.99-2.36-3.5-2.46-1.99-1.42-2.08-4.73-2.46-3.69-.09-1.32-1.23-3.03,1.42-3.4-2.74-1.42,4.54-6.24-1.32-.66-2.36,1.89-8.99,.28-3.97,1.61-1.89,3.78-1.04,2.55-3.4,3.4,7,1.8,5.58,3.03,2.93,7.57,5.77,3.12,3.4,3.03,3.59,1.7,2.08,2.74,1.8h0Z"/>
      <path id="ET" class="cls-1" d="M274.31,217.48l3.69,.09,4.73,2.46,1.42,2.08,2.46,1.99,2.36,3.5,1.89,1.99-1.8,2.65-1.7,2.84,.47,1.7,.19,1.89,3.03,.09,1.23-.47,1.23,1.14-1.13,2.08,2.08,3.4,2.08,2.93,2.08,2.18,17.69,7.19,4.54-.09-14.75,18.25-6.9,.28-4.73,4.26-3.4,.09-1.42,1.99h-3.69l-2.18-2.08-4.92,2.55-1.51,2.55-3.59-.57-1.23-.66-1.23,.19-1.7-.09-6.81-5.11h-3.78l-1.8-1.99-.09-3.4-2.74-1.04-3.31-6.62-2.46-1.42-.95-2.46-2.84-2.93-3.31-.47,1.8-3.4,2.84-.19,.76-1.8-.19-4.73v-.76l1.42-6.34,2.46-1.7,.47-2.46,2.18-4.73,3.12-2.93,1.89-6.05,.66-5.2,6.24,1.32,1.42-4.54,3.4,2.74,3.03-1.42,1.32,1.23h0Z"/>
      <path id="GA" class="cls-1" d="M135.47,292.01l-.38,2.65,1.51,3.12,3.97-.47,1.32,1.14-2.36,7.09,2.55,3.59,.57,4.73-.66,4.07-1.61,2.84-4.73-.28-2.93-2.93-.38,2.74-3.59,.76-1.89,1.51,1.99,3.97-4.07,3.4-5.49-6.15-3.5-5.01-3.31-6.24,.19-2.08,1.23-1.89,1.23-4.45,1.13-4.54,1.8-.28h7.76v-7.28l2.55-.38,3.22,.76,3.22-.76,.66,.38h0Z"/>
      <path class="cls-1" d="M52.33-46.41l-4.82,6.15,4.45-.76h4.82l-1.23,4.63-4.07,5.11,4.63,.28,.28,.66,3.97,6.72,3.03,.95,2.74,6.62,1.32,2.27,5.58,1.04-.57,3.78-2.27,1.7,1.8,3.03-4.16,3.03-6.15-.09-7.94,1.7-2.08-1.23-3.12,2.74-4.26-.66-3.4,2.27-2.36-1.13,6.9-6.15,4.16-1.32-7.19-.95-1.23-2.36,4.82-1.8-2.36-3.12,.95-3.78,6.72,.57,.76-3.4-2.93-3.5-.09-.09-5.39-1.04-1.04-1.51,1.7-2.55-1.42-1.61-2.46,2.74-.09-5.58-2.08-2.84,1.8-5.86,3.59-4.54,3.4,.38,5.3-.47Z"/>
      <path id="GE" class="cls-1" d="M282.26,46.66l4.82,1.23,1.99,2.46,3.4,1.42-1.13,.76,3.12,3.31-.57,.66-2.74-.28-3.97-1.8-1.04,1.04-6.62,.95-5.3-3.03-5.2,.28,.28-2.55-1.99-4.07-3.22-2.27-2.84-.66-2.08-1.8,.38-.76,4.35,1.04,7.28,.95,7.19,2.93,1.13,1.13,2.74-.95h0Z"/>
      <path id="GH" class="cls-1" d="M65.47,238.85l-.38,1.89,2.18,3.12v4.45l.57,4.73,1.32,2.27-1.23,5.39,.47,3.03,1.42,3.88,1.23,2.18-8.42,3.5-3.03,2.08-4.82,1.8-4.73-1.7,.19-2.46-2.27-5.2,1.42-6.9,2.27-5.01-1.42-8.7-.76-4.54,.19-3.5,9.27-.28,2.36,.47,1.7-.95,2.46,.47h0Z"/>
      <path id="GN" class="cls-1" d="M4,230.15l.28,2.27h.85l1.42-.85,.85,.19,1.51,1.61,2.27,.47,1.42-1.32,1.8-.85,1.23-.85,1.04,.19,1.23,1.32,.57,1.7,2.18,2.55-1.04,1.51-.28,1.99,1.14-.57,.66,.66-.28,1.8,1.61,1.8-1.04,.47-.47,2.08,1.23,2.46,1.32,4.92-1.99,.66-.47,.85,.38,1.23-.38,2.65h-.85l-1.51-.19-1.04,2.46h-1.51l-1.04-1.32,.38-2.46-2.27-3.69-1.32,.66-1.23,.19-1.42,.28,.09-2.18-.85-1.61,.19-1.8-1.14-2.55-1.51-2.18H1.73l-1.23,1.14-1.51,.19-.95,1.32-.57,1.61-2.93,2.74-2.27-3.59-2.08-2.36-1.32-.85-1.32-1.23-.57-2.65-.76-1.32-1.61-1.04,2.46-2.93,1.61,.09,1.42-.95,1.14-.09,.85-.76-.38-1.99,.57-.66,.09-2.08,2.55,.09,3.88,1.42,1.14-.09,.38-.66,2.93,.47,.76-.38h0Z"/>
      <path id="GQ" class="cls-1" d="M125.82,292.01v7.28h-7.76l-1.8,.28-1.04-.85,1.8-6.81,8.8,.09h0Z"/>
      <path class="cls-1" d="M184.84,88.94l2.93,2.08,3.88-.38,3.78,.38v1.14l2.65-.76-.47,1.8-7.19,.47-.09-.95-6.24-1.23,.76-2.55Z"/>
      <path class="cls-1" d="M193.54,58.01l-3.03-.19-2.55-.57-5.86,1.51,3.78,3.4-2.36,1.04h-2.74l-2.93-3.12-.85,1.32,1.51,3.59,2.74,2.84-1.8,1.32,3.03,2.74,2.65,1.8,.38,3.4-4.73-1.61,1.7,3.12-3.12,.57,2.36,5.39-3.31,.09-4.35-2.65-2.27-4.82-1.23-4.07-2.18-2.74-2.84-3.5-.47-1.7,2.08-2.93,.09-1.99,1.61-.85-.09-1.61,3.22-.47,1.7-1.32,2.65,.09,.76-1.04,.95-.19,3.59,.19,3.78-1.7,3.69,2.18,4.35-.57-.28-3.03,2.55,1.61-1.04,3.78-1.13,.66Z"/>
      <path id="HR" class="cls-1" d="M155.33,27.46l1.42,2.36,1.61,1.7-1.61,2.27-2.27-1.32-3.31,.09-4.26-1.04-2.18,.09-.95,1.32-1.89-1.42-.76,2.46,2.55,2.84,1.23,1.8,2.36,2.27,1.99,1.32,1.99,2.55,4.54,2.27-.47,.95-4.73-2.18-3.03-2.18-4.54-1.8-4.45-4.35,.95-.47-2.36-2.55-.28-1.99-3.12-.95-1.32,2.55-1.51-1.99v-2.08l.09-.09,3.4,.19,.76-.95,1.7,.95,1.89,.09-.09-1.61,1.61-.66,.28-2.36,3.69-1.61,1.51,.76,3.78,2.55,4.07,1.13,1.7-.95h0Z"/>
      <path id="HU" class="cls-1" d="M169.23,12.61l2.84,1.61,.47,1.61-2.74,1.23-1.8,3.97-2.46,4.07-3.69,1.13-3.03-.28-3.5,1.51-1.7,.95-4.07-1.13-3.78-2.55-1.51-.76-1.13-1.99-.76-.09,1.23-3.78-1.04-1.32h2.65l.19-2.46,2.55,1.61,1.8,.57,3.88-.66,.28-1.23,1.8-.19,2.18-.85,.57,.38,2.18-.76,.95-1.42,1.51-.38,5.2,1.8,.95-.57h0Z"/>
      <path class="cls-1" d="M709.59,367.96l-2.27,.09-6.72-4.26,5.11-1.23,2.65,1.89,1.7,1.8-.47,1.7Z"/>
      <path class="cls-1" d="M733.04,359.73l.47,1.23-.09,1.8-3.88,4.54-4.73,1.32-.57-.66,.66-2.08,2.65-3.69,5.49-2.46Z"/>
      <path class="cls-1" d="M695.59,354.91l1.8,1.61,3.4-.47,1.14,2.55-6.34,1.23-3.69,.85-2.93-.09,2.08-3.5h3.03l1.51-2.18Z"/>
      <path class="cls-1" d="M722.35,354.91l-1.04,3.41-8.13,1.7-7.09-.76,.19-2.27,4.35-1.23,3.22,1.8,3.59-.47,4.92-2.18Z"/>
      <path class="cls-1" d="M646.5,346.87l10.21,.66,1.32-2.55,9.74,2.93,1.7,3.97,7.94,1.14,6.34,3.59-6.24,2.27-5.77-2.46-4.82,.19-5.49-.47-4.92-1.04-6.05-2.36-3.88-.57-2.27,.76-9.65-2.55-.76-2.55-4.82-.47,3.97-5.77,6.43,.38,4.16,2.36,2.27,.47,.57,2.08Z"/>
      <path class="cls-1" d="M786.39,343.46l-3.03,4.16-.19-4.54,1.04-2.18,1.23-2.08,1.14,1.8-.19,2.84Z"/>
      <path class="cls-1" d="M747.23,326.72l-2.08,2.08-3.59-1.14-.95-2.65,5.39-.28,1.23,1.99Z"/>
      <path class="cls-1" d="M764.63,324.55l1.7,4.63-4.35-2.55-4.45-.47-3.12,.38-3.69-.19,1.42-3.31,6.62-.28,5.86,1.8Z"/>
      <path class="cls-1" d="M821.19,321.52l-.95,19.77-1.51,19.86-4.35-5.01-5.3-1.23-1.42,1.7-6.81,.19,2.65-4.92,3.5-1.7-.95-6.62-2.18-5.01-10.12-5.2-4.35-.47-7.85-5.67-1.7,3.03-2.08,.47-1.04-2.18,.09-2.65-3.97-3.03,5.86-2.18,3.78,.09-.38-1.61h-7.85l-2.08-3.59-4.73-1.14-2.18-3.03,7.19-1.42,2.74-1.99,8.61,2.46,.85,2.27,1.23,9.84,5.39,3.59,4.73-6.43,6.24-3.59h4.73l4.54,2.08,3.88,2.18,5.77,1.14Z"/>
      <path class="cls-1" d="M736.92,297.12l-4.26,6.05-4.07,1.13-5.11-1.13-8.99,.28-4.63,.85-.76,4.63,4.73,5.39,2.93-2.74,10.03-2.08-.47,2.74-2.36-.85-2.36,3.59-4.82,2.36,4.82,7.76-1.04,2.08,4.54,7-.28,3.97-2.93,1.8-1.99-2.18,2.84-4.92-5.39,2.36-1.23-1.7,.76-2.36-3.69-3.59,.66-5.86-3.69,1.8,.19,7.09-.19,8.7-3.5,.85-2.18-1.7,1.8-5.58-.57-5.86-2.27-.09-1.51-4.16,2.36-3.97,.85-4.82,2.84-9.17,1.04-2.46,4.54-4.54,4.26,1.8,6.72,.85,6.15-.28,5.3-4.35,.95,1.32Z"/>
      <path class="cls-1" d="M755.46,298.92l-.28,5.3-2.74-.66-.85,3.69,2.18,3.22-1.51,.76-2.08-3.88-1.61-7.76,.95-4.82,1.7-2.18,.47,3.31,3.22,.47,.57,2.55Z"/>
      <path class="cls-1" d="M653.31,293.52l.95,4.07,3.69,3.5,3.5-1.23,3.4,.38,3.12-3.03,2.55-.57,5.11,1.7,4.35-1.32,2.46-8.42,1.99-2.08,1.61-6.9h6.15l4.73,1.04-2.84,5.49,4.16,5.67-.85,2.84,6.05,5.58-6.34,.76-1.7,4.16,.19,5.49-5.2,4.16-.38,6.05-2.36,9.27-.66-2.18-6.24,2.74-1.99-3.69-3.78-.38-2.65-1.99-6.43,2.27-1.8-3.03-3.59,.38-4.35-.66-.57-8.13-2.65-1.7-2.55-5.2-.76-5.3,.57-5.67,3.12-4.07Z"/>
      <path class="cls-1" d="M631.74,341.29l-5.86,.09-4.26-5.01-6.72-5.01-2.18-3.69-3.88-4.92-2.55-4.54-3.97-8.51-4.63-5.11-1.61-5.2-2.08-4.73-4.92-3.78-2.93-5.2-4.16-3.4-5.86-6.72-.57-3.12,3.4,.28,8.42,1.14,4.92,5.96,4.35,4.16,3.03,2.46,5.2,6.53,5.49,.09,4.54,4.16,3.22,5.11,4.07,2.84-2.18,4.92,3.12,2.08,1.89,.19,.85,4.26,1.8,3.31,3.88,.57,2.46,3.88-1.61,7.57-.66,9.36Z"/>
      <path id="IN" class="cls-1" d="M482.68,122.42l-2.65,2.84-.85,5.67,5.49,2.27,5.49,2.93,7.38,3.4,7.28,.85,3.59,3.03,4.07,.57,6.53,1.42,4.35-.09,.09-2.36-1.42-3.88-.19-2.55,2.93-1.32,1.42,4.82,.38,1.14,5.2,2.36,3.03-.95,4.45,.38,4.26-.19-.47-3.69-2.46-1.99,3.97-.76,3.69-4.54,5.11-3.78,4.63,1.42,3.03-2.55,3.4,3.78-1.13,2.55,5.77,.95,.95,2.27-1.61,1.14,1.32,3.69-3.97-1.04-5.86,4.16,.85,3.5-1.89,5.11,.28,2.93-1.51,5.01-4.35-1.42,.85,6.34-.95,2.08,.95,2.55-2.36,1.42-4.16-9.65h-1.42l-.28,3.97-3.4-3.22,1.13-3.4,2.27-.38,1.51-5.11-3.22-1.04-4.82,.09-5.11-.85-1.13-4.26-2.55-.28-4.63-2.65-1.13,4.16,4.35,3.22-2.84,2.27-.85,2.18,3.5,1.61-.28,3.69,2.46,4.54,1.51,5.01-.47,2.27-3.59-.09-6.24,1.23,.85,4.54-2.27,3.59-7.09,4.16-5.01,7.09-3.59,3.88-4.73,3.97,.28,2.74-2.46,1.51-4.54,2.18-2.46,.28-1.13,4.63,1.8,7.94,.66,5.01-1.8,5.77,.66,10.31-2.74,.28-2.18,4.63,1.8,2.08-4.82,1.7-1.61,4.07-2.08,1.8-5.3-5.67-2.93-8.51-2.36-6.15-2.08-2.84-3.22-5.86-1.89-7.57-1.32-3.78-5.58-8.32-3.31-11.82-2.46-7.76-.76-7.38-1.61-5.67-7.28,3.69-3.78-.76-7.66-7.38,2.27-2.18-1.8-2.36-6.72-5.2,3.03-4.07h11.44l-1.7-5.2-3.31-3.03-1.32-4.73-3.78-2.65,4.63-6.43,6.15,.47,4.26-6.34,2.08-6.15,3.69-6.15-.95-4.35,3.59-3.5-4.82-2.93-2.74-4.16-3.12-5.3,1.89-2.65,8.04,1.51,5.39-.95,3.59-5.11,7.28,7.19,.76,4.92,2.84,3.12,.57,3.12-3.88-.85,3.03,6.72,5.86,3.78,8.13,4.26h0Z"/>
      <path id="IR" class="cls-1" d="M294.84,70.59l1.7-.19,5.01-4.45,1.8-.47,1.8,1.8-1.13,2.93,3.69,3.22,1.23-.38,2.36,4.54,5.01,1.23,4.07,3.03,7.28,1.04,7.57-1.61,.19-1.42,4.16-1.14,2.84-3.5,3.4,.19,1.89-1.14,3.69,.57,6.24,3.12,4.07,.66,6.9,5.3,3.78,.28,1.61,5.01-.57,7.57-.47,4.45,2.36,.95-1.51,3.31,2.55,4.82,1.13,3.88,4.07,1.04,1.04,3.88-3.69,5.49,3.03,3.22,2.65,3.69,5.39,2.65,.95,5.3,2.55,1.04,.85,2.74-7.09,3.22-1.04,7-10.03-1.8-5.86-1.42-5.96-.76-3.12-7.47-2.65-1.04-3.88,1.04-4.82,2.93-6.62-1.99-5.77-4.73-5.2-1.7-4.16-5.77-4.92-8.04-2.65,.95-3.5-1.99-1.61,2.36-3.31-3.22-.47-3.22h-1.61l.19-4.45-3.31-4.54-6.72-3.4-4.35-5.77,.47-4.73,2.18-2.08-.85-3.5-3.59-1.89-4.45-7.19-3.59-4.82,.66-1.89-2.74-6.9,3.12-1.8,1.13,2.36,3.03,2.74,3.59,.85h0Z"/>
      <path id="IQ" class="cls-1" d="M289.64,80.05l4.45,7.19,3.59,1.89,.85,3.5-2.18,2.08-.47,4.73,4.35,5.77,6.72,3.4,3.31,4.54-.19,4.45h1.61l.47,3.22,3.31,3.22-3.12-.28-3.5-.57-3.12,5.86-9.65-.47-15.89-12.2-8.13-4.26-6.43-1.7-2.93-7.38,10.4-6.34,.95-7.28-1.13-4.45,2.55-1.51,1.99-3.78,1.99-.95,5.96,.85,1.99,1.51,2.27-1.04h0Z"/>
      <path id="IL" class="cls-1" d="M247.64,103.7l.38,2.46-.57,.95h.09l-.66,1.89-1.99-.76-.66,3.97,1.42,.66-1.23,.85-.09,1.61,2.36-.76,.38,2.36-1.7,9.65-.66-1.51-3.69-8.89,1.32-1.99-.38-.38,1.04-2.84,.57-4.54,.57-1.61h1.8l.38-1.04,1.32-.09h0Z"/>
      <path class="cls-1" d="M142.75,73.62l-1.61,4.82,.85,1.8-.85,3.12-3.97-2.27-2.55-.66-7.09-3.03,.47-3.12,5.86,.57,5.11-.66,3.78-.57Z"/>
      <path class="cls-1" d="M110.59,55.65l3.12,4.26-.38,8.04-2.27-.38-1.99,1.99-1.89-1.61-.47-7.28-1.23-3.4,2.74,.28,2.36-1.89Z"/>
      <path class="cls-1" d="M131.12,23.96l-.38,2.93,1.32,2.55-3.88-.95-3.69,2.18,.38,2.93-.47,1.7,1.8,3.03,4.73,3.03,2.74,5.01,5.77,4.82,3.78-.09,1.32,1.32-1.32,1.23,4.54,2.18,3.78,1.8,4.45,3.22,.57,1.04-.76,2.18-2.93-2.84-4.35-.95-1.8,3.88,3.69,2.27-.38,3.12-1.99,.38-2.36,5.2-2.08,.47-.09-1.89,.85-3.22,1.04-1.32-2.18-3.5-1.7-3.03-2.08-.76-1.7-2.55-3.22-1.13-2.27-2.46-3.59-.38-4.07-2.65-4.63-3.97-3.5-3.4-1.8-5.96-2.46-.66-3.97-1.99-2.18,.76-2.74,2.84-1.99,.38,.47-2.55-2.65-.76-1.42-4.63,1.61-1.8-1.42-2.27,.09-1.7,2.08,1.32,2.36-.28,2.55-2.08,.85,.95,2.27-.19,.95-2.36,3.59,.76,1.99-1.04,.28-2.36,2.93,.85,.47-1.13,4.63-1.04,1.23,1.99,6.9,1.61Z"/>
      <path id="JO" class="cls-1" d="M265.61,110.41l-.85,.95-9.84,3.03,5.67,6.15-1.51,.95-.66,2.08-3.88,.85-1.04,2.18-1.99,1.89-5.86-1.04-.28-.85,1.7-9.65-.38-2.36,.57-1.8-.38-3.78,.66-1.89,5.96,2.46,9.17-6.53,2.93,7.38Z"/>
      <path class="cls-1" d="M748.36,98.4l1.51,2.08-1.23,3.69-2.93-1.99-1.99,1.42,.09,3.5-4.07-1.7-1.14-2.84,1.23-3.69,3.22,.76,.95-2.55,4.35,1.32Z"/>
      <path class="cls-1" d="M771.63,80.24l.57,4.82,2.36,3.03-.57,4.26-5.11,2.84-8.7,.38-4.16,7-4.45-2.36-2.27-4.54-8.13,1.32-4.82,2.84-5.86,.19,7,4.45,.76,10.31-2.36,2.55-3.41-2.36-.85-5.49-3.88-1.7-3.78-4.16,4.07-1.89,1.04-3.88,3.69-3.12,1.89-4.16,9.17-1.8,5.96,1.23v-10.78l4.82,2.93,4.26-6.05,1.61-2.36-.95-7.38-4.82-6.81-.19-3.78,4.54-1.13,7.76,8.42,2.65,4.82-1.23,6.15,3.4,6.24Z"/>
      <path class="cls-1" d="M760.38,37.87l4.26,1.23,1.7-2.46,5.67,6.72-6.05,1.61-.38,5.96-10.31-4.07,1.51,6.53-5.39,.09-4.45-5.96-.57-4.63,4.92-.28-4.16-8.32-1.7-4.63,9.93,6.24,5.01,1.99Z"/>
      <path id="KZ" class="cls-1" d="M398.22-17.09l4.16-.28,8.7-5.49-.76,1.89,7.94,4.45,17.31,14.75,1.04-3.03,7.94,3.31,5.86-1.51,3.12,1.04,3.88,3.4,3.78,1.13,3.12,2.55,5.67-.85,4.16,3.59-1.8,3.97-3.59,.57,2.36,5.86-1.51,2.74-10.22-1.99,.95,10.69-1.89,1.32-8.61,2.36,8.32,10.4-2.74,1.51,1.61,3.5-3.31-.95-3.22-2.18-7.47-.57-8.13-.19-1.51,.66-7.76-2.55-2.36,1.32,.47,3.5-8.7-2.08-2.93,.85-.28,2.65-2.46,1.13-5.11,4.16-.85,4.35h-1.89l-2.18-2.84-6.34-.19-2.36-4.92-2.46-.09-1.42-6.05-7.19-4.35-8.13,.47-5.39,.85-6.24-5.39-4.54-2.27-8.7-4.26-1.04-.47-11.35,3.5,5.86,22.13-2.46,.28-4.54-4.73-3.69-1.7-5.3,1.23-1.7,2.08-.57-1.51,.57-2.46-1.42-2.08-6.15-2.08-3.5-5.39-3.03-1.51-.57-1.99,4.82,.57-.95-4.35,3.88-.95,4.45,.85-.66-5.77-1.8-3.69-4.73,.28-4.45-1.42-4.82,2.55-4.16,1.32-2.65-1.04-.19-3.03-4.07-3.97-3.4,.19-5.01-3.97,1.61-4.54-1.7-1.13,2.08-6.53,5.67,3.4-.57-4.26,7.66-6.34,7.19-.19,11.35,4.07,6.24,2.36,4.16-2.46,7.28-.09,6.9,3.03,.76-1.8,6.62,.28,.19-2.74-8.89-4.07,3.31-2.84-1.42-1.51,3.78-1.51-4.82-3.97,1.32-1.99,16.08-1.99,1.61-1.42,10.31-2.18,2.93-2.36,8.61,1.23,4.16,5.96,4.07-1.42,6.72,1.99,1.04,3.12h0Z"/>
      <path id="KE" class="cls-1" d="M289.64,281.98l-4.63,6.81,.19,22.13,3.12,5.01-3.78,2.46-1.32,2.55-2.08,.38-.76,4.35-1.8,2.46-1.04,3.97-2.18,1.99-7.66-6.05-.28-3.5-19.39-12.39,.38-4.45-1.32-2.36v-.28l1.51-2.46,2.65-3.97,1.99-4.45-2.46-7-.66-3.03-2.55-4.26,3.22-3.59,3.59-3.97,2.74,1.04,.09,3.4,1.8,1.99h3.78l6.81,5.11,1.7,.09,1.23-.19,1.23,.66,3.59,.57,1.51-2.55,4.92-2.55,2.18,2.08h3.69Z"/>
      <path id="KG" class="cls-1" d="M457.05,48.84l-.19,1.32-6.53,3.22-.95,2.46-6.05,.66-.57,3.88-5.49-.85-3.03,1.23-3.88,2.84,1.13,1.42-1.04,1.32-9.08,.95-6.72-1.99-5.2,.47-.57-3.4,5.67,.95,1.32-1.8,3.88,.57,5.01-4.35-6.81-3.22-3.03,1.51-4.35-2.27,2.84-3.88-1.61-.57,.28-2.65,2.93-.85,8.7,2.08-.47-3.5,2.36-1.32,7.76,2.55,1.51-.66,8.13,.19,7.47,.57,3.22,2.18,3.31,.95h0Z"/>
      <path id="KH" class="cls-1" d="M636.09,219.47l1.7,4.07,.09,7.28-8.51,4.73,2.65,3.59-5.58,.47-4.35,2.46-4.54-.85-2.46-3.22-3.31-6.24-1.99-7.38,2.93-5.01,6.72-1.14,5.01,.85,4.73,2.36,1.89-4.16,5.01,2.18h0Z"/>
      <path id="KR" class="cls-1" d="M695.78,76.55v-.57l2.36,.19,.57-2.65,3.4-.38,1.89-.38v-1.42l7.85,7.09,3.12,3.97,3.22,7-.47,3.31-4.07,1.14-2.93,2.55-4.35,.47-1.99-3.31-1.04-4.54-5.01-6.24,3.22-1.04-5.77-5.2h0Z"/>
      <path id="KW" class="cls-1" d="M312.34,123.75l1.42,2.65-.28,1.42,2.27,4.54-3.69,.19-1.61-2.93-4.73-.57,3.12-5.86,3.5,.57h0Z"/>
      <path id="LA" class="cls-1" d="M636.09,219.47l-5.01-2.18-1.89,4.16-4.73-2.36,1.42-2.74-.38-5.11-5.01-5.3-1.23-6.05-4.73-4.92-4.07-.38-.76,2.08-3.03,.19-1.8-1.04-5.01,3.59-.95-5.49,.38-6.34-3.59-.28-.85-3.69-2.55-1.89,.76-2.18,3.88-3.97,.76,1.42,2.84,.19-1.89-7,2.55-.85,3.78,4.82,3.31,5.49h6.43l2.84,5.3-3.12,1.61-1.13,2.18,6.9,3.69,5.39,7.19,4.16,5.3,4.63,4.26,1.89,4.26-.19,6.05h0Z"/>
      <path id="LB" class="cls-1" d="M247.64,103.7l-1.32,.09-.38,1.04h-1.7l1.23-5.01,2.08-4.26v-.19l2.36,.28,1.13,2.36-2.55,2.36-.85,3.31h0Z"/>
      <path id="LR" class="cls-1" d="M20.17,259.1l-.19,1.7,.47,2.93-1.14,2.74,1.51,1.7,1.7,.38,2.27,2.55,.19,2.36-.57,.76-.38,5.01-1.42,.09-5.49-2.93-4.92-4.63-4.54-3.31-3.59-3.88,1.32-1.99,.28-1.8,2.46-3.22,2.46-2.84,1.23-.19,1.32-.66,2.27,3.69-.38,2.46,1.04,1.32h1.51l1.04-2.46,1.51,.19h0Z"/>
      <path id="LY" class="cls-1" d="M194.2,114.01l-1.61,2.93,.95,2.65-1.04,3.69,1.89,4.92,1.23,21.56,.95,22.42,.47,12.11h-6.05v2.55l-21.38-11.63-21.28-11.63-5.2,3.31-3.59,2.27-3.03-3.31-8.32-2.65-2.36-3.78-4.26-2.84-2.36,1.14-1.99-3.4-.19-2.55-3.22-4.45,2.08-2.55-.57-3.78,.57-3.31-.38-2.84,.76-4.92-.38-2.84-1.8-5.39,2.46-1.32,.38-2.65-.57-2.46,3.4-2.36,1.51-1.99,2.46-1.7,.09-4.63,6.05,2.08,2.18-.57,4.26,1.04,6.9,2.74,2.65,5.39,4.63,1.14,7.38,2.55,5.67,3.03,2.36-1.61,2.36-2.74-1.51-4.63,1.42-3.03,3.5-2.84,3.5-.76,7,1.23,1.89,2.65,1.89,.09,1.7,1.04,5.11,.66,1.42,1.99h0Z"/>
      <path id="LK" class="cls-1" d="M499.99,268.08l-4.54,1.42-2.74-4.82-1.32-8.7,1.89-9.84,3.88,3.31,2.65,4.26,2.93,6.34-.57,6.34-2.18,1.7h0Z"/>
      <path id="LS" class="cls-1" d="M209.81,491.2l-1.89,.66-3.5-4.73,3.03-3.78,2.93-2.36,2.55-1.32,2.08,1.89,1.61,1.89-1.8,2.93-1.04,1.99-2.93,.95-1.04,1.89h0Z"/>
      <path id="LU" class="cls-1" d="M94.23,6.46l-1.32,.09-1.04-.47,.38-3.31,1.23-.19,.95,1.32-.19,2.55Z"/>
      <path id="MA" class="cls-1" d="M54.41,92.16l1.8,3.88,.28,3.69,1.8,6.43,1.32,1.32-.95,2.36-6.72,1.04-2.36,2.18-2.93,.57-.28,4.54-6.05,2.36-1.99,3.03-4.26,1.61-5.11,.95-8.42,4.54-.09,7.19h-.85l.09,3.22-3.22,.19-1.7,1.42h-2.36l-1.89-.85-4.35,.66-1.8,4.73-1.7,.47L.12,155.34l-7.47,6.53-1.89,8.42-2.27,2.74-.66,2.18-11.82,.47h-.09l.28-2.84,2.08-1.61,1.8-3.22-.28-2.08,1.89-4.26,3.03-3.88,1.8-.95,1.51-3.5,.19-3.31,1.99-3.69,3.59-2.27,3.4-6.15,.09-.09L.02,135.48l4.82-.66,4.16-4.16,2.65-1.61,4.45-5.11-1.14-7.47,2.08-5.3,.85-3.22,3.4-4.07,5.11-2.74,3.88-2.55,3.5-6.24,1.7-3.78,3.69,.09,2.93,2.55,4.82-.38,5.2,1.32h2.27Z"/>
      <path id="MD" class="cls-1" d="M200.63,30.02l-1.23-2.74,.19-2.55-.57-2.55-3.22-3.59-1.89-2.46-1.7-1.7-1.51-.66,1.04-.85,3.03-.57,3.78,1.8,1.89,.28,2.46,1.61-.09,1.99,1.89,.95,1.04,2.46,1.89,1.51-.19,.95,.95,.57-1.23,.47-2.84-.19-.57-.85-.95,.47,.57,1.04-1.04,1.99-.57,1.99-1.13,.66h0Z"/>
      <path id="MG" class="cls-1" d="M331.63,388.11l.38,7.28,1.23,2.84-.66,2.93-1.13,1.7-1.51-3.5-1.13,1.8,.76,4.45-.66,2.65-1.61,1.32-.66,5.2-2.55,7.09-3.22,8.32-4.07,11.54-2.74,8.42-2.93,7.09-4.35,1.42-4.82,2.55-2.84-1.51-3.97-2.18-1.13-3.22v-5.39l-1.42-4.82-.19-4.45,1.23-4.35,2.46-1.04,.19-1.99,2.74-4.63,.76-3.88-1.04-2.84-.76-3.88-.09-5.58,2.08-3.4,.95-3.88,2.65-.19,3.03-1.23,2.08-1.14,2.27-.09,3.22-3.4,4.63-3.78,1.7-3.03-.57-2.65,2.27,.76,3.12-4.16,.28-3.69,1.89-2.74,1.7,2.65,1.32,2.55,1.13,4.07h0Z"/>
      <path id="MK" class="cls-1" d="M178.03,54.89l-.95,.19-.76,1.04-2.65-.09-1.7,1.32-3.22,.47-2.18-1.42-.95-2.55,.47-2.08,.66,.09,.09-1.23,2.74-.95,1.13-.28,1.61-.28,2.27-.19,2.65,1.99,.76,3.97h0Z"/>
      <path id="ML" class="cls-1" d="M87.89,189.39l.09,14-2.93,4.07-.38,3.78-4.73,.95-7.28,.47-1.89,2.18-3.4,.28h-3.4l-1.32-1.14-2.93,.85-5.01,2.55-1.04,1.89-4.07,2.65-.76,1.61-2.27,1.23-2.55-.85-1.42,1.51-.85,4.16-4.26,5.01,.19,2.08-1.51,2.55,.38,3.5-2.27,.95-1.23,.76-.85-2.55-1.51,.66-.95-.09-.95,1.7h-4.16l-1.42-.95-.76,.57-1.61-1.8,.28-1.8-.66-.66-1.14,.57,.28-1.99,1.04-1.51-2.18-2.55-.57-1.7-1.23-1.32-1.04-.19-1.23,.85-1.8,.85-1.42,1.32-2.27-.47-1.51-1.61-.85-.19-1.42,.85h-.85l-.28-2.27,.28-1.89-.47-2.27-1.89-1.7-1.04-3.5-.19-3.78,1.8-1.14,.95-3.59,1.7-.09,3.69,1.7,3.03-1.23,1.99,.38,.85-1.32,21.28-.09,1.23-4.26-.95-.76-2.36-26.2-2.27-26.2,8.04-.09,17.59,13.24,17.69,13.24,1.23,2.84,3.31,1.7,2.46,1.04,.09,3.88,5.86-.66h0Z"/>
      <path id="MM" class="cls-1" d="M596.94,175.58l-3.88,3.97-.76,2.18-2.84,1.42-2.65,2.65-3.69,.28-1.42,6.53-2.08,1.14,3.31,5.3,3.88,4.45,2.74,4.07-1.32,5.2-1.7,1.14,1.7,3.03,4.07,4.82,.95,3.4,.19,2.84,2.55,5.58-2.46,5.67-2.08,6.24-.85-4.54,1.23-4.63-2.08-3.59-.19-6.62-2.46-3.22-2.55-7.19-1.89-7.66-2.93-5.11-3.03,3.12-5.49,4.26-3.12-.47-3.4-1.42,.85-7.57-1.89-5.67-5.01-7,.28-2.18-3.22-.85-4.35-4.92-1.04-4.92,1.99,.95-.57-4.35,2.36-1.42-.95-2.55,.95-2.08-.85-6.34,4.35,1.42,1.51-5.01-.28-2.93,1.89-5.11-.85-3.5,5.86-4.16,3.97,1.04-1.32-3.69,1.61-1.14-.95-2.27,2.93-.47,2.55,3.59,2.55,1.42,1.23,4.63,.85,5.01-3.97,5.11,.66,7.19,5.3-1.04,2.27,5.58,3.5,1.23-.76,5.01,4.26,2.27,2.46,1.14,3.59-1.8,.47,2.55h0Z"/>
      <path id="ME" class="cls-1" d="M163.94,46l-.76,1.32-1.32,.57-.38-1.13-1.8,2.93,.47,1.99-1.04-.47-1.61-1.99-2.18-1.23,.47-.95,.38-3.31,1.51-1.42,.85-.57,1.32,1.04,.85,.85,1.61,.66,1.99,1.23-.38,.47h0Z"/>
      <path id="MN" class="cls-1" d="M547.56,2.78l3.78-1.13,5.39-.76,5.11,.85,6.24,2.74,4.63,3.03h4.35l6.43,.95,3.4-1.51,5.58-.95,4.16-4.16,3.22,.66,3.69,1.99,5.3-.57,.57,4.45,.28,5.96,2.65,2.36,2.18-.76,5.2,.95,2.36-2.18,4.92,1.89,6.81,4.16,.76,2.08-4.16-.66-6.43,.76-2.36,1.7-1.23,3.97-6.05,2.27-3.03,3.22-5.58-1.23-3.03-.57-.47,3.88,2.74,2.27,1.8,1.99-2.27,2.08-1.89,3.22-4.63,2.08-7.19,.19-6.81,2.08-4.16,3.22-3.12-1.8h-5.86l-8.89-3.69-5.3-.85-6.05,.85-10.69-1.42-5.3,.19-4.45-3.59-4.73-5.49-3.22-.66-7.57-3.78-6.81-.76-6.15-1.04-2.84-2.65-1.32-6.9-5.49-4.82-7.76-2.18-5.39-3.12-3.12-4.16,4.45-1.04,6.34-5.01,5.58-2.74,5.01,1.8,4.92,.09,4.54,2.74,4.73,.19,7.57,1.51,2.27-4.16-3.78-3.4,1.23-6.05,6.62,2.36,4.54,.76,6.34,1.51,3.4,4.35,8.04,2.46h0Z"/>
      <path id="MZ" class="cls-1" d="M235.91,468.12h-3.88l-.28-2.74-.57-2.74-.38-2.18,1.32-6.72-1.04-4.35-2.08-8.51,5.86-6.9,1.61-4.35,.76-.57,.85-3.59-.76-1.8,.38-4.54,1.23-4.16,.38-7.76-2.65-1.89-2.55-.47-1.04-1.51-2.46-1.23-4.45,.09-.19-2.27-.38-4.35,16.27-5.01,3.03,2.93,1.42-.57,2.08,1.51,.19,2.46-1.23,2.84,.19,4.26,3.31,3.78,1.8-4.26,2.36-1.23-.09-7.85-2.08-4.35-1.8-1.99h-.38l-.57-6.9,1.42-5.77,2.08-.19,6.34,1.7,1.42-.76,3.69-.19,1.99-1.8,3.22,.09,5.86-2.36,4.35-3.5,.85,2.65-.47,6.05,.47,5.39-.19,9.46,.76,2.93-1.8,4.35-2.27,4.26-3.5,3.78-5.01,2.27-6.15,2.93-6.24,6.53-2.08,1.14-3.97,4.35-2.18,1.32-.76,4.35,2.27,4.63,.85,3.5v1.89l.95-.38-.47,5.96-1.04,2.84,1.13,1.04-.95,2.55-2.27,2.18-4.45,1.99-6.53,3.31-2.36,2.27,.28,2.55,1.23,.38-.66,3.22h0Z"/>
      <path id="MR" class="cls-1" d="M39.65,154.11l-8.04,.09,2.27,26.2,2.36,26.2,.95,.76-1.23,4.26-21.28,.09-.85,1.32-1.99-.38-3.03,1.23-3.69-1.7-1.7,.09-.95,3.59-1.8,1.14-3.4-4.16-3.22-4.54-3.4-1.61-2.55-1.7h-2.93l-2.65,1.32-2.55-.47-1.89,1.89-.38-3.22,1.51-3.03,.76-5.67-.38-6.05-.57-3.03,.57-3.03-1.32-2.84-2.65-2.65,1.23-1.99H-2.62l-.85-8.8,1.42-3.12,4.92-.47,.19-15.61,17.02,.38,.19-9.27,19.39,14.75h0Z"/>
      <path id="MW" class="cls-1" d="M250.67,388.11h.38l1.8,1.99,2.08,4.35,.09,7.85-2.36,1.23-1.8,4.26-3.31-3.78-.19-4.26,1.23-2.84-.19-2.46-2.08-1.51-1.42,.57-3.03-2.93-2.74-1.51,1.89-5.67,1.7-2.08-.85-5.11,1.23-4.92,.95-1.61-1.23-5.11-2.46-2.74,5.2,1.14,.95,1.61-.09,.76,1.7,3.88,.19,7.28-1.7,3.4,1.51,4.45-.19,2.65,1.13,1.8-.09,2.27,.85,1.32,.95-1.51,1.8,2.36,.19-.76-.95-3.22-1.04-.28-.09-.85h0Z"/>
      <path class="cls-1" d="M611.98,267.99l1.32,.57,3.31,3.69,2.36,4.07,.57,4.07-.47,2.74,.57,2.08,.47,3.59,1.99,1.7,2.18,5.39v1.99l-3.78,.47-5.2-4.54-6.43-4.82-.76-3.12-3.22-4.07-.95-5.01-2.08-3.31,.38-4.45-1.32-2.55,.85-1.04,4.54,2.65,.57,3.12,3.5-.76,1.61-2.46Z"/>
      <path class="cls-1" d="M696.91,280.66l-4.73-1.04h-6.15l-1.61,6.9-1.99,2.08-2.46,8.42-4.35,1.32-5.11-1.7-2.55,.57-3.12,3.03-3.4-.38-3.5,1.23-3.69-3.5-.95-4.07,3.97,2.08,4.07-1.14,.95-5.11,2.27-1.14,6.43-1.32,3.59-4.82,2.46-3.78,2.65,3.12,1.04-2.08,2.55,.19,.09-3.88,.09-3.03,3.88-4.16,2.46-4.73,2.18-.09,2.93,3.12,.38,2.65,3.59,1.7,4.54,1.8-.19,2.36-3.59,.28,1.04,3.03-3.78,2.08Z"/>
      <path id="NA" class="cls-1" d="M188.15,412.13l4.35-1.32,3.4,.28,2.08,1.42v.47l-3.03,1.42h-1.61l-3.5,2.36-1.89-2.55-8.23,2.18-3.97,.19-.76,21.66-5.2,.19-.57,17.69-1.04,22.42-4.73,3.12-2.74,.47-3.22-1.14-2.36-.47-.76-2.55-1.89-1.7-2.65,3.03-3.69-4.63-1.89-4.35-.95-5.96-1.13-4.35-1.51-9.36,.09-7.28-.57-3.31-1.99-2.55-2.65-5.01-2.65-7.28-1.04-3.78-4.16-5.96-.28-4.63,2.55-1.14,3.22-1.04,3.4,.19,3.12,2.74,.76-.47,21.47-.19,3.59,2.84,12.77,.85,9.84-2.46h0Z"/>
      <path id="NE" class="cls-1" d="M143.13,166.88l1.51,9.46,2.08,1.61,.09,1.89,2.27,2.08-1.13,2.65-1.7,12.3-.19,7.94-6.62,5.67-2.18,8.04,2.27,2.27v3.88l3.5,.09-.57,2.93-1.42,.28-.19,1.99-.95,.09-3.69-6.62-1.32-.28-4.07,3.4-4.16-1.8-2.84-.28-1.51,.85-3.12-.19-3.12,2.55-2.74,.19-6.43-3.12-2.55,1.42-2.74-.09-1.99-2.27-5.3-2.27-5.77,.76-1.32,1.23-.76,3.5-1.51,2.46-.38,5.49-4.07-3.5h-1.89l-1.8,1.8,.09-4.16-6.15-1.42-.19-2.93-2.93-3.97-.76-2.74,.47-2.93,3.4-.28,1.89-2.18,7.28-.47,4.73-.95,.38-3.78,2.93-4.07-.09-14,7.38-2.65,15.13-11.92,17.78-11.63,8.32,2.65,3.03,3.31,3.59-2.27h0Z"/>
      <path id="NG" class="cls-1" d="M140.86,229.96l2.18,2.36-.57,1.14-.28,1.99-4.45,4.73-1.32,3.88-.76,3.12-1.13,1.42-1.04,4.26-2.84,2.46-.76,3.03-1.23,2.46-.47,2.55-3.69,2.08-3.03-2.55-1.99,.09-3.22,3.59h-1.51l-2.55,5.86-1.32,4.35-5.58,2.18-1.99-.28-2.08,1.32-4.26-.09-2.93-3.88-1.8-4.35-3.78-3.97h-8.7l.28-9.74-.19-3.88,1.04-3.78,1.61-1.89,2.65-3.78-.57-1.61,1.04-2.46-1.23-3.59,.19-1.99,.38-5.49,1.51-2.46,.76-3.5,1.32-1.23,5.77-.76,5.3,2.27,1.99,2.27,2.74,.09,2.55-1.42,6.43,3.12,2.74-.19,3.12-2.55,3.12,.19,1.51-.85,2.84,.28,4.16,1.8,4.07-3.4,1.32,.28,3.69,6.62,.95-.09h0Z"/>
      <path id="NP" class="cls-1" d="M521.84,136.52l.19,2.55,1.42,3.88-.09,2.36-4.35,.09-6.53-1.42-4.07-.57-3.59-3.03-7.28-.85-7.38-3.4-5.49-2.93-5.49-2.27,.85-5.67,2.65-2.84,1.8-1.42,4.54,1.89,6.05,3.97,3.12,.85,2.36,2.93,4.26,1.14,4.73,2.74,6.15,1.32,6.15,.66h0Z"/>
      <path class="cls-1" d="M346.67,204.62l-2.08-4.26-4.92-10.03,15.42-6.05,2.46-12.11-2.84-4.35v-2.46l1.23-2.46-.19-2.46,2.27-1.23-1.04-.85v-3.97h2.65l2.84,4.16,3.12,2.18,3.88,.85,3.22,1.04,2.74,3.5,1.61,1.99,1.89,.85,.19,1.32-1.61,3.59-.66,1.7-2.08,1.99-1.61,4.16-2.36-.38-.95,1.51-.66,3.03,1.04,4.07-.47,.76h-2.36l-3.12,2.27-.28,2.93-1.13,1.32-3.31-.09-1.89,1.51,.19,2.46-2.46,1.7-2.93-.57-3.4,2.08-2.36,.28Z"/>
      <path class="cls-1" d="M358.4,149.57l-1.23-2.08,1.32-1.99,.66,.47-.19,2.55-.57,1.04Z"/>
      <path id="PK" class="cls-1" d="M458.09,90.17l-3.59,5.11-5.39,.95-8.04-1.51-1.89,2.65,3.12,5.3,2.74,4.16,4.82,2.93-3.59,3.5,.95,4.35-3.69,6.15-2.08,6.15-4.26,6.34-6.15-.47-4.63,6.43,3.78,2.65,1.32,4.73,3.31,3.03,1.7,5.2h-11.44l-3.03,4.07-3.97-1.51-2.08-4.35-4.63-4.63-9.46,1.14-8.51,.09-7.19,.85,1.04-7,7.09-3.22-.85-2.74-2.55-1.04-.95-5.3-5.39-2.65-2.65-3.69-3.03-3.22,9.08,3.12,5.01-.95,3.22,.76,.85-1.32,3.69,.57,6.24-2.55-.76-5.11,2.18-3.5h3.88l.19-1.61,3.78-.85,1.99,.57,1.7-1.7-1.04-3.69,1.32-3.59,2.93-1.61-2.93-3.97,4.92,.19,.85-2.18-.76-2.36,1.89-2.55-1.32-3.03-1.8-2.55,2.27-2.65,5.01-1.23,5.58-.76,2.27-1.04,2.74-.76,4.45,2.84,2.74,4.73,8.99,2.36h0Z"/>
      <path class="cls-1" d="M740.8,254.65l.85,4.07,.57,3.4-1.51,5.49-2.36-6.15-2.27,3.12,1.99,4.45-1.32,2.84-6.53-3.5-1.8-4.45,1.42-2.84-3.59-2.93-1.51,2.55-2.46-.28-3.78,3.4-.95-1.8,1.7-5.11,3.22-1.7,2.74-2.27,2.08,2.74,3.97-1.61,.66-2.74,3.78-.19-.76-4.63,4.63,2.84,.66,3.03,.57,2.27Z"/>
      <path class="cls-1" d="M726.99,243.3l-1.7,1.99-1.32,3.88-1.51,1.8-3.69-4.16,.95-1.7,1.23-1.7,.19-3.69,2.93-.38-.47,4.07,3.4-5.86v5.77Z"/>
      <path class="cls-1" d="M698.33,249.16l-6.72,5.77,2.27-4.26,3.59-3.78,2.84-4.16,2.18-6.05,1.51,5.01-3.31,3.31-2.36,4.16Z"/>
      <path class="cls-1" d="M714.88,233.56l3.4,1.89h3.31l.19,2.46-2.18,2.65-3.22,1.8-.47-2.84,.09-3.12-1.14-2.84Z"/>
      <path class="cls-1" d="M733.89,231.86l2.27,6.81-4.26-1.61,.28,2.08,1.7,3.69-2.46,1.42-.57-4.35-1.7-.28-1.13-3.69,3.12,.47-.28-2.27-3.78-4.63,5.11,.09,1.7,2.27Z"/>
      <path class="cls-1" d="M712.14,226.37l-.85,5.3-2.55-3.03-3.31-4.63,4.54,.19,2.18,2.18Z"/>
      <path class="cls-1" d="M705.99,193.36l3.59,1.8,1.32-1.61,.76,1.51-.38,2.55,2.46,4.35-.57,5.01-2.74,1.99-.09,4.92,1.89,4.82,2.84,.66,2.27-.66,7.09,3.31-.09,3.31,1.99,1.51-.28,2.74-4.45-2.93-2.36-3.22-1.13,2.27-3.78-3.69-4.73,.95-2.84-1.32-.09-2.55,1.51-1.51-1.8-1.42-.38,2.18-3.12-3.5-1.23-2.65-1.04-5.77,2.46,1.99-1.04-9.55,.76-5.49h3.22Z"/>
      <path id="PL" class="cls-1" d="M153.82-22.48l5.58,.66,8.32-.09,2.36,.66,1.32,1.8,.57,2.55,1.61,2.18,.38,2.27-2.65,1.23,1.8,2.65,.47,2.65,3.03,5.11-.28,1.61-2.18,.66-3.59,4.92,1.51,2.65-1.04-.38-4.73-2.27-3.31,.85-2.27-.57-2.65,1.23-2.55-2.08-1.8,.85-.28-.38-2.46-2.93-3.5-.28-.66-1.89-3.22-.66-.57,1.51-2.65-1.23,.19-1.61-3.5-.47-2.36-1.89-2.27-3.69,.19-2.08-1.42-3.12-1.8-1.99,1.13-1.61-1.32-2.93,2.93-1.7,6.72-2.65,5.49-1.89,4.54,.95,.57,1.42h4.35Z"/>
      <path id="KP" class="cls-1" d="M702.78,48.55l1.32,1.04-2.08-.38-.95,2.08-.28,1.99,2.65,4.35-1.8,1.32-.28,1.04-.85,1.8-2.74,1.04-1.32,1.61,1.23,2.55-.28,.66,2.46,1.04,4.16,2.65v1.42l-1.89,.38-3.4,.38-.57,2.65-2.36-.19v.57l-3.03-1.14-.09,1.14-1.23,.47-.66-1.14-1.61-.57-1.8-.95,.09-2.65,.85-.76-.95-1.04-.38-3.31-.85-.95-3.22-.66-3.22-1.61,1.99-3.88,3.69-3.22,1.04-4.35,3.4,1.89,4.35,.28-2.65-3.22,6.05-2.55v-3.4l5.2,3.59h0Z"/>
      <path id="PS" class="cls-1" d="M246.89,108.99l.38,3.78-.57,1.8-2.36,.76,.09-1.61,1.23-.85-1.42-.66,.66-3.97,1.99,.76h0Z"/>
      <path id="QA" class="cls-1" d="M333.71,156.19l-1.42,.47-1.7-1.23-.76-4.45,1.04-3.12,1.42-.66,1.7,1.89,.47,3.5-.76,3.59h0Z"/>
      <path id="RO" class="cls-1" d="M190.7,13.75l1.51,.66,1.7,1.7,1.89,2.46,3.22,3.59,.57,2.55-.19,2.55,1.23,2.74,2.27,1.13,2.18-1.04,2.27,1.04,.38,1.61-2.18,1.23-1.51-.57-.38,7.28-2.93-.66-3.78-2.18-5.58,1.42-2.18,1.51-7.19-.38-3.78-.85-1.8,.38-1.7-2.46-.95-1.04,.95-1.04-1.23-.66-1.42,1.32-2.93-1.8-.66-2.46-3.03-1.32-.76-1.99-2.84-2.27,3.69-1.13,2.46-4.07,1.8-3.97,2.74-1.23,1.89-1.32,3.03,.66h3.03l2.36,1.51,1.51-.95,3.4-.57,.95-1.42h1.99Z"/>
      <path id="RW" class="cls-1" d="M228.44,312.63l2.08,3.4-.28,3.59-1.51,.76-2.93-.38-1.61,3.5-3.31-.47,.57-3.4,.76-.47,.19-3.59,1.51-1.7,1.32,.66,3.22-1.89h0Z"/>
      <path id="EH" class="cls-1" d="M20.45,137.84l-.09,.38-.09,1.14-.19,9.27-17.02-.38-.19,15.61-4.92,.47-1.42,3.12,.85,8.8H-23.15l-1.23,1.99,.28-2.55h.09l11.82-.47,.66-2.18,2.27-2.74,1.89-8.42L.12,155.34l2.55-7.66,1.7-.47,1.8-4.73,4.35-.66,1.89,.85h2.36l1.7-1.42,3.22-.19-.09-3.22h.85Z"/>
      <path id="SA" class="cls-1" d="M305.72,129.04l4.73,.57,1.61,2.93,3.69-.19,2.55,5.3,2.74,1.32,1.13,2.18,3.78,2.55,.66,2.46-.38,2.08,.85,1.99,1.7,1.7,.85,1.99,.95,1.51,1.7,1.23,1.42-.47,1.23,2.36,.28,1.32,2.55,6.24,15.98,3.03,.95-1.32,2.84,4.35-2.46,12.11-15.42,6.05-15.04,2.36-4.73,2.74-3.31,6.34-2.46,1.04-1.42-1.99-1.99,.28-5.2-.66-1.04-.57-6.05,.09-1.42,.57-2.27-1.51-1.23,2.93,.76,2.55-2.27,1.99-.85-2.65-1.7-1.8-.47-2.46-2.93-2.18-3.12-5.11-1.8-4.92-3.88-4.16-2.36-1.04-3.88-5.77-.85-4.16v-3.59l-3.4-6.81-2.65-2.36-2.84-1.23-1.99-3.5,.19-1.32-1.7-3.22-1.61-1.32-2.36-4.54-3.59-4.82-2.93-4.16h-2.55l.47-3.31,.09-2.18,.38-2.46,5.86,1.04,1.99-1.89,1.04-2.18,3.88-.85,.66-2.08,1.51-.95-5.67-6.15,9.84-3.03,.85-.95,6.43,1.7,8.13,4.26,15.89,12.2,9.65,.47h0Z"/>
      <path id="SD" class="cls-1" d="M258.9,218.14l-.66,5.2-1.89,6.05-3.12,2.93-2.18,4.73-.47,2.46-2.46,1.7-1.42,6.34v.76l-.76-.19,.09-3.03-.76-2.08-2.74-2.36-.85-4.35,.57-4.54-2.46-.38-.38,1.32-3.22,.38,1.42,1.7,.47,3.69-2.84,3.31-2.55,4.35-2.74,.66-4.54-3.5-1.99,1.23-.47,1.7-2.74,1.23-.19,1.23h-5.3l-.76-1.23-3.88-.28-1.89,1.04-1.51-.47-2.74-3.59-.95-1.61-3.88,.85-1.42,2.74-1.23,5.49-1.89,1.14-1.61,.66-.47-.28-1.8-1.8-.38-1.89,.76-2.46v-2.55l-3.12-3.78-.66-2.55v-1.51l-1.99-1.8-.09-3.5-1.23-2.36-1.8,.38,.47-2.27,1.32-2.46-.66-2.55,1.7-1.89-1.13-1.42,1.23-3.69,2.36-4.54,4.54,.47-1.04-24.12v-2.55h6.05l-.47-12.11h62.33l1.99,5.96-1.13,1.04,1.13,6.34,2.36,7.19,2.08,1.51,3.03,2.27-2.55,3.4-3.78,1.04-1.61,1.89-.28,3.97-1.89,8.99,.66,2.36h0Z"/>
      <path id="SS" class="cls-1" d="M246.7,248.31l.19,4.73-.76,1.8-2.84,.19-1.8,3.4,3.31,.47,2.84,2.93,.95,2.46,2.46,1.42,3.31,6.62-3.59,3.97-3.22,3.59-3.31,2.84h-3.78l-4.26,1.42-3.4-1.42-2.18,1.7-4.82-4.07-1.32-2.55-2.93,1.23-2.46-.38-1.42,1.04-2.46-.76-3.31-5.01-.85-1.89-4.07-2.46-1.32-3.59-2.27-2.65-3.69-3.12-.09-1.99-2.93-2.46-3.69-2.36,1.61-.66,1.89-1.14,1.23-5.49,1.42-2.74,3.88-.85,.95,1.61,2.74,3.59,1.51,.47,1.89-1.04,3.88,.28,.76,1.23h5.3l.19-1.23,2.74-1.23,.47-1.7,1.99-1.23,4.54,3.5,2.74-.66,2.55-4.35,2.84-3.31-.47-3.69-1.42-1.7,3.22-.38,.38-1.32,2.46,.38-.57,4.54,.85,4.35,2.74,2.36,.76,2.08-.09,3.03,.76,.19h0Z"/>
      <path id="SN" class="cls-1" d="M.69,217.01l.19,3.78,1.04,3.5,1.89,1.7,.47,2.27-.28,1.89-.76,.38-2.93-.47-.38,.66-1.14,.09-3.88-1.42-2.55-.09-9.84-.28-1.42,.76-1.8-.19-2.84,.95-.76-4.63,4.82,.09,1.32-.85h.95l1.99-1.42,2.27,1.23,2.27,.19,2.36-1.42-1.04-1.7-1.8,.95h-1.61l-2.08-1.51-1.7,.09-1.23,1.51-5.77,.09-2.18-4.73-2.55-2.08,2.36-1.23,2.65-4.26,1.32-3.12,1.89-1.89,2.55,.47,2.65-1.32h2.93l2.55,1.7,3.4,1.61,3.22,4.54,3.4,4.16H.69Z"/>
      <path id="SL" class="cls-1" d="M10.62,254.74l-2.46,2.84-2.46,3.22-.28,1.8-1.32,1.99-1.42-.47-3.78-2.46-2.84-3.22-.85-2.27-.66-4.45,2.93-2.74,.57-1.61,.95-1.32,1.51-.19,1.23-1.14H5.98l1.51,2.18,1.14,2.55-.19,1.8,.85,1.61-.09,2.18,1.42-.28h0Z"/>
      <path id="RS" class="cls-1" d="M174.72,37.49l-1.04,1.32,.66,2.27,2.65,2.55-1.7,1.89-.57,1.89,.57,.76-.66,.76-2.27,.19-1.61,.28-.28-.47,.57-.66,.38-1.51-.66,.09-1.04-1.13-.85-.28-.76-.95-.95-.38-.76-.85-.85,.38-.47,1.99-1.13,.38,.38-.47-1.99-1.23-1.61-.66-.85-.85-1.32-1.04,1.04-.28,.47-2.74-2.55-2.36,1.04-2.65-1.8,.09,1.61-2.27-1.61-1.7-1.42-2.36,3.5-1.51,3.03,.28,2.84,2.27,.76,1.99,3.03,1.32,.66,2.46,2.93,1.8,1.42-1.32,1.23,.66-.95,1.04,.95,1.04h0Z"/>
      <path id="SK" class="cls-1" d="M171.03,8.64l-1.13,1.61-.66,2.36-.95,.57-5.2-1.8-1.51,.38-.95,1.42-2.18,.76-.57-.38-2.18,.85-1.8,.19-.28,1.23-3.88,.66-1.8-.57-2.55-1.61-.66-1.99,.28-.76,.57-1.32,2.08,.09,1.51-.57,.09-.57,.85-.28,.19-1.32,1.04-.28,.66-1.04h1.42l.28,.38,1.8-.85,2.55,2.08,2.65-1.23,2.27,.57,3.31-.85,4.73,2.27h0Z"/>
      <path id="SI" class="cls-1" d="M144.26,23.96l-3.69,1.61-.28,2.36-1.61,.66,.09,1.61-1.89-.09-1.7-.95-.76,.95-3.4-.19,1.04-.47-1.32-2.55,.38-2.93,3.97,.47,2.27-1.42,4.16-.09,.85-1.04,.76,.09,1.13,1.99h0Z"/>
      <path id="SZ" class="cls-1" d="M231.18,462.64l.57,2.74,.28,2.74-1.32,2.65-3.03,.66-2.93-3.31,.09-2.08,1.61-2.27,.57-1.8,1.61-.38,2.55,1.04h0Z"/>
      <path id="SY" class="cls-1" d="M262.68,103.03l-9.17,6.53-5.96-2.46h-.09l.57-.95-.38-2.46,.85-3.31,2.55-2.36-1.13-2.36-2.36-.28-1.04-4.63,.95-2.55,1.23-1.32,1.13-1.32-.19-3.31,1.8,1.14,5.3-1.7,2.84,1.14h4.16l5.39-2.27,2.74,.09,5.58-.95-1.99,3.78-2.55,1.51,1.13,4.45-.95,7.28-10.4,6.34h0Z"/>
      <path id="TD" class="cls-1" d="M190.99,186.83l1.04,24.12-4.54-.47-2.36,4.54-1.23,3.69,1.13,1.42-1.7,1.89,.66,2.55-1.32,2.46-.47,2.27,1.8-.38,1.23,2.36,.09,3.5,1.99,1.8v1.51l-3.4,1.04-2.65,2.46-3.78,6.62-4.92,2.84-5.2-.38-1.51,.57,.57,2.08-2.74,2.18-2.27,2.36-6.72,2.27-1.32-1.32-.95-.19-.95,1.61-4.35,.47,.76-1.7-1.7-4.16-.76-2.46-2.36-1.04-3.22-3.59,1.13-2.84,2.46,.57,1.51-.38h3.03l-3.03-5.49,.19-4.07-.47-3.97-2.18-3.88,.57-2.93-3.5-.09v-3.88l-2.27-2.27,2.18-8.04,6.62-5.67,.19-7.94,1.7-12.3,1.13-2.65-2.27-2.08-.09-1.89-2.08-1.61-1.51-9.46,5.2-3.31,21.28,11.63,21.38,11.63h0Z"/>
      <path id="TG" class="cls-1" d="M70.11,238.95l-.66,3.22,1.61,1.8,1.89,2.08,.19,3.03,1.14,1.23-.28,14,1.32,4.16-4.26,1.32-1.23-2.18-1.42-3.88-.47-3.03,1.23-5.39-1.32-2.27-.57-4.73v-4.45l-2.18-3.12,.38-1.89,4.63,.09h0Z"/>
      <path id="TH" class="cls-1" d="M624.46,219.09l-5.01-.85-6.72,1.14-2.93,5.01,1.99,7.38-5.01-2.84-4.54,.19,.28-4.82h-4.63l.19,6.72-2.08,8.89-1.32,5.39,.66,4.35,3.5,.19,2.55,5.58,1.23,5.2,3.22,3.5,3.22,.66,2.93,3.22-1.61,2.46-3.5,.76-.57-3.12-4.54-2.65-.85,1.04-2.18-2.27-1.13-3.03-3.03-3.4-2.74-2.93-.66,3.59-1.23-3.4,.38-3.78,1.13-5.77,2.08-6.24,2.46-5.67-2.55-5.58-.19-2.84-.95-3.4-4.07-4.82-1.7-3.03,1.7-1.14,1.32-5.2-2.74-4.07-3.88-4.45-3.31-5.3,2.08-1.14,1.42-6.53,3.69-.28,2.65-2.65,2.84-1.42,2.55,1.89,.85,3.69,3.59,.28-.38,6.34,.95,5.49,5.01-3.59,1.8,1.04,3.03-.19,.76-2.08,4.07,.38,4.73,4.92,1.23,6.05,5.01,5.3,.38,5.11-1.42,2.74h0Z"/>
      <path id="TJ" class="cls-1" d="M415.91,61.51l-1.32,1.8-5.67-.95,.57,3.4,5.2-.47,6.72,1.99,9.08-.95,2.93,5.67,1.42-.66,3.5,1.42,.47,2.36,1.7,3.4h-5.11l-3.59-.47-2.36,2.74-2.08,.57-1.42,1.32-2.55-1.99-.85-5.11-1.61-.28,.09-1.89-3.12-1.32-1.61,2.08,.19,2.46-.57,.85-3.03-.09-.85,2.74-1.99-1.14-3.22,1.89-1.7-.66,1.23-6.15-2.27-4.54-3.97-1.42,.57-2.65,4.16,.28,1.42-3.31,.47-3.88,6.15-1.42-.19,2.84,1.23,1.61,1.99-.09h0Z"/>
      <path id="TM" class="cls-1" d="M398.22,78.91l-1.51-.19-2.74-1.61-.28,2.08-3.97,1.23,.19,4.82-2.46,1.89-3.78,.85-.38,2.74-3.69,.85-5.58-2.36-1.61-5.01-3.78-.28-6.9-5.3-4.07-.66-6.24-3.12-3.69-.57-1.89,1.14-3.4-.19-2.84,3.5-4.16,1.14-1.8-4.26-.57-6.34-4.35-2.08,.38-4.07-3.31-.38-.09-5.11,5.01,1.51,3.88-1.89-4.45-3.69-2.27-3.4-3.59,1.51,.57,4.45-2.46-3.88,1.7-2.08,5.3-1.23,3.69,1.7,4.54,4.73,2.46-.28,5.58-.09-1.61-3.03,3.59-2.08,3.22-3.5,7.47,3.22,1.8,4.73,2.18,1.23,5.2-.28,1.99,1.13,4.07,6.24,6.72,4.16,3.97,2.84,5.96,2.93,7.28,2.65,.76,3.69h0Z"/>
      <path id="TL" class="cls-1" d="M733.42,362.76l.09-1.8-.47-1.23,.76-1.42,4.63-1.32,3.78-.28,1.7-.76,1.99,.76-2.08,1.7-5.77,2.65-4.63,1.7h0Z"/>
      <path id="TN" class="cls-1" d="M123.83,104.55l-.09,4.63-2.46,1.7-1.51,1.99-3.4,2.36,.57,2.46-.38,2.65-2.46,1.32-2.46-10.88-3.22-2.46-.09-1.42-4.26-3.69-.57-4.54,3.03-3.4,1.04-5.01-.95-5.77,.95-3.12,5.39-2.36,3.5,.66v3.12l4.16-2.27,.38,1.14-2.36,3.03,.09,2.74,1.8,1.51-.47,5.3-3.31,3.03,1.13,3.31,2.65,.09,1.32,2.93,1.99,.95h0Z"/>
      <path class="cls-1" d="M269.02,53.66l5.2-.28,5.3,3.03,1.23,2.08,.09,2.93,3.97,1.51,2.27,1.7-3.12,1.8,2.74,6.9-.66,1.89,3.59,4.82-2.27,1.04-1.99-1.51-5.96-.85-1.99,.95-5.58,.95-2.74-.09-5.39,2.27h-4.16l-2.84-1.14-5.3,1.7-1.8-1.14,.19,3.31-1.14,1.32-1.23,1.32-2.18-2.74,1.61-2.27-3.03,.57-4.35-1.42-3.03,3.5-7.57,.66-4.45-3.22-5.39-.19-.95,2.46-3.4,.76-5.11-3.22-5.49,.09-3.59-6.05-3.97-3.31,1.89-4.73-3.4-2.93,4.82-5.77,7.57-.19,1.51-4.63,9.46,.85,5.3-3.88,5.49-1.7,8.04-.19,9.27,4.26,7.47,2.36,5.49-.95,4.35,.57,5.2-3.22Z"/>
      <path class="cls-1" d="M193.54,58.01l1.13-.66,1.04-3.78-2.55-1.61,4.73-1.89,4.35,.76,.85,2.36,4.54,1.89-.66,1.51-5.86,.28-1.89,1.89-3.69,3.22-1.89-2.74-.09-1.23Z"/>
      <path id="TW" class="cls-1" d="M700.51,167.35l-1.32,5.01-3.78-5.2-1.42-4.45,1.8-5.96,3.12-4.63,2.84,1.8-.09,3.69-1.13,9.74h0Z"/>
      <path id="TZ" class="cls-1" d="M236.2,311.97l-.19,3.69-1.04,4.26,1.51,2.36,2.36-1.42,3.12-.38,.66,.76,3.12-1.51-2.18-2.08,1.8-2.74,2.65-2.74,19.39,12.39,.28,3.5,7.66,6.05-2.65,7.57,.28,3.4,3.31,2.18,.19,1.61-1.61,3.69,.28,1.8-.38,2.93,1.7,3.78,2.08,6.05,1.89,1.32-4.35,3.5-5.86,2.36-3.22-.09-1.99,1.8-3.69,.19-1.42,.76-6.34-1.7-2.08,.19,.09-.09-1.7-2.27-.28-6.43-2.74-3.22-.38,1.14-.95-1.61-5.2-1.14-3.03-1.8-3.4-1.04-2.08-1.04-.28-.19-2.55-6.24-.38-3.69-4.26-4.16,1.32-2.27-1.04-2.46,.19-2.55-.95-.85,.28-2.65,.57-.09,1.89-2.18,2.18-3.22,1.32-1.23v-1.99l-1.13-1.42-.28-2.36,1.51-.76,.28-3.59-2.08-3.4,1.89-.76,5.86,.09h0Z"/>
      <path id="UG" class="cls-1" d="M247.55,279.9l2.55,4.26,.66,3.03,2.46,7-1.99,4.45-2.65,3.97-1.51,2.46v.28l-.19-.38-2.84-1.23-2.27,1.51-3.4,.85-2.46,3.5,.28,2.36-5.86-.09-1.89,.76-3.22,1.89-1.32-.66,.09-4.54,1.23-2.36,.28-4.82,1.13-2.84,2.08-3.12,1.99-1.7,1.8-2.08-2.18-.85,.28-7.09,2.18-1.7,3.4,1.42,4.26-1.42h3.78l3.31-2.84h0Z"/>
      <path id="UA" class="cls-1" d="M226.93-3.75l2.18,2.55,.09,1.13,6.34,2.08,3.4-.95,3.4,2.74,2.74-.09,7.28,1.89,.38,1.8-1.23,3.03,1.7,3.31-.28,1.99-4.54,.38-2.08,1.7,.38,2.55-3.69,.47-2.84,1.99-4.35,.28-3.78,2.27,.95,3.69,2.65,1.42,4.82-.38-.57,2.18-5.11,1.04-5.96,3.4-2.93-1.23,.66-2.74-5.58-1.8,.66-1.13,4.35-1.99-1.61-1.32-7.66-1.51-.76-2.27-4.26,.76-1.23,3.31-3.12,4.35-2.27-1.04-2.18,1.04-2.27-1.13,1.13-.66,.57-1.99,1.04-1.99-.57-1.04,.95-.47,.57,.85,2.84,.19,1.23-.47-.95-.57,.19-.95-1.89-1.51-1.04-2.46-1.89-.95,.09-1.99-2.46-1.61-1.89-.28-3.78-1.8-3.03,.57-1.04,.85h-1.99l-.95,1.42-3.4,.57-1.51,.95-2.36-1.51h-3.03l-3.03-.66-1.89,1.32-.47-1.61-2.84-1.61,.66-2.36,1.13-1.61,1.04,.38-1.51-2.65,3.59-4.92,2.18-.66,.28-1.61-3.03-5.11,2.18-.28,2.27-1.51,3.59-.19,4.63,.47,5.39,1.42,3.69,.09,1.8,.85,1.61-1.04,1.42,1.42,4.07-.28,1.99,.57-.28-2.93,1.23-1.32,3.88-.28,1.7,.19,.95-1.32,1.42,.28,4.63-.57,3.59,3.31-.85,1.23,.76,1.8,3.69,.28h0Z"/>
      <path id="UZ" class="cls-1" d="M411.84,49.31l1.61,.57-2.84,3.88,4.35,2.27,3.03-1.51,6.81,3.22-5.01,4.35-3.88-.57-1.99,.09-1.23-1.61,.19-2.84-6.15,1.42-.47,3.88-1.42,3.31-4.16-.28-.57,2.65,3.97,1.42,2.27,4.54-1.23,6.15-4.07-1.32h-2.84l-.76-3.69-7.28-2.65-5.96-2.93-3.97-2.84-6.72-4.16-4.07-6.24-1.99-1.13-5.2,.28-2.18-1.23-1.8-4.73-7.47-3.22-3.22,3.5-3.59,2.08,1.61,3.03-5.58,.09-5.86-22.13,11.35-3.5,1.04,.47,8.7,4.26,4.54,2.27,6.24,5.39,5.39-.85,8.13-.47,7.19,4.35,1.42,6.05,2.46,.09,2.36,4.92,6.34,.19,2.18,2.84h1.89l.85-4.35,5.11-4.16,2.46-1.13h0Z"/>
      <path id="VN" class="cls-1" d="M632.97,174.92l-6.15,5.11-3.5,5.77-.57,4.26,5.01,6.34,6.15,7.94,5.39,3.78,3.88,4.82,3.78,11.26,.38,10.69-4.07,3.97-5.77,3.97-3.97,5.01-6.24,5.67-2.18-3.88,1.13-4.16-4.16-3.4,4.35-2.46,5.58-.47-2.65-3.59,8.51-4.73-.09-7.28-1.7-4.07,.19-6.05-1.89-4.26-4.63-4.26-4.16-5.3-5.39-7.19-6.9-3.69,1.13-2.18,3.12-1.61-2.84-5.3h-6.43l-3.31-5.49-3.78-4.82,2.55-1.51,4.16,.09,5.01-.76,3.88-3.22,2.93,2.27,5.01,1.14-.28,3.5,2.93,2.46,5.58,1.61h0Z"/>
      <path id="YE" class="cls-1" d="M346.67,204.62l-3.78,1.61-.85,2.74v2.08l-5.11,2.55-8.32,2.84-4.45,4.26-2.36,.38-1.61-.38-3.03,2.55-3.31,1.14-4.45,.28-1.32,.38-1.04,1.61-1.42,.47-.76,1.51-2.65-.19-1.61,.85-3.78-.28-1.51-3.59v-3.31l-.95-1.8-1.23-4.45-1.7-2.46,1.04-.38-.66-2.74,.57-1.14-.38-2.65,2.27-1.99-.76-2.55,1.23-2.93,2.27,1.51,1.42-.57,6.05-.09,1.04,.57,5.2,.66,1.99-.28,1.42,1.99,2.46-1.04,3.31-6.34,4.73-2.74,15.04-2.36,4.92,10.03,2.08,4.26h0Z"/>
      <path id="ZM" class="cls-1" d="M231.56,357.75l.28,.19,2.08,1.04,3.4,1.04,3.03,1.8,2.46,2.74,1.23,5.11-.95,1.61-1.23,4.92,.85,5.11-1.7,2.08-1.89,5.67,2.74,1.51-16.27,5.01,.38,4.35-4.07,.85-3.12,2.36-.76,2.08-1.89,.57-4.82,4.92-3.03,3.97-1.8,.09-1.7-.66-5.86-.66-.95-.47v-.47l-2.08-1.42-3.4-.28-4.35,1.32-3.4-3.78-3.4-4.92,.76-19.39,11.07,.09-.38-2.08,.85-2.27-.85-2.84,.66-2.93-.57-1.89,1.8,.09,.28,1.89,2.55-.09,3.31,.57,1.8,2.74,4.16,.85,3.31-1.89,1.13,3.12,4.07,.85,1.89,2.65,2.08,3.31h4.07l-.19-6.53-1.51,1.14-3.69-2.36-1.42-1.14,.85-6.05,1.04-7.19-1.13-2.65,1.61-3.88,1.42-.76,7.28-1.04,.85,.28-.28,1.32,1.8,.47,1.13,1.23,.95-.28-.47-1.04h0Z"/>
      <path id="ZW" class="cls-1" d="M229.01,440.88l-2.74-.66-1.8,.76-2.55-1.04h-2.08l-3.22-2.74-4.07-.95-1.42-3.88,.09-2.18-2.18-.66-5.77-6.62-1.51-3.5-1.04-1.14-1.8-4.82,5.86,.66,1.7,.66,1.8-.09,3.03-3.97,4.82-4.92,1.89-.57,.76-2.08,3.12-2.36,4.07-.85,.19,2.27,4.45-.09,2.46,1.23,1.04,1.51,2.55,.47,2.65,1.89-.38,7.76-1.23,4.16-.38,4.54,.76,1.8-.85,3.59-.76,.57-1.61,4.35-5.86,6.9h0Z"/>
      <path id="SO" class="cls-1" d="M288.31,315.94l-3.12-5.01-.19-22.13,4.63-6.81,1.42-1.99,3.4-.09,4.73-4.26,6.9-.28,14.75-18.25-4.54,.09-17.69-7.19-2.08-2.18-2.08-2.93-2.08-3.4,1.13-2.08,1.8-3.31,1.8,1.14,1.13,2.55,2.55,2.55h2.65l4.92-1.61,5.77-.66,4.63-1.89,2.65-.38,1.89-1.14,3.03-.19,1.7-.19,2.36-.85,2.84-.66,2.36-2.08h2.08l.19,1.7-.38,3.5,.19,3.22-1.04,2.18-1.32,6.62-2.27,6.72-3.12,7.76-4.35,8.89-4.45,6.81-6.24,8.32-5.3,4.92-7.94,6.05-5.01,4.54-5.86,7.38-1.23,3.22-1.23,1.42h0Z"/>
      <path id="XK" class="cls-1" d="M170.75,49.4l-1.13,.28-2.74,.95-.09,1.23-.66-.09-.57-2.18-1.23-.66-1.13-1.61,.76-1.32,1.13-.38,.47-1.99,.85-.38,.76,.85,.95,.38,.76,.95,.85,.28,1.04,1.13,.66-.09-.38,1.51-.57,.66,.28,.47h0Z"/>
      <path id="ZA" class="cls-1" d="M229.01,440.88l2.08,8.51,1.04,4.35-1.32,6.72,.38,2.18-2.55-1.04-1.61,.38-.57,1.8-1.61,2.27-.09,2.08,2.93,3.31,3.03-.66,1.32-2.65h3.88l-1.61,4.45-.95,5.01-1.61,2.74-3.78,3.12-1.04,.85-2.46,3.12-1.7,3.12-3.31,4.35-6.34,6.24-3.88,3.59-4.07,2.84-5.58,2.27-2.55,.38-.85,1.7-3.03-.95-2.55,1.14-5.39-1.14-3.12,.76-2.08-.38-5.49,2.46-4.35,.95-3.31,2.27-2.27,.19-1.99-2.18-1.7-.09-2.08-2.74-.28,.85-.57-1.61,.28-3.59-1.42-4.07,1.7-1.14,.09-4.63-3.12-5.67-2.27-5.11v-.09l-3.4-7.85,2.65-3.03,1.89,1.7,.76,2.55,2.36,.47,3.22,1.14,2.74-.47,4.73-3.12,1.04-22.42,1.32,.95,2.84,5.77-.57,3.69,1.04,2.18,3.78-.66,2.65-2.74,2.55-1.8,1.42-2.93,2.65-1.32,2.18,.66,2.36,1.7,4.26,.28,3.4-1.32,.57-1.89,1.13-2.93,2.84-.47,1.7-2.27,1.89-4.07,4.92-4.54,7.66-4.45h2.08l2.55,1.04,1.8-.76,2.74,.66h0Zm-19.2,50.32l1.04-1.89,2.93-.95,1.04-1.99,1.8-2.93-1.61-1.89-2.08-1.89-2.55,1.32-2.93,2.36-3.03,3.78,3.5,4.73,1.89-.66h0Z"/>
      <path id="PT" class="cls-1" d="M28.02,80.52l-2.08,1.51-2.65-.85-2.55,.66,.85-4.73-.28-3.69-2.27-.57-1.04-2.27,.47-3.97,2.08-2.18,.47-2.46,1.14-3.59v-2.55l-.85-2.18-.19-2.08,1.8-1.51,2.08-.85,1.14,2.93h2.84l.85-.76,2.93,.19,1.23,3.03-2.27,1.61-.28,4.73-.76,.85-.28,2.93-2.18,.47,1.89,3.59-1.51,3.97,1.7,1.8-.76,1.61-1.89,2.27,.38,2.08h0Z"/>
      <path class="cls-1" d="M730.39-1.1l12.96,10.4-8.42-1.89,3.5,8.51,9.08,6.05,2.84,4.16-6.15-3.59,.09,4.63-4.45-5.01-3.59-5.77-5.3-6.34-2.27-4.54-6.05-7.76-7.57-5.77-6.43-7.94,1.8-2.65-4.16-2.65,1.23-.85,4.63,3.78,6.53,5.58,4.92,5.77,6.81,5.86Z"/>
      <path class="cls-1" d="M704.1,49.59l-1.32-1.04-1.8-3.12,2.36-.09-3.69-7.09-4.45-5.11,2.74-2.08,6.53,1.04-.57-5.86-2.65-6.43,.28-2.18-1.23-5.39-6.53,1.8-2.46,2.27h-7.19l-5.67-5.49-8.51-4.26-9.46-1.89-5.86-5.67-4.26-3.59-3.59-2.55-7.28-5.86-5.67-2.08-8.13-1.8-5.86,.19-4.82,1.04-1.61,2.93,3.5,1.32,2.36,3.22-1.23,1.89,.19,6.15,1.8,2.65-4.16,3.69-7-2.27-5.3,.57-3.69-1.99-3.22-.66-4.16,4.16-5.58,.95-3.41,1.51-6.43-.95h-4.35l-4.63-3.03-6.24-2.74-5.11-.85-5.39,.76-3.78,1.13-8.04-2.46-3.4-4.35-6.34-1.51-4.54-.76-6.62-2.36-1.23,6.05,3.78,3.4-2.27,4.16-7.57-1.51-4.73-.19-4.54-2.74-4.92-.09-5.01-1.8-5.58,2.74-6.34,5.01-4.45,1.04-1.61,.47-4.16-3.59-5.67,.85-3.12-2.55-3.78-1.13-3.88-3.4-3.12-1.04-5.86,1.51-7.94-3.31-1.04,3.03-17.31-14.75-7.94-4.45,.76-1.89-8.7,5.49-4.16,.28-1.04-3.12-6.72-1.99-4.07,1.42-4.16-5.96-8.61-1.23-2.93,2.36-10.31,2.18-1.61,1.42-16.08,1.99-1.32,1.99,4.82,3.97-3.78,1.51,1.42,1.51-3.31,2.84,8.89,4.07-.19,2.74-6.62-.28-.76,1.8-6.9-3.03-7.28,.09-4.16,2.46-6.24-2.36-11.35-4.07-7.19,.19-7.66,6.34,.57,4.26-5.67-3.4-2.08,6.53,1.7,1.13-1.61,4.54,5.01,3.97,3.4-.19,4.07,3.97,.19,3.03,2.65,1.04-1.32,3.5-4.35,.95-3.4,6.15,5.67,5.77,.38,3.97,6.9,7.09-2.36,2.46-.57,1.51-2.27-.47-4.07-3.59-1.42-.19-3.4-1.42-1.99-2.46-4.82-1.23-2.74,.95-1.14-1.13-7.19-2.93-7.28-.95-4.35-1.04-.38,.76-7.19-5.11-5.86-2.27-4.82-3.5,3.4-.95,3.03-4.92-3.12-2.36,6.53-2.46-.38-1.32-4.07,.95-.38-2.55,2.08-1.7,4.54-.38,.28-1.99-1.7-3.31,1.23-3.03-.38-1.8-7.28-1.89-2.74,.09-3.4-2.74-3.4,.95L229.2-.06l-.09-1.13-2.18-2.55-3.69-.28-.76-1.8,.85-1.23-3.59-3.31-4.63,.57-1.42-.28-.95,1.32-1.7-.19-1.89-3.78-1.42-1.89,.76-.57,3.69,.19,1.51-1.23-1.61-1.51-3.22-1.04v-1.04l-1.99-1.04-3.59-3.78,.66-1.51-1.04-2.74-4.54-1.32-2.27,.66-.85-1.42-5.01-1.42-1.99-3.4-.95-2.74-2.36-1.23,1.51-1.8-2.27-5.3,2.46-3.22-.85-.95,4.26-3.12-5.11-2.65,7.57-7,3.22-3.22,.85-2.74-7-3.69,.85-3.59-4.63-3.97,1.61-4.54-6.15-5.96,2.74-3.97-6.9-3.5-.38-3.59,3.03-.47,6.05-1.99,3.5-1.8,7.28,3.03,11.07,1.23,16.74,5.86,3.88,2.46,1.42,3.5-3.5,2.74-6.15,1.42-19.11-3.97-2.74,.66,7.66,3.88,.95,2.46,1.8,5.49,5.77,1.61,3.59,1.42-.19-2.65-3.22-2.27,1.99-2.08,10.97,3.4,3.03-1.32-4.07-3.97,7.66-5.11,3.88,.28,4.35,1.8,1.04-3.59-4.45-3.12,.76-3.12-4.07-3.22,11.63,1.7,3.41,2.84-4.82,.66,1.14,2.93,3.88,1.8,5.67-1.14-.38-3.31,7.28-2.55,11.73-4.35,3.03,.19-2.36,3.12,5.11,.57,1.99-1.8,7.28-.09,4.73-2.18,6.05,3.12,2.65-3.4-5.67-2.93,1.13-1.7,12.3,1.51,6.24,1.61,17.59,5.86,1.04-2.65-5.58-2.74-.76-1.04-5.01-.57-.19-2.36-4.45-3.97-1.04-1.61,4.07-4.45-.57-4.54,2.08-.95,10.78,1.32,2.74,2.74-.85,3.97,3.5,1.61,3.59,3.5,3.59,7,6.34,3.12,.47,3.5-3.31,7.38,5.01,.76,.47-1.89,3.59-1.32-.47-2.55,1.8-2.55-4.16-2.93-.38-3.4-4.54-.38-2.74-2.84-.38-5.11-7.76-4.07,4.45-3.31-3.5-3.5,1.8-.09,3.97,2.65,1.99,4.82,4.73,.95-4.35-3.59,4.82-1.99,7.66-.28,9.08,2.84-6.53-4.07-4.63-5.2,5.58-.95,8.99,.19,7.38-.66-5.3-2.46,1.23-3.12,3.97-.19,4.63-2.27,8.8-.66-.19-1.32,8.8-.38,4.07,1.04,5.11-2.46,6.62,.09-1.42-2.08,.85-1.89,5.86-1.89,7.85,1.51-3.31,1.13,8.89,.66,3.88,2.27,1.8-1.13,10.31,.09,10.97,2.27,5.2,1.7,2.36,2.46-2.27,1.42-6.24,2.65-1.04,1.42,5.3,.66,6.81,1.23,2.27-.95,5.49,3.12,.19-1.23,4.92-.76,12.86,.76,3.59,2.27,16.46,.76-4.54-3.69,8.99,.85,5.77-.09,9.36,2.55,5.67,3.12,.38,2.08,9.55,3.97,8.51,1.99-2.84-5.2,8.89,2.18,4.73-1.32,9.27,1.51,.95-1.32,7.19,.66-8.89-4.63,1.99-2.08,38.21,3.22,7.47,2.93,15.42,3.78,14-.95,8.8,.85,6.24,2.08,4.82,3.69,6.9,1.42,3.69-1.04,6.62-.09,8.8,.95,6.53-.57,13.53,4.54,2.36-1.61-8.04-3.22-1.7-2.27,14.47,1.42,7.57-.28,14.94,2.36,8.99,2.27,31.4,20.9-1.89,2.36-5.86-.38,7.76,2.84,8.61,4.45,3.97,1.42,3.59,2.27,.95,1.42-9.46-1.13-6.24,4.07-2.84,.66-1.51,3.88-1.89,3.4,1.61,2.55-10.88-3.88-5.77,4.35-4.45-2.08-1.32,2.46-6.62-.85,2.93,3.69,1.04,5.49,2.74,2.27,6.43,1.23,8.61,8.23-3.88,.28,3.22,4.73,4.45,2.46-4.73,2.93,5.11,6.62-5.39,1.42,4.26,5.86-1.61,5.49-5.39-4.07-9.93-8.42-15.32-12.86-6.15-7.85,.09-3.4-2.65-2.65,5.39-1.23-.19-7.09,.66-5.67,2.36-4.45-6.24-7.76-4.45,.47,3.03,4.54-3.41,6.05-11.63-6.81-8.61,1.89v9.27l7.28,3.4-8.04,1.51-6.05,.57-4.07-4.07-7.57-.85-2.36,2.74-14.28-.95-12.48,1.61-3.31,11.07-4.73,13.43,7.76,.76,5.39,3.59,5.49,1.23,.38-2.84,5.3,.38,12.11,6.34,4.45,4.92,1.32,5.86,5.2,7,5.01,9.36-.95,8.61,1.23,4.07-1.89,7-1.99,6.9-.85,3.5-4.35,3.5-2.93,.09-4.92-2.93-3.88,4.45,.47,1.99Z"/>
      <path id="ES" class="cls-1" d="M56.11,42.41l1.89,2.27,8.99,2.74,1.8-1.32,5.49,2.74,5.58-.76,.38,3.5-4.63,3.97-6.24,1.32-.47,1.99-3.03,3.31-1.89,4.92,1.89,3.5-2.84,2.65-1.14,3.97-3.78,1.23-3.5,4.63-6.43,.09-4.73-.09-3.22,2.08-1.99,2.27-2.46-.47-1.8-2.08-1.32-3.4-4.63-.95-.38-2.08,1.89-2.27,.76-1.61-1.7-1.8,1.51-3.97-1.89-3.59,2.18-.47,.28-2.93,.76-.85,.28-4.73,2.27-1.61-1.23-3.03-2.93-.19-.85,.76h-2.84l-1.14-2.93-2.08,.85-1.8,1.51,.47-4.26-1.89-2.55,7-4.35,5.86,1.04h6.53l5.11,1.04,4.07-.38,7.85,.28h0Z"/>
      <path class="cls-1" d="M112.01,49.97l-1.42,4.63-2.27-1.23-1.23-3.97,.85-2.27,3.03-2.27,1.04,5.11Z"/>
      <path class="cls-1" d="M91.86,6.09l1.04,.47,1.32-.09,2.27,1.51,6.81,1.13-2.27,3.97-.38,4.26-1.23,1.04-2.18-.57,.19,1.51-3.4,3.31v2.74l2.27-.95,1.7,2.55-.09,1.7,1.42,2.27-1.61,1.8,1.42,4.63,2.65,.76-.47,2.55-4.26,3.4-9.65-1.61-7,1.99-.57,3.59-5.58,.76-5.49-2.74-1.8,1.32-8.99-2.74-1.89-2.27,2.55-3.59,.95-11.92-4.82-6.24-3.5-3.03-7.19-2.27-.38-4.35,6.15-1.23,7.85,1.51-1.42-6.72,4.45,2.55,10.78-4.54,1.42-4.82,3.97-1.23,.76,2.08,2.08,.09,2.27,2.36,3.31,2.74,2.36-.47,4.16,2.74Z"/>
      <path id="BH" class="cls-1" d="M328.04,146.35l.28,.09,.19-.09,.38,.66-.09,.19,.09,.85v.66l-.19,.38-.09-.38-.57-.76,.09-.38-.19-.66v-.38l.09-.19h0Z"/>
      <path class="cls-1" d="M298.81,380.92l-.85-.09-.19-.38v-.28l.47,.09,.66,.47-.09,.19Z"/>
      <path class="cls-1" d="M302.31,379.12l.19,.95v.66l-.09,.19-.19-.28-.38-.28-.09-.19-.28-.09-.57-.38,.09-.09,.47,.19,.28-.09,.19-.38v-.19l.28-.09,.09,.09Z"/>
      <path class="cls-1" d="M296.92,378.18l-.47-.38-.28-.09-.28-.19-.19-.57,.09-.28v-.19l.19-1.13-.09-.09,.19-.38,.47-.09,.19,.28-.19,1.14,.09,.28,.19,.38,.09,.47,.19,.57-.19,.28Z"/>
      <path class="cls-1" d="M237.33,92.82l.09,.19,.28,.38-.38-.09h-.28l-.38,.19-.28-.28v-.28l.28-.09,.19,.09,.47-.09Z"/>
      <path class="cls-1" d="M235.72,93.29v.09l-.19,.19-.09,.57-.09,.19h-.28l-.19,.19-.47,.19-.19,.09-.57,.28-.38-.09-.47,.09-.28,.38-.19-.28-.28,.09h-.19l-.28-.28-.38,.28h-.47l-.47-.19-.47-.09-.38-.28-.28-.57-.28-.28-.19-.66-.19-.28,.09-.28,.47,.28,.38-.09,.19-.28,.09-.28,.28-.09,.19,.09,.19-.19h.19l.09,.38,.47,.19,.09,.19h.57l.57-.47,.38,.09,.28-.19,.28,.09,.38,.19,.19-.28h.28l.28,.38v.57l.28-.19,.28,.19,.09-.09,.66,.19Z"/>
      <path id="MV" class="cls-1" d="M459.32,280.19v.19l-.19-.09,.19-.19v.09Z"/>
      <path class="cls-1" d="M138.68,88.09l-.19,.28-.47-.19-.47-.28v-.47l-.09-.09h.57l.38,.28,.19,.19,.09,.28Z"/>
      <path class="cls-1" d="M137.17,87.05l-.47-.09v-.19l.38-.09,.38,.28-.28,.09Z"/>
      <path class="cls-1" d="M369.28,427.74l.38,.85-.19,.57-.38,.38,.09,.28-.28,.28-.47,.19h-.47l-.57-.09-.09,.09-.28-.28,.19-.19,.09-.38,.09-.66,.19-.38,.47-.38,.09-.19,.19-.47,.38-.28,.38,.09,.19,.57Z"/>
      <path class="cls-1" d="M399.35,425.75l-.28-.28,.38-.19,.28-.09,.19,.09-.09,.19-.47,.28Z"/>
      <path id="PW" class="cls-1" d="M785.44,259.66l-.19,.38,.09,.09-.19,.57,.09,.19-.47,.19-.19-.66,.28-.19-.19-.19,.28-.57,.28-.09,.19,.28h0Z"/>
      <path class="cls-1" d="M100.85,305.25h-.19l-.19,.28h-.19l-.09-.38-.19-.76v-.28l.38-.47,.28-.09,.28-.28,.38,.09,.19,.38,.09,.28-.09,.38-.19,.28-.28,.38-.19,.19Z"/>
      <path class="cls-1" d="M105.2,295.98l-.09,.28-.19,.09-.28-.09v-.28l.19-.09v-.28l.19-.19,.28,.09-.09,.47Z"/>
      <path class="cls-1" d="M313.76,362.76l-.28,.19h-.47l-.38,.19h-.38v-.19h.47l.38-.09,.38-.28h.19l.09,.19Z"/>
      <path class="cls-1" d="M313.28,362.47l-.19,.09h-.38v-.19l.57,.09Z"/>
      <path class="cls-1" d="M362.37,333.82l.38,.38-.19,.28-.19-.28-.28-.19,.19-.47,.09,.28Z"/>
      <path id="YT" class="cls-1" d="M305.43,382.62l.19,.28,.47,.19v.28l-.19,.19,.09,.19-.28,.57,.09,.19-.28,.09-.19-.28v-.28l.19-.19-.19-.66-.09-.09-.09-.19,.28-.28Z"/>
      <path id="RE" class="cls-1" d="M357.26,432.47h.38l.38,.19,.28,.28v.28l.09,.47,.28,.19,.19,.19,.09,.19-.19,.57-.09,.38-.19,.19-.38,.09h-.85l-.19-.19-.76-.38-.28-.47v-.28l-.28-.57,.09-.38,.19-.19,.19-.38h.09l.47-.19h.47Z"/>
      <rect id="_0" data-name="0" class="cls-1" x="76.26" y="9.96"/>
    </g>
  </g>
</svg>