<?xml version="1.0" encoding="UTF-8"?>
<svg id="Layer_2" data-name="Layer 2" xmlns="http://www.w3.org/2000/svg" xmlns:xlink="http://www.w3.org/1999/xlink" viewBox="0 0 800 400">
  <defs>
    <style>
      .cls-1 {
        fill: #ececec;
        stroke: #000;
        stroke-linecap: round;
        stroke-linejoin: round;
        stroke-width: .2px;
      }

      .cls-2 {
        clip-path: url(#clippath);
      }

      .cls-3 {
        fill: none;
      }
    </style>
    <clipPath id="clippath">
      <rect class="cls-3" width="800" height="400"/>
    </clipPath>
  </defs>
  <g class="cls-2">
    <g>
      <path id="AF" class="cls-1" d="M357.55,57.69l1.12,1.34-2.16,.6-1.79,.82-4.4,.6-3.95,.97-1.79,2.09,1.42,2.01,1.04,2.39-1.49,2.01,.6,1.86-.67,1.71-3.88-.15,2.31,3.13-2.31,1.27-1.04,2.83,.82,2.91-1.34,1.34-1.57-.45-2.98,.67-.15,1.27h-3.06l-1.71,2.76,.6,4.03-4.92,2.01-2.91-.45-.67,1.04-2.53-.6-3.95,.75-7.16-2.46,2.91-4.32-.82-3.06-3.21-.82-.89-3.06-2.01-3.8,1.19-2.61-1.86-.75,.37-3.5,.45-5.96,4.4,1.86,2.91-.67,.3-2.16,2.98-.67,1.94-1.49-.15-3.8,3.13-.97,.22-1.64,2.16,1.27,1.19,.15h2.24l3.21,1.04,1.34,.52,2.53-1.49,1.57,.89,.67-2.16,2.39,.07,.45-.67-.15-1.94,1.27-1.64,2.46,1.04-.07,1.49,1.27,.22,.67,4.03,2.01,1.57,1.12-1.04,1.64-.45,1.86-2.16,2.83,.37h4.03Z"/>
      <path class="cls-1" d="M162.37,289.11l.45,1.49-.52,2.31,.67,2.24-.67,1.79,.3,1.64-8.72-.07-.6,15.28,2.68,3.88,2.68,2.98-7.75,1.94-10.06-.67-2.83-2.24-16.92,.15-.6,.37-2.46-2.16-2.68-.15-2.53,.82-2.01,.89-.37-2.98,.67-4.25,1.49-4.4,.22-2.01,1.42-4.32,1.04-1.94,2.46-3.13,1.42-2.16,.45-3.5-.22-2.76-1.19-1.71-1.12-2.91-.97-2.83,.22-1.04,1.27-1.86-1.19-4.62-.89-3.21-2.09-3.06,.45-.89,1.71-.67,1.27,.07,1.49-.52,12.45,.07,.97,3.5,1.19,2.91,.97,1.57,1.57,2.46,2.83-.37,1.34-.67,2.31,.67,.67-1.19,1.12-2.76,2.61-.22,.22-.82h2.16l-.37,1.71,5.07-.07,.07,3.06,.82,1.79-.67,2.91,.3,2.98,1.34,1.79-.3,5.67,1.04-.45,1.79,.15,2.61-.75,1.94,.3Z"/>
      <path class="cls-1" d="M113.24,264.5l-1.12-3.58,1.71-2.09,1.27-.82,1.57,1.64-1.49,1.04-.75,1.19-.15,2.09-1.04,.52Z"/>
      <path id="AL" class="cls-1" d="M137.62,32.64l.3,.89,1.04-.45,.89,1.27,.97,.52,.45,1.71-.37,1.64,.75,2.01,1.71,1.12,.07,1.27-1.27,.67-.07,1.57-1.64,2.31-.67-.3-.15-1.04-2.31-1.64-.52-2.24,.07-3.28,.37-1.42-.67-.75-.37-1.57,1.42-2.31h0Z"/>
      <path id="AE" class="cls-1" d="M292.84,113.68l.97,3.8h-2.09v3.13l.82,.67-1.79,.97,.15,1.94-.97,1.94v1.94l-.75,1.04-12.6-2.39-2.01-4.92-.22-1.04,.67-.3,.3,1.34,3.13-.75,3.43,.15,2.53,.15,2.46-3.28,2.76-3.06,2.24-2.98,.97,1.64h0Z"/>
      <path id="AM" class="cls-1" d="M244.08,51.28l-1.34,.15-2.09-2.76-.15-.75h-1.71l-1.42-1.27-.75,.07-1.79-1.34-3.13-1.19-.07-2.31-.97-1.64,5.22-.75,1.04,1.19,1.64,.82-.52,1.19,2.39,1.64-.82,1.57,1.94,1.27,1.86,.75,.67,3.35h0Z"/>
      <path class="cls-1" d="M663.59,302.67l.89,3.73,2.98-1.79,1.04,2.01,1.71,1.86-.82,2.16,.15,4.1,.15,2.39,.97,.6,.3,4.1-.89,2.46,.6,3.21,4.03,2.53,2.39,2.24,2.39,2.09-.82,1.19,1.71,2.98,.37,5.22,1.94-1.04,1.12,2.01,1.19-.67-.52,5.07,2.16,2.91,1.42,1.79,2.09,3.88v3.88l-.75,2.76-1.34,2.91,.52,4.1-1.86,4.25-1.57,2.24-2.83,4.25-1.12,2.76-2.31,3.43-3.73,4.32-4.1,2.39-3.28,3.65-2.46,2.39-3.28,4.1-2.76,2.39-2.91,3.58-2.31,3.28-.6,1.57-3.21,1.64-4.55,.15-4.7,2.01-2.83,1.79-3.58,2.09-2.01-2.16-1.94-.82,1.94-2.46-2.61,.89-5.37,3.43-2.68-1.27-1.79-.75-2.09-.37-3.06-1.34-.97-2.98,1.12-3.58,.3-2.46-1.04-1.94-3.5-.52,2.39-2.39,.67-3.5-3.5,3.28-3.95,.89,3.35-2.61,1.86-2.76,2.61-2.39,1.19-3.5-5.07,4.03-3.21,1.64-3.21,3.8-2.24-1.94,1.27-2.53-1.04-3.5-1.34-1.79,1.19-1.12-3.95-2.91-2.83-.07-2.98-2.39-7.38,.45-5.89,1.71-5.14,1.64-3.73-.3-5.22,2.46-3.95,1.04-1.71,2.53-2.24,1.94-3.5,.15-2.68,.37-3.13-.82-3.13,.52-2.83,.22-3.35,2.53-1.12-.22-2.53,1.34-2.53,1.49-2.83-.15h-2.61l-3.06-3.06-1.79-.89,1.12-2.76,2.16-.67,1.12-1.04,.45-1.71,1.71-3.35,.52-2.83-.52-4.85,.15-2.76,1.04-2.68-.67-3.13,.22-1.42-1.27-1.94,.52-3.73-1.42-3.8-.07-2.01,1.34,2.09-.37-4.47,1.71,1.42,.82,1.86,.45-2.46-1.19-3.8-.07-1.49-.6-1.42,.97-2.76,1.12-1.19,.97-2.39,.07-2.83,2.31-3.43-.3,3.65,2.31-3.28,3.65-1.64,2.39-2.01,3.5-1.79,1.94-.37,1.04,.6,3.58-1.79,2.61-.52,.82-1.04,1.12-.45,2.31,.15,4.62-1.42,2.61-2.16,1.49-2.53,2.91-2.39,.52-1.94,.52-2.61,3.65-4.1,1.04,4.17,1.94-.97-1.12-2.24,1.71-2.31,1.64,1.04,1.12-3.65,2.61-2.39,1.34-1.86,2.16-.82,.3-1.34,1.71,.52,.3-1.19,1.94-.67,2.09-.67,2.76,2.24,1.94,2.83h2.61l2.61,.45-.52-2.61,2.61-3.8,2.01-1.27-.45-1.19,2.16-2.76,2.76-1.71,2.01,.6,3.65-.89,.22-2.46-2.91-1.57,2.31-.67,2.68,1.19,2.01,1.94,3.35,1.19,1.27-.45,2.46,1.49,2.61-1.42,1.49,.45,1.12-.97,1.64,2.39-1.49,2.61-1.86,1.94-1.42,.15,.22,1.86-1.64,2.39-1.86,2.39,.15,1.34,2.83,2.68,2.98,1.49,1.86,1.64,2.46,2.83h1.19l1.94,1.27,.37,1.49,3.65,1.57,3.06-1.64,1.34-2.53,1.27-2.16,.97-2.61,1.94-3.8-.15-2.31,.52-1.42-.07-2.68,1.04-3.65,.97-.97-.45-1.57,1.34-2.53,1.12-2.61,.3-1.42,1.71-1.79,.97,2.39-.07,2.98,.97,.6-.07,2.01,1.19,2.39-.07,2.76-.45,1.71Z"/>
      <path id="AT" class="cls-1" d="M124.65,4.91l-.22,.6,.52,1.57-.15,1.94h-2.09l.82,1.04-.97,2.98-.67,.82-3.28,.07-1.79,1.12-3.13-.37-5.44-1.27-.97-1.57-3.65,.82-.37,.89-2.31-.67-1.94-.15-1.71-.89,.52-1.12-.15-.82,1.04-.22,2.01,1.27,.45-1.27,3.28,.22,2.61-.82,1.79,.15,1.27,.97,.3-.82-.75-3.06,1.27-.6,1.19-2.16,2.83,1.57,1.94-1.94,1.27-.37,2.98,1.42,1.71-.22,1.79,.89h0Z"/>
      <path class="cls-1" d="M242.74,51.43l-2.83-.67-2.39-2.16-.89-1.86,.75-.07,1.42,1.27h1.71l.15,.75,2.09,2.76Z"/>
      <path class="cls-1" d="M247.44,38.76l1.86-1.94,2.61,2.46,2.68,3.43,1.86,.22,1.42,1.27-3.13,.37,.07,3.73-.3,1.64-1.27,1.12,.6,2.31-.97,.3-2.91-2.53,.89-2.31-1.42-1.42-1.42,.37-3.95,3.5-.67-3.35-1.86-.75-1.94-1.27,.82-1.57-2.39-1.64,.52-1.19-1.64-.82-1.04-1.19,.82-.82,3.13,1.42,2.16,.22,.45-.52-2.46-2.61,.89-.6,1.12,.15,3.21,2.83,1.79,.37,.45-1.19Z"/>
      <path id="BI" class="cls-1" d="M187.5,258.09l-.45,.07v-.22l-1.49-4.55v-.04s-.07-.78-.07-.78l-1.04-2.16,2.61,.37,1.27-2.76,2.31,.3,.22,1.86,.89,1.12v1.57l-1.04,.97-1.71,2.53-1.49,1.71h0Z"/>
      <path id="BE" class="cls-1" d="M84.31-5.3l-.3,3.13-.97,.15-.3,2.61-3.28-2.16-1.86,.37-2.61-2.16-1.79-1.86-1.64-.07-.6-1.64,2.91-.89,2.68,.37,3.35-.97,2.31,2.01,2.09,1.12h0Z"/>
      <path id="BJ" class="cls-1" d="M77.01,181l-.15,1.57,.97,2.83-.82,1.94,.45,1.27-2.09,2.98-1.27,1.49-.82,2.98,.15,3.06-.22,7.68-3.5,.6-1.04-3.28,.22-11.03-.89-.97-.15-2.39-1.49-1.64-1.27-1.42,.52-2.53,1.49-.52,.82-2.09,2.09-.45,.89-1.42,1.42-1.42h1.49l3.21,2.76h0Z"/>
      <path id="BF" class="cls-1" d="M63.44,165.35l-.37,2.31,.6,2.16,2.31,3.13,.15,2.31,4.85,1.12-.07,3.28-.89,1.42-2.09,.45-.82,2.09-1.49,.52-3.65-.07-1.94-.37-1.34,.75-1.86-.37-7.31,.22-.15,2.76,.6,3.58-2.91-1.19-1.94,.15-1.49,1.19-1.86-.97-.75-1.64-1.86-1.04-.3-2.76,1.19-2.01-.15-1.64,3.35-3.95,.67-3.28,1.12-1.19,2.01,.67,1.79-.97,.6-1.27,3.21-2.09,.82-1.49,3.95-2.01,2.31-.67,1.04,.89h2.68Z"/>
      <path id="BD" class="cls-1" d="M445.22,131.28l.45,3.43-1.57-.75,.82,3.88-1.57-2.46-.6-2.46-1.12-2.31-2.09-2.76-3.88-.22,.67,2.01-.89,2.61-1.94-.97-.45,.89-1.27-.52-1.64-.45-1.19-3.95-1.94-3.58,.22-2.91-2.76-1.27,.67-1.71,2.24-1.79-3.43-2.53,.89-3.28,3.65,2.09,2.01,.22,.89,3.35,4.03,.67,3.8-.07,2.53,.82-1.19,4.03-1.79,.3-.89,2.68,2.68,2.53,.22-3.13h1.12l3.28,7.6h0Z"/>
      <path id="BG" class="cls-1" d="M170.87,27.87l-1.71,1.94-.97,3.35,1.57,2.68-3.43-.6-3.73,1.49,.22,2.39-3.43,.45-2.91-1.71-2.98,1.34-2.83-.15-.6-3.13-2.09-1.57,.52-.6-.45-.6,.45-1.49,1.34-1.49-2.09-2.01-.52-1.79,.82-1.04,1.34,1.94,1.42-.3,2.98,.67,5.67,.3,1.71-1.19,4.4-1.12,2.98,1.71,2.31,.52h0Z"/>
      <path id="BA" class="cls-1" d="M133.89,22.43l1.42-.07-.82,2.09,2.01,1.86-.37,2.16-.82,.22-.67,.45-1.19,1.12-.3,2.61-3.58-1.79-1.57-2.01-1.57-1.04-1.86-1.79-.97-1.42-2.01-2.24,.6-1.94,1.49,1.12,.75-1.04,1.71-.07,3.35,.82,2.61-.07,1.79,1.04h0Z"/>
      <path id="BN" class="cls-1" d="M544.01,215.15l1.64-1.79,3.43-2.68-.07,2.39-.07,3.06-2.01-.15-.82,1.64-2.09-2.46h0Z"/>
      <path id="BT" class="cls-1" d="M436.43,103.84l1.94,1.57,.37,2.91-3.35,.15-3.5-.3-2.39,.75-4.1-1.86-.3-.89,1.94-3.58,1.94-1.19,3.21,1.04,2.16,.15,2.09,1.27h0Z"/>
      <path id="BW" class="cls-1" d="M167.14,321.68l1.42,3.8,.82,.89,1.19,2.76,4.55,5.22,1.71,.52-.07,1.71,1.12,3.06,3.21,.75,2.53,2.16-6.04,3.5-3.88,3.58-1.49,3.21-1.34,1.79-2.24,.37-.89,2.31-.45,1.49-2.68,1.04-3.35-.22-1.86-1.34-1.71-.52-2.09,1.04-1.12,2.31-2.01,1.42-2.09,2.16-2.98,.52-.82-1.71,.45-2.91-2.24-4.55-1.04-.75,.45-13.94,4.1-.15,.6-17.07,3.13-.15,6.49-1.71,1.49,2.01,2.76-1.86h1.27l2.39-1.12,.75,.37h0Z"/>
      <path id="CF" class="cls-1" d="M162.45,195.54l2.91,1.86,2.31,1.94,.07,1.57,2.91,2.46,1.79,2.09,1.04,2.83,3.21,1.94,.67,1.49-1.34,.52-2.76-.07-3.13-.52-1.57,.37-.67,1.19-1.34,.15-1.64-1.04-4.7,2.39-1.94-.45-.6,.37-1.19,2.91-3.21-.97-3.06-.45-2.68-1.79-3.5-1.64-2.24,1.57-1.64,2.39-.37,3.35-2.68-.22-2.91-.82-2.46,2.53-2.24,4.47-.45-1.42-.22-2.16-1.94-1.57-1.57-2.46-.37-1.71-2.01-2.53,.37-1.42-.45-2.01,.3-3.73,1.04-.82,2.09-4.85,3.43-.37,.75-1.27,.75,.15,1.04,1.04,5.29-1.79,1.79-1.86,2.16-1.71-.45-1.64,1.19-.45,4.1,.3,3.88-2.24,2.98-5.22,2.09-1.94,2.68-.82,.52,2.01,2.46,2.98v2.01l-.6,1.94,.3,1.49,1.42,1.42,.37,.22h0Z"/>
      <path id="CH" class="cls-1" d="M97.66,9.9l.15,.82-.52,1.12,1.71,.89,1.94,.15-.22,1.86-1.57,.82-2.83-.6-.75,1.86-1.79,.15-.67-.75-2.01,1.64-1.86,.22-1.64-1.04-1.34-2.01-1.79,.75v-2.16l2.68-2.61-.15-1.19,1.71,.45,.97-.82h3.13l.75-.97,4.1,1.42h0Z"/>
      <path class="cls-1" d="M520.97,147.38l-3.21,2.31-3.65-1.49-.75-4.1,1.64-2.16,4.32-1.34,2.46,.07,1.19,1.86-1.49,2.09-.52,2.76Z"/>
      <path class="cls-1" d="M538.42,.96l6.71,3.35,4.47,4.32h5.67l1.94-1.79,5.14-1.42,.97,4.25-.22,1.71,2.09,5.07,.45,4.62-5.14-.82-2.16,1.64,3.5,4.03,2.91,5.59-1.86,.07,1.42,2.46-4.1-2.83v2.68l-4.77,2.01,2.09,2.53-3.43-.22-2.68-1.49-.82,3.43-2.91,2.53-1.57,3.06-4.7,1.34-1.79,2.24-3.58,1.34,.97-2.24-1.71-1.86,1.49-3.21-3.35-2.46-2.53,1.64-2.68,3.35-.97,3.06-3.73,.22-.97,2.24,3.58,3.21,3.58,.82,1.04,2.09,3.8,1.42,2.83-3.43,4.4,1.86,2.61,.15,1.71,2.46-5,1.34-.75,2.61-2.83,2.39-.67,3.35,5.29,2.61,3.43,4.7,4.1,4.4,4.1,3.65,1.19,3.58-2.09,1.34,1.79,2.53,2.91,1.49,.6,3.88,.07,3.8-2.09,.45-1.57,5.14-1.71,6.34-2.53,5.67-4.77,4.4-4.92,4.1-4.55,.52-2.16,2.09-1.71-1.49-1.86,2.31-5.37,2.46-4.32,.67-.52,5.07-2.31,.3-1.64-3.5,.67-1.79-5.82-1.57-1.79,.82-4.4-1.27-2.31-1.94,.22-2.76-3.95-.89-2.31-1.79-3.06,2.53-3.95,.6-3.28-.07-2.01,1.19-2.01,.67,1.49,5.52-2.24-.15-.6-1.12-.37-2.01-2.83,1.42-1.94-.89-3.35-1.79,.6-3.95-2.76-.97-1.79-4.4-4.17,.82-.52-5.67,3.13-4.03-.67-3.95-.97-3.65-2.01-1.12-2.01-2.83-2.31,.37-4.55-.75,.89-2.01-2.68-2.98-2.39,2.01-3.65-1.12-4.03,2.98-2.91,3.58-3.13,.6-2.09-1.27-2.16-.15-3.21-1.04-1.94,1.19-1.94,3.58-1.12-3.8-2.31,1.04-4.85-.52-4.85-1.04-3.73-2.16-3.35-.89-1.86-2.31-2.46-.67-4.77-3.13-3.58-1.49-1.42,1.12-6.41-3.35-4.62-2.98-2.39-5.29,3.06,.67-.45-2.46-2.24-2.46-.6-3.88-5.74-5.67-7.08-1.86-2.16-3.73-3.5-2.24-1.12-1.34-1.34-2.68-.37-1.86-2.76-1.12-1.12,.52-2.31-4.47,.82-1.04-.89-1.12,3.06-2.24,2.39-.97,4.32,.67,.45-3.06,4.77-.52,.75-1.94,5.14-2.53,.15-1.04-1.27-2.76,2.16-1.19-6.56-8.2,6.78-1.86,1.49-1.04-.75-8.42,8.05,1.57,1.19-2.16-1.86-4.62,2.83-.45,1.42-3.13,1.27-.37,2.46,3.28,4.25,2.46,6.11,1.71,4.32,3.8,1.04,5.44,2.24,2.09,4.85,.82,5.37,.6,5.96,2.98,2.53,.52,3.73,4.32,3.5,2.83,4.17-.15,8.42,1.12,4.77-.67,4.17,.67,7.01,2.91h4.62l2.46,1.42,3.28-2.53,5.37-1.64,5.67-.15,3.65-1.64,1.49-2.53,1.79-1.64-1.42-1.57-2.16-1.79,.37-3.06,2.39,.45,4.4,.97,2.39-2.53,4.77-1.79,.97-3.13,1.86-1.34,5.07-.6,3.28,.52-.6-1.64-5.37-3.28-3.88-1.49-1.86,1.71-4.1-.75-1.71,.6-2.09-1.86-.22-4.7-.45-3.5,5.52,1.79,3.28-2.91-1.42-2.09-.15-4.85,.97-1.49-1.86-2.53-2.76-1.04,1.27-2.31,3.8-.82,4.62-.15,6.41,1.42,4.47,1.64,5.74,4.62,2.83,2.01,3.35,2.83,4.62,4.47,7.46,1.49Z"/>
      <path id="CI" class="cls-1" d="M39.14,187.12l1.86,1.04,.75,1.64,1.86,.97,1.49-1.19,1.94-.15,2.91,1.19,1.12,6.86-1.79,3.95-1.12,5.44,1.79,4.1-.15,1.94h-1.94l-2.91-.89h-2.76l-5,.89-2.91,1.34-4.17,1.79-.82-.15,.3-3.95,.45-.6-.15-1.86-1.79-2.01-1.34-.3-1.19-1.34,.89-2.16-.37-2.31,.15-1.34h.67l.3-2.09-.3-.97,.37-.67,1.57-.52-1.04-3.88-.97-1.94,.37-1.64,.82-.37,.6-.45,1.12,.75h3.28l.75-1.34,.75,.07,1.19-.52,.67,2.01,.97-.6,1.79-.75Z"/>
      <path id="CM" class="cls-1" d="M126.29,201.28l-2.09,4.85-1.04,.82-.3,3.73,.45,2.01-.37,1.42,2.01,2.53,.37,1.71,1.57,2.46,1.94,1.57,.22,2.16,.45,1.42-.3,2.53-3.35-1.12-3.43-1.27-5.29-.15-.52-.3-2.53,.6-2.53-.6-2.01,.3-6.93-.07,.67-3.8-1.71-3.21-1.94-.75-.82-2.16-1.12-.67,.07-1.34,1.04-3.43,2.01-4.62h1.19l2.53-2.83,1.57-.07,2.39,2.01,2.91-1.64,.37-2.01,.97-1.94,.6-2.39,2.24-1.94,.82-3.35,.89-1.12,.6-2.46,1.04-3.06,3.5-3.73,.22-1.57,.45-.89-1.71-1.86,.15-1.57,1.12-.22,1.71,3.06,.37,3.13-.15,3.21,2.39,4.32h-2.39l-1.19,.3-1.94-.45-.89,2.24,2.53,2.83,1.86,.82,.6,1.94,1.34,3.28-.6,1.34h0Z"/>
      <path id="CD" class="cls-1" d="M177.36,211.72l2.61,3.95,1.94,.6,1.12-.82,1.94,.3,2.31-.97,1.04,2.01,3.8,3.21-.22,5.59,1.71,.67-1.42,1.64-1.57,1.34-1.64,2.46-.89,2.24-.22,3.8-.97,1.86-.07,3.58-1.19,1.34-.15,2.83-.6,.37-.45,2.68,1.04,2.16,.07,.75-.89,7.68,1.12,2.68-.75,2.01,1.34,3.43,2.53,2.61,.52,2.61,1.19,1.27-.22,.82-.67-.22-5.74,.82-1.12,.6-1.27,3.06,.89,2.09-.82,5.67-.67,4.77,1.12,.89,2.91,1.86,1.19-.89,.15,5.14h-3.21l-1.64-2.61-1.49-2.09-3.21-.67-.89-2.46-2.61,1.49-3.28-.67-1.42-2.16-2.61-.45-2.01,.07-.22-1.49-1.42-.07-1.94-.3-2.61,.75-1.79-.15-1.04,.45,.3-5.67-1.34-1.79-.3-2.98,.67-2.91-.82-1.79-.07-3.06-5.07,.07,.37-1.71h-2.16l-.22,.82-2.61,.22-1.12,2.76-.67,1.19-2.31-.67-1.34,.67-2.83,.37-1.57-2.46-.97-1.57-1.19-2.91-.97-3.5-12.45-.07-1.49,.52-1.27-.07-1.71,.67-.6-1.49,1.04-.52,.15-2.09,.75-1.19,1.49-1.04,1.12,.52,1.49-1.86,2.31,.07,.22,1.34,1.57,.82,2.53-2.98,2.46-2.31,1.04-1.57-.07-3.95,1.86-4.62,1.94-2.46,2.76-2.31,.52-1.49,.07-1.79,.67-1.64-.22-2.76,.52-4.25,.82-2.98,1.27-2.53,.22-2.91,.37-3.35,1.64-2.39,2.24-1.57,3.5,1.64,2.68,1.79,3.06,.45,3.21,.97,1.19-2.91,.6-.37,1.94,.45,4.7-2.39,1.64,1.04,1.34-.15,.67-1.19,1.57-.37,3.13,.52,2.76,.07,1.34-.52h0Z"/>
      <path id="CG" class="cls-1" d="M139.78,219.99l-.22,2.91-1.27,2.53-.82,2.98-.52,4.25,.22,2.76-.67,1.64-.07,1.79-.52,1.49-2.76,2.31-1.94,2.46-1.86,4.62,.07,3.95-1.04,1.57-2.46,2.31-2.53,2.98-1.57-.82-.22-1.34-2.31-.07-1.49,1.86-1.12-.52-1.57-1.64-1.27,.82-1.71,2.09-3.43-5.07,3.21-2.68-1.57-3.13,1.49-1.19,2.83-.6,.3-2.16,2.31,2.31,3.73,.22,1.27-2.24,.52-3.21-.45-3.73-2.01-2.83,1.86-5.59-1.04-.89-3.13,.37-1.19-2.46,.3-2.09,5.29,.15,3.43,1.27,3.35,1.12,.3-2.53,2.24-4.47,2.46-2.53,2.91,.82,2.68,.22h0Z"/>
      <path id="CZ" class="cls-1" d="M116.52-6.72l1.86,1.49,2.76,.37-.15,1.27,2.09,.97,.45-1.19,2.53,.52,.52,1.49,2.76,.22,1.94,2.31h-1.12l-.52,.82-.82,.22-.15,1.04-.67,.22-.07,.45-1.19,.45-1.64-.07-.45,1.04-1.79-.89-1.71,.22-2.98-1.42-1.27,.37-1.94,1.94-2.83-1.57-2.24-1.94-1.94-1.12-.52-2.01-.75-1.34,2.53-.97,1.27-1.19,2.61-.89,.82-.89,.97,.52,1.64-.45h0Z"/>
      <path id="DE" class="cls-1" d="M112.2-18.87l1.04,2.31-.89,1.27,1.42,1.57,1.12,2.46-.15,1.64,1.79,2.91-1.64,.45-.97-.52-.82,.89-2.61,.89-1.27,1.19-2.53,.97,.75,1.34,.52,2.01,1.94,1.12,2.24,1.94-1.19,2.16-1.27,.6,.75,3.06-.3,.82-1.27-.97-1.79-.15-2.61,.82-3.28-.22-.45,1.27-2.01-1.27-1.04,.22-4.1-1.42-.75,.97h-3.13l.3-3.35,1.79-3.13-5.37-.89-1.79-1.19,.15-2.01-.75-1.04,.3-3.13-.82-4.85h2.16l.89-1.71,.67-4.17-.67-1.57,.6-.97,2.98-.22,.75,.97,2.31-2.24-.97-1.71-.3-2.53,2.76,.6,2.16-.67,.22,1.71,3.65,1.04,.07,1.64,3.5-.89,1.94-1.19,4.17,1.79,1.79,1.42h0Z"/>
      <path id="DJ" class="cls-1" d="M243.11,181.9l-1.42,2.61-.97-.89-.97,.37-2.39-.07-.15-1.49-.37-1.34,1.34-2.24,1.42-2.09,1.79,.45,1.27-1.19,1.04,1.49-.07,1.94-2.31,1.19,1.79,1.27h0Z"/>
      <path id="DZ" class="cls-1" d="M95.12,59.93l-.75,2.46,.75,4.55-.82,3.95-2.39,2.68,.45,3.58,3.35,2.91,.07,1.12,2.53,1.94,1.94,8.57,1.42,4.25,.3,2.24-.6,3.88,.3,2.24-.45,2.61,.45,2.98-1.64,2.01,2.53,3.5,.15,2.01,1.57,2.68,1.86-.89,3.35,2.24,1.86,2.98-14.02,9.17-11.93,9.39-5.82,2.09-4.62,.52-.07-3.06-1.94-.82-2.61-1.34-.97-2.24-13.94-10.44-13.87-10.44-15.28-11.63,.07-.89,.07-.3,.07-5.67,6.64-3.58,4.03-.75,3.35-1.27,1.57-2.39,4.77-1.86,.22-3.58,2.31-.45,1.86-1.71,5.29-.82,.75-1.86-1.04-1.04-1.42-5.07-.22-2.91-1.42-3.06,3.8-2.61,4.32-.82,2.46-1.94,3.8-1.49,6.71-.82,6.56-.37,2.01,.67,3.65-1.86,4.25-.07,1.64,1.12,2.68-.3h0Z"/>
      <path id="EG" class="cls-1" d="M200.32,87.37l2.91,7.01,.52,1.19-.97,1.94-.52,3.58-.89,2.53-.89,.82-1.49-1.57-2.01-2.09-3.5-6.86-.37,.45,2.09,5,2.91,4.85,3.65,7.46,1.71,2.61,1.49,2.68,4.03,5.29-.75,.82,.3,3.13,5.07,4.32,.82,.97h-49.13l-.75-17.67-.97-17-1.49-3.88,.82-2.91-.75-2.09,1.27-2.31,5.37-.07,4.03,1.27,4.1,1.42,1.94,.75,2.98-1.49,1.57-1.34,3.5-.45,2.91,.6,1.34,2.39,.82-1.57,3.28,1.12,3.21,.3,1.86-1.19h0Z"/>
      <path id="ER" class="cls-1" d="M242.66,176.01l-1.27,1.19-1.79-.45-1.49-1.57-1.86-2.76-1.94-1.57-1.12-1.64-3.73-1.94-2.91-.07-1.04-.97-2.39,1.12-2.68-2.16-1.12,3.58-4.92-1.04-.52-1.86,1.49-7.08,.22-3.13,1.27-1.49,2.98-.82,2.01-2.68,2.68,5.52,1.42,4.4,2.39,2.31,5.96,4.55,2.46,2.68,2.39,2.83,1.34,1.64,2.16,1.42h0Z"/>
      <path id="ET" class="cls-1" d="M226.56,167.21l2.91,.07,3.73,1.94,1.12,1.64,1.94,1.57,1.86,2.76,1.49,1.57-1.42,2.09-1.34,2.24,.37,1.34,.15,1.49,2.39,.07,.97-.37,.97,.89-.89,1.64,1.64,2.68,1.64,2.31,1.64,1.71,13.94,5.67,3.58-.07-11.63,14.39-5.44,.22-3.73,3.35-2.68,.07-1.12,1.57h-2.91l-1.71-1.64-3.88,2.01-1.19,2.01-2.83-.45-.97-.52-.97,.15-1.34-.07-5.37-4.03h-2.98l-1.42-1.57-.07-2.68-2.16-.82-2.61-5.22-1.94-1.12-.75-1.94-2.24-2.31-2.61-.37,1.42-2.68,2.24-.15,.6-1.42-.15-3.73v-.6l1.12-5,1.94-1.34,.37-1.94,1.71-3.73,2.46-2.31,1.49-4.77,.52-4.1,4.92,1.04,1.12-3.58,2.68,2.16,2.39-1.12,1.04,.97h0Z"/>
      <path id="GA" class="cls-1" d="M117.12,225.96l-.3,2.09,1.19,2.46,3.13-.37,1.04,.89-1.86,5.59,2.01,2.83,.45,3.73-.52,3.21-1.27,2.24-3.73-.22-2.31-2.31-.3,2.16-2.83,.6-1.49,1.19,1.57,3.13-3.21,2.68-4.32-4.85-2.76-3.95-2.61-4.92,.15-1.64,.97-1.49,.97-3.5,.89-3.58,1.42-.22h6.11v-5.74l2.01-.3,2.53,.6,2.53-.6,.52,.3h0Z"/>
      <path id="GE" class="cls-1" d="M232.82,32.57l3.8,.97,1.57,1.94,2.68,1.12-.89,.6,2.46,2.61-.45,.52-2.16-.22-3.13-1.42-.82,.82-5.22,.75-4.17-2.39-4.1,.22,.22-2.01-1.57-3.21-2.53-1.79-2.24-.52-1.64-1.42,.3-.6,3.43,.82,5.74,.75,5.67,2.31,.89,.89,2.16-.75h0Z"/>
      <path id="GH" class="cls-1" d="M61.95,184.06l-.3,1.49,1.71,2.46v3.5l.45,3.73,1.04,1.79-.97,4.25,.37,2.39,1.12,3.06,.97,1.71-6.64,2.76-2.39,1.64-3.8,1.42-3.73-1.34,.15-1.94-1.79-4.1,1.12-5.44,1.79-3.95-1.12-6.86-.6-3.58,.15-2.76,7.31-.22,1.86,.37,1.34-.75,1.94,.37h0Z"/>
      <path id="GN" class="cls-1" d="M13.49,177.2l.22,1.79h.67l1.12-.67,.67,.15,1.19,1.27,1.79,.37,1.12-1.04,1.42-.67,.97-.67,.82,.15,.97,1.04,.45,1.34,1.71,2.01-.82,1.19-.22,1.57,.89-.45,.52,.52-.22,1.42,1.27,1.42-.82,.37-.37,1.64,.97,1.94,1.04,3.88-1.57,.52-.37,.67,.3,.97-.3,2.09h-.67l-1.19-.15-.82,1.94h-1.19l-.82-1.04,.3-1.94-1.79-2.91-1.04,.52-.97,.15-1.12,.22,.07-1.71-.67-1.27,.15-1.42-.89-2.01-1.19-1.71h-3.35l-.97,.89-1.19,.15-.75,1.04-.45,1.27-2.31,2.16-1.79-2.83-1.64-1.86-1.04-.67-1.04-.97-.45-2.09-.6-1.04-1.27-.82,1.94-2.31,1.27,.07,1.12-.75,.89-.07,.67-.6-.3-1.57,.45-.52,.07-1.64,2.01,.07,3.06,1.12,.89-.07,.3-.52,2.31,.37,.6-.3h0Z"/>
      <path id="GM" class="cls-1" d="M-8.8,173.85l.6-2.16,4.55-.07,.97-1.19,1.34-.07,1.64,1.19H1.56l1.42-.75,.82,1.34-1.86,1.12-1.79-.15-1.79-.97-1.57,1.12h-.75l-1.04,.67-3.8-.07h0Z"/>
      <path id="GW" class="cls-1" d="M4.32,176.53l-.07,1.64-.45,.52,.3,1.57-.67,.6-.89,.07-1.12,.75-1.27-.07-1.94,2.31-2.16-1.94-1.79-.37-.97-1.34,.07-.75-1.27-.97-.3-1.04,2.24-.75,1.42,.15,1.12-.6,7.75,.22h0Z"/>
      <path id="GQ" class="cls-1" d="M109.51,225.96v5.74h-6.11l-1.42,.22-.82-.67,1.42-5.37,6.93,.07h0Z"/>
      <path class="cls-1" d="M156.03,65.89l2.31,1.64,3.06-.3,2.98,.3v.89l2.09-.6-.37,1.42-5.67,.37-.07-.75-4.92-.97,.6-2.01Z"/>
      <path class="cls-1" d="M162.89,41.52l-2.39-.15-2.01-.45-4.62,1.19,2.98,2.68-1.86,.82h-2.16l-2.31-2.46-.67,1.04,1.19,2.83,2.16,2.24-1.42,1.04,2.39,2.16,2.09,1.42,.3,2.68-3.73-1.27,1.34,2.46-2.46,.45,1.86,4.25-2.61,.07-3.43-2.09-1.79-3.8-.97-3.21-1.71-2.16-2.24-2.76-.37-1.34,1.64-2.31,.07-1.57,1.27-.67-.07-1.27,2.53-.37,1.34-1.04,2.09,.07,.6-.82,.75-.15,2.83,.15,2.98-1.34,2.91,1.71,3.43-.45-.22-2.39,2.01,1.27-.82,2.98-.89,.52Z"/>
      <path id="HR" class="cls-1" d="M132.77,17.43l1.12,1.86,1.27,1.34-1.27,1.79-1.79-1.04-2.61,.07-3.35-.82-1.71,.07-.75,1.04-1.49-1.12-.6,1.94,2.01,2.24,.97,1.42,1.86,1.79,1.57,1.04,1.57,2.01,3.58,1.79-.37,.75-3.73-1.71-2.39-1.71-3.58-1.42-3.5-3.43,.75-.37-1.86-2.01-.22-1.57-2.46-.75-1.04,2.01-1.19-1.57v-1.64l.07-.07,2.68,.15,.6-.75,1.34,.75,1.49,.07-.07-1.27,1.27-.52,.22-1.86,2.91-1.27,1.19,.6,2.98,2.01,3.21,.89,1.34-.75h0Z"/>
      <path id="HU" class="cls-1" d="M143.73,5.73l2.24,1.27,.37,1.27-2.16,.97-1.42,3.13-1.94,3.21-2.91,.89-2.39-.22-2.76,1.19-1.34,.75-3.21-.89-2.98-2.01-1.19-.6-.89-1.57-.6-.07,.97-2.98-.82-1.04h2.09l.15-1.94,2.01,1.27,1.42,.45,3.06-.52,.22-.97,1.42-.15,1.71-.67,.45,.3,1.71-.6,.75-1.12,1.19-.3,4.1,1.42,.75-.45h0Z"/>
      <path class="cls-1" d="M569.65,285.82l-1.79,.07-5.29-3.35,4.03-.97,2.09,1.49,1.34,1.42-.37,1.34Z"/>
      <path class="cls-1" d="M588.14,279.34l.37,.97-.07,1.42-3.06,3.58-3.73,1.04-.45-.52,.52-1.64,2.09-2.91,4.32-1.94Z"/>
      <path class="cls-1" d="M558.62,275.54l1.42,1.27,2.68-.37,.89,2.01-5,.97-2.91,.67-2.31-.07,1.64-2.76h2.39l1.19-1.71Z"/>
      <path class="cls-1" d="M579.72,275.54l-.82,2.68-6.41,1.34-5.59-.6,.15-1.79,3.43-.97,2.53,1.42,2.83-.37,3.88-1.71Z"/>
      <path class="cls-1" d="M519.93,269.2l8.05,.52,1.04-2.01,7.68,2.31,1.34,3.13,6.26,.89,5,2.83-4.92,1.79-4.55-1.94-3.8,.15-4.32-.37-3.88-.82-4.77-1.86-3.06-.45-1.79,.6-7.6-2.01-.6-2.01-3.8-.37,3.13-4.55,5.07,.3,3.28,1.86,1.79,.37,.45,1.64Z"/>
      <path class="cls-1" d="M630.19,266.52l-2.39,3.28-.15-3.58,.82-1.71,.97-1.64,.89,1.42-.15,2.24Z"/>
      <path class="cls-1" d="M599.33,253.32l-1.64,1.64-2.83-.89-.75-2.09,4.25-.22,.97,1.57Z"/>
      <path class="cls-1" d="M613.04,251.61l1.34,3.65-3.43-2.01-3.5-.37-2.46,.3-2.91-.15,1.12-2.61,5.22-.22,4.62,1.42Z"/>
      <path class="cls-1" d="M657.63,249.22l-.75,15.58-1.19,15.66-3.43-3.95-4.18-.97-1.12,1.34-5.37,.15,2.09-3.88,2.76-1.34-.75-5.22-1.71-3.95-7.98-4.1-3.43-.37-6.19-4.47-1.34,2.39-1.64,.37-.82-1.71,.07-2.09-3.13-2.39,4.62-1.71,2.98,.07-.3-1.27h-6.19l-1.64-2.83-3.73-.89-1.71-2.39,5.67-1.12,2.16-1.57,6.78,1.94,.67,1.79,.97,7.75,4.25,2.83,3.73-5.07,4.92-2.83h3.73l3.58,1.64,3.06,1.71,4.55,.89Z"/>
      <path class="cls-1" d="M591.2,229.98l-3.35,4.77-3.21,.89-4.03-.89-7.08,.22-3.65,.67-.6,3.65,3.73,4.25,2.31-2.16,7.9-1.64-.37,2.16-1.86-.67-1.86,2.83-3.8,1.86,3.8,6.11-.82,1.64,3.58,5.52-.22,3.13-2.31,1.42-1.57-1.71,2.24-3.88-4.25,1.86-.97-1.34,.6-1.86-2.91-2.83,.52-4.62-2.91,1.42,.15,5.59-.15,6.86-2.76,.67-1.71-1.34,1.42-4.4-.45-4.62-1.79-.07-1.19-3.28,1.86-3.13,.67-3.8,2.24-7.23,.82-1.94,3.58-3.58,3.35,1.42,5.29,.67,4.85-.22,4.17-3.43,.75,1.04Z"/>
      <path class="cls-1" d="M605.81,231.4l-.22,4.17-2.16-.52-.67,2.91,1.71,2.53-1.19,.6-1.64-3.06-1.27-6.11,.75-3.8,1.34-1.71,.37,2.61,2.53,.37,.45,2.01Z"/>
      <path class="cls-1" d="M525.29,227.15l.75,3.21,2.91,2.76,2.76-.97,2.68,.3,2.46-2.39,2.01-.45,4.03,1.34,3.43-1.04,1.94-6.64,1.57-1.64,1.27-5.44h4.85l3.73,.82-2.24,4.32,3.28,4.47-.67,2.24,4.77,4.4-5,.6-1.34,3.28,.15,4.32-4.1,3.28-.3,4.77-1.86,7.31-.52-1.71-4.92,2.16-1.57-2.91-2.98-.3-2.09-1.57-5.07,1.79-1.42-2.39-2.83,.3-3.43-.52-.45-6.41-2.09-1.34-2.01-4.1-.6-4.17,.45-4.47,2.46-3.21Z"/>
      <path class="cls-1" d="M508.3,264.8l-4.62,.07-3.35-3.95-5.29-3.95-1.71-2.91-3.06-3.88-2.01-3.58-3.13-6.71-3.65-4.03-1.27-4.1-1.64-3.73-3.88-2.98-2.31-4.1-3.28-2.68-4.62-5.29-.45-2.46,2.68,.22,6.64,.89,3.88,4.7,3.43,3.28,2.39,1.94,4.1,5.14,4.32,.07,3.58,3.28,2.53,4.03,3.21,2.24-1.71,3.88,2.46,1.64,1.49,.15,.67,3.35,1.42,2.61,3.06,.45,1.94,3.06-1.27,5.96-.52,7.38Z"/>
      <path id="IN" class="cls-1" d="M390.8,92.29l-2.09,2.24-.67,4.47,4.32,1.79,4.32,2.31,5.82,2.68,5.74,.67,2.83,2.39,3.21,.45,5.14,1.12,3.43-.07,.07-1.86-1.12-3.06-.15-2.01,2.31-1.04,1.12,3.8,.3,.89,4.1,1.86,2.39-.75,3.5,.3,3.35-.15-.37-2.91-1.94-1.57,3.13-.6,2.91-3.58,4.03-2.98,3.65,1.12,2.39-2.01,2.68,2.98-.89,2.01,4.55,.75,.75,1.79-1.27,.89,1.04,2.91-3.13-.82-4.62,3.28,.67,2.76-1.49,4.03,.22,2.31-1.19,3.95-3.43-1.12,.67,5-.75,1.64,.75,2.01-1.86,1.12-3.28-7.6h-1.12l-.22,3.13-2.68-2.53,.89-2.68,1.79-.3,1.19-4.03-2.53-.82-3.8,.07-4.03-.67-.89-3.35-2.01-.22-3.65-2.09-.89,3.28,3.43,2.53-2.24,1.79-.67,1.71,2.76,1.27-.22,2.91,1.94,3.58,1.19,3.95-.37,1.79-2.83-.07-4.92,.97,.67,3.58-1.79,2.83-5.59,3.28-3.95,5.59-2.83,3.06-3.73,3.13,.22,2.16-1.94,1.19-3.58,1.71-1.94,.22-.89,3.65,1.42,6.26,.52,3.95-1.42,4.55,.52,8.13-2.16,.22-1.71,3.65,1.42,1.64-3.8,1.34-1.27,3.21-1.64,1.42-4.17-4.47-2.31-6.71-1.86-4.85-1.64-2.24-2.53-4.62-1.49-5.96-1.04-2.98-4.4-6.56-2.61-9.32-1.94-6.11-.6-5.82-1.27-4.47-5.74,2.91-2.98-.6-6.04-5.82,1.79-1.71-1.42-1.86-5.29-4.1,2.39-3.21h9.02l-1.34-4.1-2.61-2.39-1.04-3.73-2.98-2.09,3.65-5.07,4.85,.37,3.35-5,1.64-4.85,2.91-4.85-.75-3.43,2.83-2.76-3.8-2.31-2.16-3.28-2.46-4.17,1.49-2.09,6.34,1.19,4.25-.75,2.83-4.03,5.74,5.67,.6,3.88,2.24,2.46,.45,2.46-3.06-.67,2.39,5.29,4.62,2.98,6.41,3.35h0Z"/>
      <path id="IR" class="cls-1" d="M242.74,51.43l1.34-.15,3.95-3.5,1.42-.37,1.42,1.42-.89,2.31,2.91,2.53,.97-.3,1.86,3.58,3.95,.97,3.21,2.39,5.74,.82,5.96-1.27,.15-1.12,3.28-.89,2.24-2.76,2.68,.15,1.49-.89,2.91,.45,4.92,2.46,3.21,.52,5.44,4.17,2.98,.22,1.27,3.95-.45,5.96-.37,3.5,1.86,.75-1.19,2.61,2.01,3.8,.89,3.06,3.21,.82,.82,3.06-2.91,4.32,2.39,2.53,2.09,2.91,4.25,2.09,.75,4.17,2.01,.82,.67,2.16-5.59,2.53-.82,5.52-7.9-1.42-4.62-1.12-4.7-.6-2.46-5.89-2.09-.82-3.06,.82-3.8,2.31-5.22-1.57-4.55-3.73-4.1-1.34-3.28-4.55-3.88-6.34-2.09,.75-2.76-1.57-1.27,1.86-2.61-2.53-.37-2.53h-1.27l.15-3.5-2.61-3.58-5.29-2.68-3.43-4.55,.37-3.73,1.71-1.64-.67-2.76-2.83-1.49-3.5-5.67-2.83-3.8,.52-1.49-2.16-5.44,2.46-1.42,.89,1.86,2.39,2.16,2.83,.67h0Z"/>
      <path id="IQ" class="cls-1" d="M238.64,58.89l3.5,5.67,2.83,1.49,.67,2.76-1.71,1.64-.37,3.73,3.43,4.55,5.29,2.68,2.61,3.58-.15,3.5h1.27l.37,2.53,2.61,2.53-2.46-.22-2.76-.45-2.46,4.62-7.6-.37-12.52-9.62-6.41-3.35-5.07-1.34-2.31-5.82,8.2-5,.75-5.74-.89-3.5,2.01-1.19,1.57-2.98,1.57-.75,4.7,.67,1.57,1.19,1.79-.82h0Z"/>
      <path id="IL" class="cls-1" d="M205.54,77.52l.3,1.94-.45,.75h.07l-.52,1.49-1.57-.6-.52,3.13,1.12,.52-.97,.67-.07,1.27,1.86-.6,.3,1.86-1.34,7.6-.52-1.19-2.91-7.01,1.04-1.57-.3-.3,.82-2.24,.45-3.58,.45-1.27h1.42l.3-.82,1.04-.07h0Z"/>
      <path class="cls-1" d="M122.86,53.82l-1.27,3.8,.67,1.42-.67,2.46-3.13-1.79-2.01-.52-5.59-2.39,.37-2.46,4.62,.45,4.03-.52,2.98-.45Z"/>
      <path class="cls-1" d="M97.51,39.65l2.46,3.35-.3,6.34-1.79-.3-1.57,1.57-1.49-1.27-.37-5.74-.97-2.68,2.16,.22,1.86-1.49Z"/>
      <path class="cls-1" d="M113.69,14.68l-.3,2.31,1.04,2.01-3.06-.75-2.91,1.71,.3,2.31-.37,1.34,1.42,2.39,3.73,2.39,2.16,3.95,4.55,3.8,2.98-.07,1.04,1.04-1.04,.97,3.58,1.71,2.98,1.42,3.5,2.53,.45,.82-.6,1.71-2.31-2.24-3.43-.75-1.42,3.06,2.91,1.79-.3,2.46-1.57,.3-1.86,4.1-1.64,.37-.07-1.49,.67-2.53,.82-1.04-1.71-2.76-1.34-2.39-1.64-.6-1.34-2.01-2.53-.89-1.79-1.94-2.83-.3-3.21-2.09-3.65-3.13-2.76-2.68-1.42-4.7-1.94-.52-3.13-1.57-1.71,.6-2.16,2.24-1.57,.3,.37-2.01-2.09-.6-1.12-3.65,1.27-1.42-1.12-1.79,.07-1.34,1.64,1.04,1.86-.22,2.01-1.64,.67,.75,1.79-.15,.75-1.86,2.83,.6,1.57-.82,.22-1.86,2.31,.67,.37-.89,3.65-.82,.97,1.57,5.44,1.27Z"/>
      <path id="JO" class="cls-1" d="M219.7,82.82l-.67,.75-7.75,2.39,4.47,4.85-1.19,.75-.52,1.64-3.06,.67-.82,1.71-1.57,1.49-4.62-.82-.22-.67,1.34-7.6-.3-1.86,.45-1.42-.3-2.98,.52-1.49,4.7,1.94,7.23-5.14,2.31,5.82Z"/>
      <path class="cls-1" d="M600.22,73.35l1.19,1.64-.97,2.91-2.31-1.57-1.57,1.12,.07,2.76-3.21-1.34-.89-2.24,.97-2.91,2.53,.6,.75-2.01,3.43,1.04Z"/>
      <path class="cls-1" d="M618.56,59.04l.45,3.8,1.86,2.39-.45,3.35-4.03,2.24-6.86,.3-3.28,5.52-3.5-1.86-1.79-3.58-6.41,1.04-3.8,2.24-4.62,.15,5.52,3.5,.6,8.13-1.86,2.01-2.68-1.86-.67-4.32-3.06-1.34-2.98-3.28,3.21-1.49,.82-3.06,2.91-2.46,1.49-3.28,7.23-1.42,4.7,.97v-8.5l3.8,2.31,3.35-4.77,1.27-1.86-.75-5.82-3.8-5.37-.15-2.98,3.58-.89,6.11,6.64,2.09,3.8-.97,4.85,2.68,4.92Z"/>
      <path class="cls-1" d="M609.69,25.64l3.35,.97,1.34-1.94,4.47,5.29-4.77,1.27-.3,4.7-8.13-3.21,1.19,5.14-4.25,.07-3.5-4.7-.45-3.65,3.88-.22-3.28-6.56-1.34-3.65,7.83,4.92,3.95,1.57Z"/>
      <path id="KZ" class="cls-1" d="M324.23-17.68l3.28-.22,6.86-4.32-.6,1.49,6.26,3.5,13.64,11.63,.82-2.39,6.26,2.61,4.62-1.19,2.46,.82,3.06,2.68,2.98,.89,2.46,2.01,4.47-.67,3.28,2.83-1.42,3.13-2.83,.45,1.86,4.62-1.19,2.16-8.05-1.57,.75,8.42-1.49,1.04-6.78,1.86,6.56,8.2-2.16,1.19,1.27,2.76-2.61-.75-2.53-1.71-5.89-.45-6.41-.15-1.19,.52-6.11-2.01-1.86,1.04,.37,2.76-6.86-1.64-2.31,.67-.22,2.09-1.94,.89-4.03,3.28-.67,3.43h-1.49l-1.71-2.24-5-.15-1.86-3.88-1.94-.07-1.12-4.77-5.67-3.43-6.41,.37-4.25,.67-4.92-4.25-3.58-1.79-6.86-3.35-.82-.37-8.95,2.76,4.62,17.45-1.94,.22-3.58-3.73-2.91-1.34-4.17,.97-1.34,1.64-.45-1.19,.45-1.94-1.12-1.64-4.85-1.64-2.76-4.25-2.39-1.19-.45-1.57,3.8,.45-.75-3.43,3.06-.75,3.5,.67-.52-4.55-1.42-2.91-3.73,.22-3.5-1.12-3.8,2.01-3.28,1.04-2.09-.82-.15-2.39-3.21-3.13-2.68,.15-3.95-3.13,1.27-3.58-1.34-.89,1.64-5.14,4.47,2.68-.45-3.35,6.04-5,5.67-.15,8.95,3.21,4.92,1.86,3.28-1.94,5.74-.07,5.44,2.39,.6-1.42,5.22,.22,.15-2.16-7.01-3.21,2.61-2.24-1.12-1.19,2.98-1.19-3.8-3.13,1.04-1.57,12.67-1.57,1.27-1.12,8.13-1.71,2.31-1.86,6.78,.97,3.28,4.7,3.21-1.12,5.29,1.57,.82,2.46h0Z"/>
      <path id="KE" class="cls-1" d="M238.64,218.06l-3.65,5.37,.15,17.45,2.46,3.95-2.98,1.94-1.04,2.01-1.64,.3-.6,3.43-1.42,1.94-.82,3.13-1.71,1.57-6.04-4.77-.22-2.76-15.28-9.77,.3-3.5-1.04-1.86v-.22l1.19-1.94,2.09-3.13,1.57-3.5-1.94-5.52-.52-2.39-2.01-3.35,2.53-2.83,2.83-3.13,2.16,.82,.07,2.68,1.42,1.57h2.98l5.37,4.03,1.34,.07,.97-.15,.97,.52,2.83,.45,1.19-2.01,3.88-2.01,1.71,1.64h2.91Z"/>
      <path id="KG" class="cls-1" d="M370.6,34.28l-.15,1.04-5.14,2.53-.75,1.94-4.77,.52-.45,3.06-4.32-.67-2.39,.97-3.06,2.24,.89,1.12-.82,1.04-7.16,.75-5.29-1.57-4.1,.37-.45-2.68,4.47,.75,1.04-1.42,3.06,.45,3.95-3.43-5.37-2.53-2.39,1.19-3.43-1.79,2.24-3.06-1.27-.45,.22-2.09,2.31-.67,6.86,1.64-.37-2.76,1.86-1.04,6.11,2.01,1.19-.52,6.41,.15,5.89,.45,2.53,1.71,2.61,.75h0Z"/>
      <path id="KH" class="cls-1" d="M511.73,168.78l1.34,3.21,.07,5.74-6.71,3.73,2.09,2.83-4.4,.37-3.43,1.94-3.58-.67-1.94-2.53-2.61-4.92-1.57-5.82,2.31-3.95,5.29-.89,3.95,.67,3.73,1.86,1.49-3.28,3.95,1.71h0Z"/>
      <path id="KR" class="cls-1" d="M558.77,56.13v-.45l1.86,.15,.45-2.09,2.68-.3,1.49-.3v-1.12l6.19,5.59,2.46,3.13,2.53,5.52-.37,2.61-3.21,.89-2.31,2.01-3.43,.37-1.57-2.61-.82-3.58-3.95-4.92,2.53-.82-4.55-4.1h0Z"/>
      <path id="KW" class="cls-1" d="M256.53,93.33l1.12,2.09-.22,1.12,1.79,3.58-2.91,.15-1.27-2.31-3.73-.45,2.46-4.62,2.76,.45h0Z"/>
      <path id="LA" class="cls-1" d="M511.73,168.78l-3.95-1.71-1.49,3.28-3.73-1.86,1.12-2.16-.3-4.03-3.95-4.17-.97-4.77-3.73-3.88-3.21-.3-.6,1.64-2.39,.15-1.42-.82-3.95,2.83-.75-4.32,.3-5-2.83-.22-.67-2.91-2.01-1.49,.6-1.71,3.06-3.13,.6,1.12,2.24,.15-1.49-5.52,2.01-.67,2.98,3.8,2.61,4.32h5.07l2.24,4.17-2.46,1.27-.89,1.71,5.44,2.91,4.25,5.67,3.28,4.17,3.65,3.35,1.49,3.35-.15,4.77h0Z"/>
      <path id="LB" class="cls-1" d="M205.54,77.52l-1.04,.07-.3,.82h-1.34l.97-3.95,1.64-3.35v-.15l1.86,.22,.89,1.86-2.01,1.86-.67,2.61h0Z"/>
      <path id="LR" class="cls-1" d="M26.24,200.01l-.15,1.34,.37,2.31-.89,2.16,1.19,1.34,1.34,.3,1.79,2.01,.15,1.86-.45,.6-.3,3.95-1.12,.07-4.32-2.31-3.88-3.65-3.58-2.61-2.83-3.06,1.04-1.57,.22-1.42,1.94-2.53,1.94-2.24,.97-.15,1.04-.52,1.79,2.91-.3,1.94,.82,1.04h1.19l.82-1.94,1.19,.15h0Z"/>
      <path id="LY" class="cls-1" d="M163.41,85.65l-1.27,2.31,.75,2.09-.82,2.91,1.49,3.88,.97,17,.75,17.67,.37,9.54h-4.77v2.01l-16.85-9.17-16.77-9.17-4.1,2.61-2.83,1.79-2.39-2.61-6.56-2.09-1.86-2.98-3.35-2.24-1.86,.89-1.57-2.68-.15-2.01-2.53-3.5,1.64-2.01-.45-2.98,.45-2.61-.3-2.24,.6-3.88-.3-2.24-1.42-4.25,1.94-1.04,.3-2.09-.45-1.94,2.68-1.86,1.19-1.57,1.94-1.34,.07-3.65,4.77,1.64,1.71-.45,3.35,.82,5.44,2.16,2.09,4.25,3.65,.89,5.82,2.01,4.47,2.39,1.86-1.27,1.86-2.16-1.19-3.65,1.12-2.39,2.76-2.24,2.76-.6,5.52,.97,1.49,2.09,1.49,.07,1.34,.82,4.03,.52,1.12,1.57h0Z"/>
      <path id="LK" class="cls-1" d="M404.44,207.1l-3.58,1.12-2.16-3.8-1.04-6.86,1.49-7.75,3.06,2.61,2.09,3.35,2.31,5-.45,5-1.71,1.34h0Z"/>
      <path id="LS" class="cls-1" d="M175.72,382.97l-1.49,.52-2.76-3.73,2.39-2.98,2.31-1.86,2.01-1.04,1.64,1.49,1.27,1.49-1.42,2.31-.82,1.57-2.31,.75-.82,1.49h0Z"/>
      <path id="LU" class="cls-1" d="M84.61,.88l-1.04,.07-.82-.37,.3-2.61,.97-.15,.75,1.04-.15,2.01Z"/>
      <path id="MA" class="cls-1" d="M53.23,68.43l1.42,3.06,.22,2.91,1.42,5.07,1.04,1.04-.75,1.86-5.29,.82-1.86,1.71-2.31,.45-.22,3.58-4.77,1.86-1.57,2.39-3.35,1.27-4.03,.75-6.64,3.58-.07,5.67h-.67l.07,2.53-2.53,.15-1.34,1.12h-1.86l-1.49-.67-3.43,.52-1.42,3.73-1.34,.37-2.01,6.04-5.89,5.14-1.49,6.64-1.79,2.16-.52,1.71-9.32,.37h-.07l.22-2.24,1.64-1.27,1.42-2.53-.22-1.64,1.49-3.35,2.39-3.06,1.42-.75,1.19-2.76,.15-2.61,1.57-2.91,2.83-1.79,2.68-4.85,.07-.07,2.16-1.86,3.8-.52,3.28-3.28,2.09-1.27,3.5-4.03-.89-5.89,1.64-4.17,.67-2.53,2.68-3.21,4.03-2.16,3.06-2.01,2.76-4.92,1.34-2.98,2.91,.07,2.31,2.01,3.8-.3,4.1,1.04h1.79Z"/>
      <path id="MD" class="cls-1" d="M168.48,19.45l-.97-2.16,.15-2.01-.45-2.01-2.53-2.83-1.49-1.94-1.34-1.34-1.19-.52,.82-.67,2.39-.45,2.98,1.42,1.49,.22,1.94,1.27-.07,1.57,1.49,.75,.82,1.94,1.49,1.19-.15,.75,.75,.45-.97,.37-2.24-.15-.45-.67-.75,.37,.45,.82-.82,1.57-.45,1.57-.89,.52h0Z"/>
      <path id="MG" class="cls-1" d="M271.74,301.7l.3,5.74,.97,2.24-.52,2.31-.89,1.34-1.19-2.76-.89,1.42,.6,3.5-.52,2.09-1.27,1.04-.52,4.1-2.01,5.59-2.53,6.56-3.21,9.1-2.16,6.64-2.31,5.59-3.43,1.12-3.8,2.01-2.24-1.19-3.13-1.71-.89-2.53v-4.25l-1.12-3.8-.15-3.5,.97-3.43,1.94-.82,.15-1.57,2.16-3.65,.6-3.06-.82-2.24-.6-3.06-.07-4.4,1.64-2.68,.75-3.06,2.09-.15,2.39-.97,1.64-.89,1.79-.07,2.53-2.68,3.65-2.98,1.34-2.39-.45-2.09,1.79,.6,2.46-3.28,.22-2.91,1.49-2.16,1.34,2.09,1.04,2.01,.89,3.21h0Z"/>
      <path id="MK" class="cls-1" d="M150.67,39.06l-.75,.15-.6,.82-2.09-.07-1.34,1.04-2.53,.37-1.71-1.12-.75-2.01,.37-1.64,.52,.07,.07-.97,2.16-.75,.89-.22,1.27-.22,1.79-.15,2.09,1.57,.6,3.13h0Z"/>
      <path id="ML" class="cls-1" d="M79.62,145.07l.07,11.03-2.31,3.21-.3,2.98-3.73,.75-5.74,.37-1.49,1.71-2.68,.22h-2.68l-1.04-.89-2.31,.67-3.95,2.01-.82,1.49-3.21,2.09-.6,1.27-1.79,.97-2.01-.67-1.12,1.19-.67,3.28-3.35,3.95,.15,1.64-1.19,2.01,.3,2.76-1.79,.75-.97,.6-.67-2.01-1.19,.52-.75-.07-.75,1.34h-3.28l-1.12-.75-.6,.45-1.27-1.42,.22-1.42-.52-.52-.89,.45,.22-1.57,.82-1.19-1.71-2.01-.45-1.34-.97-1.04-.82-.15-.97,.67-1.42,.67-1.12,1.04-1.79-.37-1.19-1.27-.67-.15-1.12,.67h-.67l-.22-1.79,.22-1.49-.37-1.79-1.49-1.34-.82-2.76-.15-2.98,1.42-.89,.75-2.83,1.34-.07,2.91,1.34,2.39-.97,1.57,.3,.67-1.04,16.77-.07,.97-3.35-.75-.6-1.86-20.65-1.79-20.65,6.34-.07,13.87,10.44,13.94,10.44,.97,2.24,2.61,1.34,1.94,.82,.07,3.06,4.62-.52h0Z"/>
      <path id="MM" class="cls-1" d="M480.86,134.18l-3.06,3.13-.6,1.71-2.24,1.12-2.09,2.09-2.91,.22-1.12,5.14-1.64,.89,2.61,4.17,3.06,3.5,2.16,3.21-1.04,4.1-1.34,.89,1.34,2.39,3.21,3.8,.75,2.68,.15,2.24,2.01,4.4-1.94,4.47-1.64,4.92-.67-3.58,.97-3.65-1.64-2.83-.15-5.22-1.94-2.53-2.01-5.67-1.49-6.04-2.31-4.03-2.39,2.46-4.32,3.35-2.46-.37-2.68-1.12,.67-5.96-1.49-4.47-3.95-5.52,.22-1.71-2.53-.67-3.43-3.88-.82-3.88,1.57,.75-.45-3.43,1.86-1.12-.75-2.01,.75-1.64-.67-5,3.43,1.12,1.19-3.95-.22-2.31,1.49-4.03-.67-2.76,4.62-3.28,3.13,.82-1.04-2.91,1.27-.89-.75-1.79,2.31-.37,2.01,2.83,2.01,1.12,.97,3.65,.67,3.95-3.13,4.03,.52,5.67,4.17-.82,1.79,4.4,2.76,.97-.6,3.95,3.35,1.79,1.94,.89,2.83-1.42,.37,2.01h0Z"/>
      <path id="ME" class="cls-1" d="M139.56,32.05l-.6,1.04-1.04,.45-.3-.89-1.42,2.31,.37,1.57-.82-.37-1.27-1.57-1.71-.97,.37-.75,.3-2.61,1.19-1.12,.67-.45,1.04,.82,.67,.67,1.27,.52,1.57,.97-.3,.37h0Z"/>
      <path id="MN" class="cls-1" d="M441.94-2.02l2.98-.89,4.25-.6,4.03,.67,4.92,2.16,3.65,2.39h3.43l5.07,.75,2.68-1.19,4.4-.75,3.28-3.28,2.53,.52,2.91,1.57,4.17-.45,.45,3.5,.22,4.7,2.09,1.86,1.71-.6,4.1,.75,1.86-1.71,3.88,1.49,5.37,3.28,.6,1.64-3.28-.52-5.07,.6-1.86,1.34-.97,3.13-4.77,1.79-2.39,2.53-4.4-.97-2.39-.45-.37,3.06,2.16,1.79,1.42,1.57-1.79,1.64-1.49,2.53-3.65,1.64-5.67,.15-5.37,1.64-3.28,2.53-2.46-1.42h-4.62l-7.01-2.91-4.17-.67-4.77,.67-8.42-1.12-4.17,.15-3.5-2.83-3.73-4.32-2.53-.52-5.96-2.98-5.37-.6-4.85-.82-2.24-2.09-1.04-5.44-4.32-3.8-6.11-1.71-4.25-2.46-2.46-3.28,3.5-.82,5-3.95,4.4-2.16,3.95,1.42,3.88,.07,3.58,2.16,3.73,.15,5.96,1.19,1.79-3.28-2.98-2.68,.97-4.77,5.22,1.86,3.58,.6,5,1.19,2.68,3.43,6.34,1.94h0Z"/>
      <path id="MZ" class="cls-1" d="M196.29,364.78h-3.06l-.22-2.16-.45-2.16-.3-1.71,1.04-5.29-.82-3.43-1.64-6.71,4.62-5.44,1.27-3.43,.6-.45,.67-2.83-.6-1.42,.3-3.58,.97-3.28,.3-6.11-2.09-1.49-2.01-.37-.82-1.19-1.94-.97-3.5,.07-.15-1.79-.3-3.43,12.82-3.95,2.39,2.31,1.12-.45,1.64,1.19,.15,1.94-.97,2.24,.15,3.35,2.61,2.98,1.42-3.35,1.86-.97-.07-6.19-1.64-3.43-1.42-1.57h-.3l-.45-5.44,1.12-4.55,1.64-.15,5,1.34,1.12-.6,2.91-.15,1.57-1.42,2.53,.07,4.62-1.86,3.43-2.76,.67,2.09-.37,4.77,.37,4.25-.15,7.46,.6,2.31-1.42,3.43-1.79,3.35-2.76,2.98-3.95,1.79-4.85,2.31-4.92,5.14-1.64,.89-3.13,3.43-1.71,1.04-.6,3.43,1.79,3.65,.67,2.76v1.49l.75-.3-.37,4.7-.82,2.24,.89,.82-.75,2.01-1.79,1.71-3.5,1.57-5.14,2.61-1.86,1.79,.22,2.01,.97,.3-.52,2.53h0Z"/>
      <path id="MR" class="cls-1" d="M41.6,117.26l-6.34,.07,1.79,20.65,1.86,20.65,.75,.6-.97,3.35-16.77,.07-.67,1.04-1.57-.3-2.39,.97-2.91-1.34-1.34,.07-.75,2.83-1.42,.89-2.68-3.28-2.53-3.58-2.68-1.27-2.01-1.34H-1.35l-2.09,1.04-2.01-.37-1.49,1.49-.3-2.53,1.19-2.39,.6-4.47-.3-4.77-.45-2.39,.45-2.39-1.04-2.24-2.09-2.09,.97-1.57H8.27l-.67-6.93,1.12-2.46,3.88-.37,.15-12.3,13.42,.3,.15-7.31,15.28,11.63h0Z"/>
      <path id="MW" class="cls-1" d="M207.92,301.7h.3l1.42,1.57,1.64,3.43,.07,6.19-1.86,.97-1.42,3.35-2.61-2.98-.15-3.35,.97-2.24-.15-1.94-1.64-1.19-1.12,.45-2.39-2.31-2.16-1.19,1.49-4.47,1.34-1.64-.67-4.03,.97-3.88,.75-1.27-.97-4.03-1.94-2.16,4.1,.89,.75,1.27-.07,.6,1.34,3.06,.15,5.74-1.34,2.68,1.19,3.5-.15,2.09,.89,1.42-.07,1.79,.67,1.04,.75-1.19,1.42,1.86,.15-.6-.75-2.53-.82-.22-.07-.67h0Z"/>
      <path class="cls-1" d="M492.71,207.02l1.04,.45,2.61,2.91,1.86,3.21,.45,3.21-.37,2.16,.45,1.64,.37,2.83,1.57,1.34,1.71,4.25v1.57l-2.98,.37-4.1-3.58-5.07-3.8-.6-2.46-2.53-3.21-.75-3.95-1.64-2.61,.3-3.5-1.04-2.01,.67-.82,3.58,2.09,.45,2.46,2.76-.6,1.27-1.94Z"/>
      <path class="cls-1" d="M559.66,217.01l-3.73-.82h-4.85l-1.27,5.44-1.57,1.64-1.94,6.64-3.43,1.04-4.03-1.34-2.01,.45-2.46,2.39-2.68-.3-2.76,.97-2.91-2.76-.75-3.21,3.13,1.64,3.21-.89,.75-4.03,1.79-.89,5.07-1.04,2.83-3.8,1.94-2.98,2.09,2.46,.82-1.64,2.01,.15,.07-3.06,.07-2.39,3.06-3.28,1.94-3.73,1.71-.07,2.31,2.46,.3,2.09,2.83,1.34,3.58,1.42-.15,1.86-2.83,.22,.82,2.39-2.98,1.64Z"/>
      <path id="NA" class="cls-1" d="M158.64,320.64l3.43-1.04,2.68,.22,1.64,1.12v.37l-2.39,1.12h-1.27l-2.76,1.86-1.49-2.01-6.49,1.71-3.13,.15-.6,17.07-4.1,.15-.45,13.94-.82,17.67-3.73,2.46-2.16,.37-2.53-.89-1.86-.37-.6-2.01-1.49-1.34-2.09,2.39-2.91-3.65-1.49-3.43-.75-4.7-.89-3.43-1.19-7.38,.07-5.74-.45-2.61-1.57-2.01-2.09-3.95-2.09-5.74-.82-2.98-3.28-4.7-.22-3.65,2.01-.89,2.53-.82,2.68,.15,2.46,2.16,.6-.37,16.92-.15,2.83,2.24,10.06,.67,7.75-1.94h0Z"/>
      <path id="NE" class="cls-1" d="M123.16,127.33l1.19,7.46,1.64,1.27,.07,1.49,1.79,1.64-.89,2.09-1.34,9.69-.15,6.26-5.22,4.47-1.71,6.34,1.79,1.79v3.06l2.76,.07-.45,2.31-1.12,.22-.15,1.57-.75,.07-2.91-5.22-1.04-.22-3.21,2.68-3.28-1.42-2.24-.22-1.19,.67-2.46-.15-2.46,2.01-2.16,.15-5.07-2.46-2.01,1.12-2.16-.07-1.57-1.79-4.17-1.79-4.55,.6-1.04,.97-.6,2.76-1.19,1.94-.3,4.32-3.21-2.76h-1.49l-1.42,1.42,.07-3.28-4.85-1.12-.15-2.31-2.31-3.13-.6-2.16,.37-2.31,2.68-.22,1.49-1.71,5.74-.37,3.73-.75,.3-2.98,2.31-3.21-.07-11.03,5.82-2.09,11.93-9.39,14.02-9.17,6.56,2.09,2.39,2.61,2.83-1.79h0Z"/>
      <path id="NG" class="cls-1" d="M121.37,177.05l1.71,1.86-.45,.89-.22,1.57-3.5,3.73-1.04,3.06-.6,2.46-.89,1.12-.82,3.35-2.24,1.94-.6,2.39-.97,1.94-.37,2.01-2.91,1.64-2.39-2.01-1.57,.07-2.53,2.83h-1.19l-2.01,4.62-1.04,3.43-4.4,1.71-1.57-.22-1.64,1.04-3.35-.07-2.31-3.06-1.42-3.43-2.98-3.13h-6.86l.22-7.68-.15-3.06,.82-2.98,1.27-1.49,2.09-2.98-.45-1.27,.82-1.94-.97-2.83,.15-1.57,.3-4.32,1.19-1.94,.6-2.76,1.04-.97,4.55-.6,4.17,1.79,1.57,1.79,2.16,.07,2.01-1.12,5.07,2.46,2.16-.15,2.46-2.01,2.46,.15,1.19-.67,2.24,.22,3.28,1.42,3.21-2.68,1.04,.22,2.91,5.22,.75-.07h0Z"/>
      <path id="NP" class="cls-1" d="M421.67,103.39l.15,2.01,1.12,3.06-.07,1.86-3.43,.07-5.14-1.12-3.21-.45-2.83-2.39-5.74-.67-5.82-2.68-4.32-2.31-4.32-1.79,.67-4.47,2.09-2.24,1.42-1.12,3.58,1.49,4.77,3.13,2.46,.67,1.86,2.31,3.35,.89,3.73,2.16,4.85,1.04,4.85,.52h0Z"/>
      <path class="cls-1" d="M283.59,157.07l-1.64-3.35-3.88-7.9,12.15-4.77,1.94-9.54-2.24-3.43v-1.94l.97-1.94-.15-1.94,1.79-.97-.82-.67v-3.13h2.09l2.24,3.28,2.46,1.71,3.06,.67,2.53,.82,2.16,2.76,1.27,1.57,1.49,.67,.15,1.04-1.27,2.83-.52,1.34-1.64,1.57-1.27,3.28-1.86-.3-.75,1.19-.52,2.39,.82,3.21-.37,.6h-1.86l-2.46,1.79-.22,2.31-.89,1.04-2.61-.07-1.49,1.19,.15,1.94-1.94,1.34-2.31-.45-2.68,1.64-1.86,.22Z"/>
      <path class="cls-1" d="M292.84,113.68l-.97-1.64,1.04-1.57,.52,.37-.15,2.01-.45,.82Z"/>
      <path id="PK" class="cls-1" d="M371.42,66.86l-2.83,4.03-4.25,.75-6.34-1.19-1.49,2.09,2.46,4.17,2.16,3.28,3.8,2.31-2.83,2.76,.75,3.43-2.91,4.85-1.64,4.85-3.35,5-4.85-.37-3.65,5.07,2.98,2.09,1.04,3.73,2.61,2.39,1.34,4.1h-9.02l-2.39,3.21-3.13-1.19-1.64-3.43-3.65-3.65-7.46,.89-6.71,.07-5.67,.67,.82-5.52,5.59-2.53-.67-2.16-2.01-.82-.75-4.17-4.25-2.09-2.09-2.91-2.39-2.53,7.16,2.46,3.95-.75,2.53,.6,.67-1.04,2.91,.45,4.92-2.01-.6-4.03,1.71-2.76h3.06l.15-1.27,2.98-.67,1.57,.45,1.34-1.34-.82-2.91,1.04-2.83,2.31-1.27-2.31-3.13,3.88,.15,.67-1.71-.6-1.86,1.49-2.01-1.04-2.39-1.42-2.01,1.79-2.09,3.95-.97,4.4-.6,1.79-.82,2.16-.6,3.5,2.24,2.16,3.73,7.08,1.86h0Z"/>
      <path class="cls-1" d="M594.26,196.51l.67,3.21,.45,2.68-1.19,4.32-1.86-4.85-1.79,2.46,1.57,3.5-1.04,2.24-5.14-2.76-1.42-3.5,1.12-2.24-2.83-2.31-1.19,2.01-1.94-.22-2.98,2.68-.75-1.42,1.34-4.03,2.53-1.34,2.16-1.79,1.64,2.16,3.13-1.27,.52-2.16,2.98-.15-.6-3.65,3.65,2.24,.52,2.39,.45,1.79Z"/>
      <path class="cls-1" d="M583.37,187.56l-1.34,1.57-1.04,3.06-1.19,1.42-2.91-3.28,.75-1.34,.97-1.34,.15-2.91,2.31-.3-.37,3.21,2.68-4.62v4.55Z"/>
      <path class="cls-1" d="M560.78,192.19l-5.29,4.55,1.79-3.35,2.83-2.98,2.24-3.28,1.71-4.77,1.19,3.95-2.61,2.61-1.86,3.28Z"/>
      <path class="cls-1" d="M573.83,179.89l2.68,1.49h2.61l.15,1.94-1.71,2.09-2.53,1.42-.37-2.24,.07-2.46-.89-2.24Z"/>
      <path class="cls-1" d="M588.81,178.54l1.79,5.37-3.35-1.27,.22,1.64,1.34,2.91-1.94,1.12-.45-3.43-1.34-.22-.89-2.91,2.46,.37-.22-1.79-2.98-3.65,4.03,.07,1.34,1.79Z"/>
      <path class="cls-1" d="M571.67,174.22l-.67,4.17-2.01-2.39-2.61-3.65,3.58,.15,1.71,1.71Z"/>
      <path class="cls-1" d="M566.82,148.2l2.83,1.42,1.04-1.27,.6,1.19-.3,2.01,1.94,3.43-.45,3.95-2.16,1.57-.07,3.88,1.49,3.8,2.24,.52,1.79-.52,5.59,2.61-.07,2.61,1.57,1.19-.22,2.16-3.5-2.31-1.86-2.53-.89,1.79-2.98-2.91-3.73,.75-2.24-1.04-.07-2.01,1.19-1.19-1.42-1.12-.3,1.71-2.46-2.76-.97-2.09-.82-4.55,1.94,1.57-.82-7.53,.6-4.32h2.53Z"/>
      <path class="cls-1" d="M719.21,269.42l-1.19,.52-1.71-1.86-1.64-3.06-.6-3.65,.6-.45,.37,1.42,1.19,1.12,1.79,2.98,1.86,1.64-.67,1.34Z"/>
      <path class="cls-1" d="M703.25,263.01l-2.24,.37-.75,1.34-2.39,1.19-2.24,1.12h-2.31l-3.35-1.42-2.31-1.34,.45-1.49,3.73,.75,2.39-.37,.75-2.31,.67-.15,.22,2.53,2.39-.3,1.34-1.64,2.46-1.71-.3-2.83,2.53-.07,.82,.75-.3,2.68-1.57,2.91Z"/>
      <path class="cls-1" d="M655.69,280.46l1.19-15.66,.75-15.58,7.16,3.28,7.68,2.76,2.76,2.46,2.24,2.39,.45,2.83,6.86,2.98,.82,2.53-3.88,.52,.67,3.21,3.5,3.13,2.24,5.07,2.46-.15-.45,2.09,3.21,.82-1.34,.89,4.25,2.01-.67,1.42-2.83,.3-.89-1.19-3.5-.6-4.17-.67-2.98-3.06-2.09-2.68-1.86-4.17-5.29-2.09-3.65,1.34-2.76,1.64,.22,3.5-3.43,1.64-2.31-.82-4.32-.15Z"/>
      <path class="cls-1" d="M708.4,258.31l-1.34,1.27-.67-2.83-.82-1.79-1.86-1.57-2.31-2.09-2.98-1.42,1.19-1.12,2.24,1.34,1.42,1.04,1.71,1.12,1.57,2.01,1.57,1.57,.3,2.46Z"/>
      <path id="PL" class="cls-1" d="M131.58-21.93l4.4,.52,6.56-.07,1.86,.52,1.04,1.42,.45,2.01,1.27,1.71,.3,1.79-2.09,.97,1.42,2.09,.37,2.09,2.39,4.03-.22,1.27-1.71,.52-2.83,3.88,1.19,2.09-.82-.3-3.73-1.79-2.61,.67-1.79-.45-2.09,.97-2.01-1.64-1.42,.67-.22-.3-1.94-2.31-2.76-.22-.52-1.49-2.53-.52-.45,1.19-2.09-.97,.15-1.27-2.76-.37-1.86-1.49-1.79-2.91,.15-1.64-1.12-2.46-1.42-1.57,.89-1.27-1.04-2.31,2.31-1.34,5.29-2.09,4.32-1.49,3.58,.75,.45,1.12h3.43Z"/>
      <path id="KP" class="cls-1" d="M564.29,34.06l1.04,.82-1.64-.3-.75,1.64-.22,1.57,2.09,3.43-1.42,1.04-.22,.82-.67,1.42-2.16,.82-1.04,1.27,.97,2.01-.22,.52,1.94,.82,3.28,2.09v1.12l-1.49,.3-2.68,.3-.45,2.09-1.86-.15v.45l-2.39-.89-.07,.89-.97,.37-.52-.89-1.27-.45-1.42-.75,.07-2.09,.67-.6-.75-.82-.3-2.61-.67-.75-2.53-.52-2.53-1.27,1.57-3.06,2.91-2.53,.82-3.43,2.68,1.49,3.43,.22-2.09-2.53,4.77-2.01v-2.68l4.1,2.83h0Z"/>
      <path id="PS" class="cls-1" d="M204.94,81.7l.3,2.98-.45,1.42-1.86,.6,.07-1.27,.97-.67-1.12-.52,.52-3.13,1.57,.6h0Z"/>
      <path id="QA" class="cls-1" d="M273.38,118.9l-1.12,.37-1.34-.97-.6-3.5,.82-2.46,1.12-.52,1.34,1.49,.37,2.76-.6,2.83h0Z"/>
      <path id="RO" class="cls-1" d="M160.66,6.62l1.19,.52,1.34,1.34,1.49,1.94,2.53,2.83,.45,2.01-.15,2.01,.97,2.16,1.79,.89,1.71-.82,1.79,.82,.3,1.27-1.71,.97-1.19-.45-.3,5.74-2.31-.52-2.98-1.71-4.4,1.12-1.71,1.19-5.67-.3-2.98-.67-1.42,.3-1.34-1.94-.75-.82,.75-.82-.97-.52-1.12,1.04-2.31-1.42-.52-1.94-2.39-1.04-.6-1.57-2.24-1.79,2.91-.89,1.94-3.21,1.42-3.13,2.16-.97,1.49-1.04,2.39,.52h2.39l1.86,1.19,1.19-.75,2.68-.45,.75-1.12h1.57Z"/>
      <path id="RW" class="cls-1" d="M190.4,242.21l1.64,2.68-.22,2.83-1.19,.6-2.31-.3-1.27,2.76-2.61-.37,.45-2.68,.6-.37,.15-2.83,1.19-1.34,1.04,.52,2.53-1.49h0Z"/>
      <path id="EH" class="cls-1" d="M26.46,104.44l-.07,.3-.07,.89-.15,7.31-13.42-.3-.15,12.3-3.88,.37-1.12,2.46,.67,6.93H-7.91l-.97,1.57,.22-2.01h.07l9.32-.37,.52-1.71,1.79-2.16,1.49-6.64,5.89-5.14,2.01-6.04,1.34-.37,1.42-3.73,3.43-.52,1.49,.67h1.86l1.34-1.12,2.53-.15-.07-2.53h.67Z"/>
      <path id="SA" class="cls-1" d="M251.31,97.5l3.73,.45,1.27,2.31,2.91-.15,2.01,4.17,2.16,1.04,.89,1.71,2.98,2.01,.52,1.94-.3,1.64,.67,1.57,1.34,1.34,.67,1.57,.75,1.19,1.34,.97,1.12-.37,.97,1.86,.22,1.04,2.01,4.92,12.6,2.39,.75-1.04,2.24,3.43-1.94,9.54-12.15,4.77-11.85,1.86-3.73,2.16-2.61,5-1.94,.82-1.12-1.57-1.57,.22-4.1-.52-.82-.45-4.77,.07-1.12,.45-1.79-1.19-.97,2.31,.6,2.01-1.79,1.57-.67-2.09-1.34-1.42-.37-1.94-2.31-1.71-2.46-4.03-1.42-3.88-3.06-3.28-1.86-.82-3.06-4.55-.67-3.28v-2.83l-2.68-5.37-2.09-1.86-2.24-.97-1.57-2.76,.15-1.04-1.34-2.53-1.27-1.04-1.86-3.58-2.83-3.8-2.31-3.28h-2.01l.37-2.61,.07-1.71,.3-1.94,4.62,.82,1.57-1.49,.82-1.71,3.06-.67,.52-1.64,1.19-.75-4.47-4.85,7.75-2.39,.67-.75,5.07,1.34,6.41,3.35,12.52,9.62,7.6,.37h0Z"/>
      <path id="SD" class="cls-1" d="M214.41,167.73l-.52,4.1-1.49,4.77-2.46,2.31-1.71,3.73-.37,1.94-1.94,1.34-1.12,5v.6l-.6-.15,.07-2.39-.6-1.64-2.16-1.86-.67-3.43,.45-3.58-1.94-.3-.3,1.04-2.53,.3,1.12,1.34,.37,2.91-2.24,2.61-2.01,3.43-2.16,.52-3.58-2.76-1.57,.97-.37,1.34-2.16,.97-.15,.97h-4.17l-.6-.97-3.06-.22-1.49,.82-1.19-.37-2.16-2.83-.75-1.27-3.06,.67-1.12,2.16-.97,4.32-1.49,.89-1.27,.52-.37-.22-1.42-1.42-.3-1.49,.6-1.94v-2.01l-2.46-2.98-.52-2.01v-1.19l-1.57-1.42-.07-2.76-.97-1.86-1.42,.3,.37-1.79,1.04-1.94-.52-2.01,1.34-1.49-.89-1.12,.97-2.91,1.86-3.58,3.58,.37-.82-19.01v-2.01h4.77l-.37-9.54h49.13l1.57,4.7-.89,.82,.89,5,1.86,5.67,1.64,1.19,2.39,1.79-2.01,2.68-2.98,.82-1.27,1.49-.22,3.13-1.49,7.08,.52,1.86h0Z"/>
      <path id="SS" class="cls-1" d="M204.79,191.52l.15,3.73-.6,1.42-2.24,.15-1.42,2.68,2.61,.37,2.24,2.31,.75,1.94,1.94,1.12,2.61,5.22-2.83,3.13-2.53,2.83-2.61,2.24h-2.98l-3.35,1.12-2.68-1.12-1.71,1.34-3.8-3.21-1.04-2.01-2.31,.97-1.94-.3-1.12,.82-1.94-.6-2.61-3.95-.67-1.49-3.21-1.94-1.04-2.83-1.79-2.09-2.91-2.46-.07-1.57-2.31-1.94-2.91-1.86,1.27-.52,1.49-.89,.97-4.32,1.12-2.16,3.06-.67,.75,1.27,2.16,2.83,1.19,.37,1.49-.82,3.06,.22,.6,.97h4.17l.15-.97,2.16-.97,.37-1.34,1.57-.97,3.58,2.76,2.16-.52,2.01-3.43,2.24-2.61-.37-2.91-1.12-1.34,2.53-.3,.3-1.04,1.94,.3-.45,3.58,.67,3.43,2.16,1.86,.6,1.64-.07,2.39,.6,.15h0Z"/>
      <path id="SN" class="cls-1" d="M10.88,166.84l.15,2.98,.82,2.76,1.49,1.34,.37,1.79-.22,1.49-.6,.3-2.31-.37-.3,.52-.89,.07-3.06-1.12-2.01-.07-7.75-.22-1.12,.6-1.42-.15-2.24,.75-.6-3.65,3.8,.07,1.04-.67h.75l1.57-1.12,1.79,.97,1.79,.15,1.86-1.12-.82-1.34-1.42,.75H.29l-1.64-1.19-1.34,.07-.97,1.19-4.55,.07-1.71-3.73-2.01-1.64,1.86-.97,2.09-3.35,1.04-2.46,1.49-1.49,2.01,.37,2.09-1.04H.96l2.01,1.34,2.68,1.27,2.53,3.58,2.68,3.28h0Z"/>
      <path id="SL" class="cls-1" d="M18.71,196.59l-1.94,2.24-1.94,2.53-.22,1.42-1.04,1.57-1.12-.37-2.98-1.94-2.24-2.53-.67-1.79-.52-3.5,2.31-2.16,.45-1.27,.75-1.04,1.19-.15,.97-.89h3.35l1.19,1.71,.89,2.01-.15,1.42,.67,1.27-.07,1.71,1.12-.22h0Z"/>
      <path id="RS" class="cls-1" d="M148.06,25.34l-.82,1.04,.52,1.79,2.09,2.01-1.34,1.49-.45,1.49,.45,.6-.52,.6-1.79,.15-1.27,.22-.22-.37,.45-.52,.3-1.19-.52,.07-.82-.89-.67-.22-.6-.75-.75-.3-.6-.67-.67,.3-.37,1.57-.89,.3,.3-.37-1.57-.97-1.27-.52-.67-.67-1.04-.82,.82-.22,.37-2.16-2.01-1.86,.82-2.09-1.42,.07,1.27-1.79-1.27-1.34-1.12-1.86,2.76-1.19,2.39,.22,2.24,1.79,.6,1.57,2.39,1.04,.52,1.94,2.31,1.42,1.12-1.04,.97,.52-.75,.82,.75,.82h0Z"/>
      <path id="SK" class="cls-1" d="M145.15,2.6l-.89,1.27-.52,1.86-.75,.45-4.1-1.42-1.19,.3-.75,1.12-1.71,.6-.45-.3-1.71,.67-1.42,.15-.22,.97-3.06,.52-1.42-.45-2.01-1.27-.52-1.57,.22-.6,.45-1.04,1.64,.07,1.19-.45,.07-.45,.67-.22,.15-1.04,.82-.22,.52-.82h1.12l.22,.3,1.42-.67,2.01,1.64,2.09-.97,1.79,.45,2.61-.67,3.73,1.79h0Z"/>
      <path id="SI" class="cls-1" d="M124.05,14.68l-2.91,1.27-.22,1.86-1.27,.52,.07,1.27-1.49-.07-1.34-.75-.6,.75-2.68-.15,.82-.37-1.04-2.01,.3-2.31,3.13,.37,1.79-1.12,3.28-.07,.67-.82,.6,.07,.89,1.57h0Z"/>
      <path id="SZ" class="cls-1" d="M192.57,360.45l.45,2.16,.22,2.16-1.04,2.09-2.39,.52-2.31-2.61,.07-1.64,1.27-1.79,.45-1.42,1.27-.3,2.01,.82h0Z"/>
      <path id="SY" class="cls-1" d="M217.39,77l-7.23,5.14-4.7-1.94h-.07l.45-.75-.3-1.94,.67-2.61,2.01-1.86-.89-1.86-1.86-.22-.82-3.65,.75-2.01,.97-1.04,.89-1.04-.15-2.61,1.42,.89,4.17-1.34,2.24,.89h3.28l4.25-1.79,2.16,.07,4.4-.75-1.57,2.98-2.01,1.19,.89,3.5-.75,5.74-8.2,5h0Z"/>
      <path id="TD" class="cls-1" d="M160.88,143.06l.82,19.01-3.58-.37-1.86,3.58-.97,2.91,.89,1.12-1.34,1.49,.52,2.01-1.04,1.94-.37,1.79,1.42-.3,.97,1.86,.07,2.76,1.57,1.42v1.19l-2.68,.82-2.09,1.94-2.98,5.22-3.88,2.24-4.1-.3-1.19,.45,.45,1.64-2.16,1.71-1.79,1.86-5.29,1.79-1.04-1.04-.75-.15-.75,1.27-3.43,.37,.6-1.34-1.34-3.28-.6-1.94-1.86-.82-2.53-2.83,.89-2.24,1.94,.45,1.19-.3h2.39l-2.39-4.32,.15-3.21-.37-3.13-1.71-3.06,.45-2.31-2.76-.07v-3.06l-1.79-1.79,1.71-6.34,5.22-4.47,.15-6.26,1.34-9.69,.89-2.09-1.79-1.64-.07-1.49-1.64-1.27-1.19-7.46,4.1-2.61,16.77,9.17,16.85,9.17h0Z"/>
      <path id="TG" class="cls-1" d="M65.6,184.13l-.52,2.53,1.27,1.42,1.49,1.64,.15,2.39,.89,.97-.22,11.03,1.04,3.28-3.35,1.04-.97-1.71-1.12-3.06-.37-2.39,.97-4.25-1.04-1.79-.45-3.73v-3.5l-1.71-2.46,.3-1.49,3.65,.07h0Z"/>
      <path id="TH" class="cls-1" d="M502.56,168.48l-3.95-.67-5.29,.89-2.31,3.95,1.57,5.82-3.95-2.24-3.58,.15,.22-3.8h-3.65l.15,5.29-1.64,7.01-1.04,4.25,.52,3.43,2.76,.15,2.01,4.4,.97,4.1,2.53,2.76,2.53,.52,2.31,2.53-1.27,1.94-2.76,.6-.45-2.46-3.58-2.09-.67,.82-1.71-1.79-.89-2.39-2.39-2.68-2.16-2.31-.52,2.83-.97-2.68,.3-2.98,.89-4.55,1.64-4.92,1.94-4.47-2.01-4.4-.15-2.24-.75-2.68-3.21-3.8-1.34-2.39,1.34-.89,1.04-4.1-2.16-3.21-3.06-3.5-2.61-4.17,1.64-.89,1.12-5.14,2.91-.22,2.09-2.09,2.24-1.12,2.01,1.49,.67,2.91,2.83,.22-.3,5,.75,4.32,3.95-2.83,1.42,.82,2.39-.15,.6-1.64,3.21,.3,3.73,3.88,.97,4.77,3.95,4.17,.3,4.03-1.12,2.16h0Z"/>
      <path id="TJ" class="cls-1" d="M338.17,44.27l-1.04,1.42-4.47-.75,.45,2.68,4.1-.37,5.29,1.57,7.16-.75,2.31,4.47,1.12-.52,2.76,1.12,.37,1.86,1.34,2.68h-4.03l-2.83-.37-1.86,2.16-1.64,.45-1.12,1.04-2.01-1.57-.67-4.03-1.27-.22,.07-1.49-2.46-1.04-1.27,1.64,.15,1.94-.45,.67-2.39-.07-.67,2.16-1.57-.89-2.53,1.49-1.34-.52,.97-4.85-1.79-3.58-3.13-1.12,.45-2.09,3.28,.22,1.12-2.61,.37-3.06,4.85-1.12-.15,2.24,.97,1.27,1.57-.07h0Z"/>
      <path id="TM" class="cls-1" d="M324.23,57.99l-1.19-.15-2.16-1.27-.22,1.64-3.13,.97,.15,3.8-1.94,1.49-2.98,.67-.3,2.16-2.91,.67-4.4-1.86-1.27-3.95-2.98-.22-5.44-4.17-3.21-.52-4.92-2.46-2.91-.45-1.49,.89-2.68-.15-2.24,2.76-3.28,.89-1.42-3.35-.45-5-3.43-1.64,.3-3.21-2.61-.3-.07-4.03,3.95,1.19,3.06-1.49-3.5-2.91-1.79-2.68-2.83,1.19,.45,3.5-1.94-3.06,1.34-1.64,4.17-.97,2.91,1.34,3.58,3.73,1.94-.22,4.4-.07-1.27-2.39,2.83-1.64,2.53-2.76,5.89,2.53,1.42,3.73,1.71,.97,4.1-.22,1.57,.89,3.21,4.92,5.29,3.28,3.13,2.24,4.7,2.31,5.74,2.09,.6,2.91h0Z"/>
      <path id="TL" class="cls-1" d="M588.44,281.72l.07-1.42-.37-.97,.6-1.12,3.65-1.04,2.98-.22,1.34-.6,1.57,.6-1.64,1.34-4.55,2.09-3.65,1.34h0Z"/>
      <path id="TN" class="cls-1" d="M107.95,78.2l-.07,3.65-1.94,1.34-1.19,1.57-2.68,1.86,.45,1.94-.3,2.09-1.94,1.04-1.94-8.57-2.53-1.94-.07-1.12-3.35-2.91-.45-3.58,2.39-2.68,.82-3.95-.75-4.55,.75-2.46,4.25-1.86,2.76,.52v2.46l3.28-1.79,.3,.89-1.86,2.39,.07,2.16,1.42,1.19-.37,4.17-2.61,2.39,.89,2.61,2.09,.07,1.04,2.31,1.57,.75h0Z"/>
      <path class="cls-1" d="M222.39,38.09l4.1-.22,4.18,2.39,.97,1.64,.07,2.31,3.13,1.19,1.79,1.34-2.46,1.42,2.16,5.44-.52,1.49,2.83,3.8-1.79,.82-1.57-1.19-4.7-.67-1.57,.75-4.4,.75-2.16-.07-4.25,1.79h-3.28l-2.24-.89-4.17,1.34-1.42-.89,.15,2.61-.89,1.04-.97,1.04-1.71-2.16,1.27-1.79-2.39,.45-3.43-1.12-2.39,2.76-5.96,.52-3.5-2.53-4.25-.15-.75,1.94-2.68,.6-4.03-2.53-4.32,.07-2.83-4.77-3.13-2.61,1.49-3.73-2.68-2.31,3.8-4.55,5.96-.15,1.19-3.65,7.46,.67,4.18-3.06,4.32-1.34,6.34-.15,7.31,3.35,5.89,1.86,4.32-.75,3.43,.45,4.1-2.53Z"/>
      <path class="cls-1" d="M162.89,41.52l.89-.52,.82-2.98-2.01-1.27,3.73-1.49,3.43,.6,.67,1.86,3.58,1.49-.52,1.19-4.62,.22-1.49,1.49-2.91,2.53-1.49-2.16-.07-.97Z"/>
      <path id="TW" class="cls-1" d="M562.5,127.7l-1.04,3.95-2.98-4.1-1.12-3.5,1.42-4.7,2.46-3.65,2.24,1.42-.07,2.91-.89,7.68h0Z"/>
      <path id="TZ" class="cls-1" d="M196.52,241.69l-.15,2.91-.82,3.35,1.19,1.86,1.86-1.12,2.46-.3,.52,.6,2.46-1.19-1.71-1.64,1.42-2.16,2.09-2.16,15.28,9.77,.22,2.76,6.04,4.77-2.09,5.96,.22,2.68,2.61,1.71,.15,1.27-1.27,2.91,.22,1.42-.3,2.31,1.34,2.98,1.64,4.77,1.49,1.04-3.43,2.76-4.62,1.86-2.53-.07-1.57,1.42-2.91,.15-1.12,.6-5-1.34-1.64,.15,.07-.07-1.34-1.79-.22-5.07-2.16-2.53-.3,.89-.75-1.27-4.1-.89-2.39-1.42-2.68-.82-1.64-.82-.22-.15-2.01-4.92-.3-2.91-3.35-3.28,1.04-1.79-.82-1.94,.15-2.01-.75-.67,.22-2.09,.45-.07,1.49-1.71,1.71-2.53,1.04-.97v-1.57l-.89-1.12-.22-1.86,1.19-.6,.22-2.83-1.64-2.68,1.49-.6,4.62,.07h0Z"/>
      <path id="UG" class="cls-1" d="M205.46,216.42l2.01,3.35,.52,2.39,1.94,5.52-1.57,3.5-2.09,3.13-1.19,1.94v.22l-.15-.3-2.24-.97-1.79,1.19-2.68,.67-1.94,2.76,.22,1.86-4.62-.07-1.49,.6-2.53,1.49-1.04-.52,.07-3.58,.97-1.86,.22-3.8,.89-2.24,1.64-2.46,1.57-1.34,1.42-1.64-1.71-.67,.22-5.59,1.71-1.34,2.68,1.12,3.35-1.12h2.98l2.61-2.24h0Z"/>
      <path id="UA" class="cls-1" d="M189.21-7.17l1.71,2.01,.07,.89,5,1.64,2.68-.75,2.68,2.16,2.16-.07,5.74,1.49,.3,1.42-.97,2.39,1.34,2.61-.22,1.57-3.58,.3-1.64,1.34,.3,2.01-2.91,.37-2.24,1.57-3.43,.22-2.98,1.79,.75,2.91,2.09,1.12,3.8-.3-.45,1.71-4.03,.82-4.7,2.68-2.31-.97,.52-2.16-4.4-1.42,.52-.89,3.43-1.57-1.27-1.04-6.04-1.19-.6-1.79-3.35,.6-.97,2.61-2.46,3.43-1.79-.82-1.71,.82-1.79-.89,.89-.52,.45-1.57,.82-1.57-.45-.82,.75-.37,.45,.67,2.24,.15,.97-.37-.75-.45,.15-.75-1.49-1.19-.82-1.94-1.49-.75,.07-1.57-1.94-1.27-1.49-.22-2.98-1.42-2.39,.45-.82,.67h-1.57l-.75,1.12-2.68,.45-1.19,.75-1.86-1.19h-2.39l-2.39-.52-1.49,1.04-.37-1.27-2.24-1.27,.52-1.86,.89-1.27,.82,.3-1.19-2.09,2.83-3.88,1.71-.52,.22-1.27-2.39-4.03,1.71-.22,1.79-1.19,2.83-.15,3.65,.37,4.25,1.12,2.91,.07,1.42,.67,1.27-.82,1.12,1.12,3.21-.22,1.57,.45-.22-2.31,.97-1.04,3.06-.22,1.34,.15,.75-1.04,1.12,.22,3.65-.45,2.83,2.61-.67,.97,.6,1.42,2.91,.22h0Z"/>
      <path id="UZ" class="cls-1" d="M334.96,34.66l1.27,.45-2.24,3.06,3.43,1.79,2.39-1.19,5.37,2.53-3.95,3.43-3.06-.45-1.57,.07-.97-1.27,.15-2.24-4.85,1.12-.37,3.06-1.12,2.61-3.28-.22-.45,2.09,3.13,1.12,1.79,3.58-.97,4.85-3.21-1.04h-2.24l-.6-2.91-5.74-2.09-4.7-2.31-3.13-2.24-5.29-3.28-3.21-4.92-1.57-.89-4.1,.22-1.71-.97-1.42-3.73-5.89-2.53-2.53,2.76-2.83,1.64,1.27,2.39-4.4,.07-4.62-17.45,8.95-2.76,.82,.37,6.86,3.35,3.58,1.79,4.92,4.25,4.25-.67,6.41-.37,5.67,3.43,1.12,4.77,1.94,.07,1.86,3.88,5,.15,1.71,2.24h1.49l.67-3.43,4.03-3.28,1.94-.89h0Z"/>
      <path id="VN" class="cls-1" d="M509.27,133.66l-4.85,4.03-2.76,4.55-.45,3.35,3.95,5,4.85,6.26,4.25,2.98,3.06,3.8,2.98,8.87,.3,8.42-3.21,3.13-4.55,3.13-3.13,3.95-4.92,4.47-1.71-3.06,.89-3.28-3.28-2.68,3.43-1.94,4.4-.37-2.09-2.83,6.71-3.73-.07-5.74-1.34-3.21,.15-4.77-1.49-3.35-3.65-3.35-3.28-4.17-4.25-5.67-5.44-2.91,.89-1.71,2.46-1.27-2.24-4.17h-5.07l-2.61-4.32-2.98-3.8,2.01-1.19,3.28,.07,3.95-.6,3.06-2.53,2.31,1.79,3.95,.89-.22,2.76,2.31,1.94,4.4,1.27h0Z"/>
      <path id="YE" class="cls-1" d="M283.59,157.07l-2.98,1.27-.67,2.16v1.64l-4.03,2.01-6.56,2.24-3.5,3.35-1.86,.3-1.27-.3-2.39,2.01-2.61,.89-3.5,.22-1.04,.3-.82,1.27-1.12,.37-.6,1.19-2.09-.15-1.27,.67-2.98-.22-1.19-2.83v-2.61l-.75-1.42-.97-3.5-1.34-1.94,.82-.3-.52-2.16,.45-.89-.3-2.09,1.79-1.57-.6-2.01,.97-2.31,1.79,1.19,1.12-.45,4.77-.07,.82,.45,4.1,.52,1.57-.22,1.12,1.57,1.94-.82,2.61-5,3.73-2.16,11.85-1.86,3.88,7.9,1.64,3.35h0Z"/>
      <path id="ZM" class="cls-1" d="M192.86,277.77l.22,.15,1.64,.82,2.68,.82,2.39,1.42,1.94,2.16,.97,4.03-.75,1.27-.97,3.88,.67,4.03-1.34,1.64-1.49,4.47,2.16,1.19-12.82,3.95,.3,3.43-3.21,.67-2.46,1.86-.6,1.64-1.49,.45-3.8,3.88-2.39,3.13-1.42,.07-1.34-.52-4.62-.52-.75-.37v-.37l-1.64-1.12-2.68-.22-3.43,1.04-2.68-2.98-2.68-3.88,.6-15.28,8.72,.07-.3-1.64,.67-1.79-.67-2.24,.52-2.31-.45-1.49,1.42,.07,.22,1.49,2.01-.07,2.61,.45,1.42,2.16,3.28,.67,2.61-1.49,.89,2.46,3.21,.67,1.49,2.09,1.64,2.61h3.21l-.15-5.14-1.19,.89-2.91-1.86-1.12-.89,.67-4.77,.82-5.67-.89-2.09,1.27-3.06,1.12-.6,5.74-.82,.67,.22-.22,1.04,1.42,.37,.89,.97,.75-.22-.37-.82h0Z"/>
      <path id="ZW" class="cls-1" d="M190.85,343.31l-2.16-.52-1.42,.6-2.01-.82h-1.64l-2.53-2.16-3.21-.75-1.12-3.06,.07-1.71-1.71-.52-4.55-5.22-1.19-2.76-.82-.89-1.42-3.8,4.62,.52,1.34,.52,1.42-.07,2.39-3.13,3.8-3.88,1.49-.45,.6-1.64,2.46-1.86,3.21-.67,.15,1.79,3.5-.07,1.94,.97,.82,1.19,2.01,.37,2.09,1.49-.3,6.11-.97,3.28-.3,3.58,.6,1.42-.67,2.83-.6,.45-1.27,3.43-4.62,5.44h0Z"/>
      <path id="SO" class="cls-1" d="M237.6,244.82l-2.46-3.95-.15-17.45,3.65-5.37,1.12-1.57,2.68-.07,3.73-3.35,5.44-.22,11.63-14.39-3.58,.07-13.94-5.67-1.64-1.71-1.64-2.31-1.64-2.68,.89-1.64,1.42-2.61,1.42,.89,.89,2.01,2.01,2.01h2.09l3.88-1.27,4.55-.52,3.65-1.49,2.09-.3,1.49-.89,2.39-.15,1.34-.15,1.86-.67,2.24-.52,1.86-1.64h1.64l.15,1.34-.3,2.76,.15,2.53-.82,1.71-1.04,5.22-1.79,5.29-2.46,6.11-3.43,7.01-3.5,5.37-4.92,6.56-4.17,3.88-6.26,4.77-3.95,3.58-4.62,5.82-.97,2.53-.97,1.12h0Z"/>
      <path id="XK" class="cls-1" d="M144.93,34.73l-.89,.22-2.16,.75-.07,.97-.52-.07-.45-1.71-.97-.52-.89-1.27,.6-1.04,.89-.3,.37-1.57,.67-.3,.6,.67,.75,.3,.6,.75,.67,.22,.82,.89,.52-.07-.3,1.19-.45,.52,.22,.37h0Z"/>
      <path id="ZA" class="cls-1" d="M190.85,343.31l1.64,6.71,.82,3.43-1.04,5.29,.3,1.71-2.01-.82-1.27,.3-.45,1.42-1.27,1.79-.07,1.64,2.31,2.61,2.39-.52,1.04-2.09h3.06l-1.27,3.5-.75,3.95-1.27,2.16-2.98,2.46-.82,.67-1.94,2.46-1.34,2.46-2.61,3.43-5,4.92-3.06,2.83-3.21,2.24-4.4,1.79-2.01,.3-.67,1.34-2.39-.75-2.01,.89-4.25-.89-2.46,.6-1.64-.3-4.32,1.94-3.43,.75-2.61,1.79-1.79,.15-1.57-1.71-1.34-.07-1.64-2.16-.22,.67-.45-1.27,.22-2.83-1.12-3.21,1.34-.89,.07-3.65-2.46-4.47-1.79-4.03v-.07l-2.68-6.19,2.09-2.39,1.49,1.34,.6,2.01,1.86,.37,2.53,.89,2.16-.37,3.73-2.46,.82-17.67,1.04,.75,2.24,4.55-.45,2.91,.82,1.71,2.98-.52,2.09-2.16,2.01-1.42,1.12-2.31,2.09-1.04,1.71,.52,1.86,1.34,3.35,.22,2.68-1.04,.45-1.49,.89-2.31,2.24-.37,1.34-1.79,1.49-3.21,3.88-3.58,6.04-3.5h1.64l2.01,.82,1.42-.6,2.16,.52h0Zm-15.13,39.66l.82-1.49,2.31-.75,.82-1.57,1.42-2.31-1.27-1.49-1.64-1.49-2.01,1.04-2.31,1.86-2.39,2.98,2.76,3.73,1.49-.52h0Z"/>
      <path id="PT" class="cls-1" d="M32.43,59.26l-1.64,1.19-2.09-.67-2.01,.52,.67-3.73-.22-2.91-1.79-.45-.82-1.79,.37-3.13,1.64-1.71,.37-1.94,.89-2.83v-2.01l-.67-1.71-.15-1.64,1.42-1.19,1.64-.67,.89,2.31h2.24l.67-.6,2.31,.15,.97,2.39-1.79,1.27-.22,3.73-.6,.67-.22,2.31-1.71,.37,1.49,2.83-1.19,3.13,1.34,1.42-.6,1.27-1.49,1.79,.3,1.64h0Z"/>
      <path class="cls-1" d="M586.05-5.08l10.21,8.2-6.64-1.49,2.76,6.71,7.16,4.77,2.24,3.28-4.85-2.83,.07,3.65-3.5-3.95-2.83-4.55-4.17-5-1.79-3.58-4.77-6.11-5.96-4.55-5.07-6.26,1.42-2.09-3.28-2.09,.97-.67,3.65,2.98,5.14,4.4,3.88,4.55,5.37,4.62Z"/>
      <path class="cls-1" d="M565.33,34.88l-1.04-.82-1.42-2.46,1.86-.07-2.91-5.59-3.5-4.03,2.16-1.64,5.14,.82-.45-4.62-2.09-5.07,.22-1.71-.97-4.25-5.14,1.42-1.94,1.79h-5.67l-4.47-4.32-6.71-3.35-7.46-1.49-4.62-4.47-3.35-2.83-2.83-2.01-5.74-4.62-4.47-1.64-6.41-1.42-4.62,.15-3.8,.82-1.27,2.31,2.76,1.04,1.86,2.53-.97,1.49,.15,4.85,1.42,2.09-3.28,2.91-5.52-1.79-4.17,.45-2.91-1.57-2.53-.52-3.28,3.28-4.4,.75-2.68,1.19-5.07-.75h-3.43l-3.65-2.39-4.92-2.16-4.03-.67-4.25,.6-2.98,.89-6.34-1.94-2.68-3.43-5-1.19-3.58-.6-5.22-1.86-.97,4.77,2.98,2.68-1.79,3.28-5.96-1.19-3.73-.15-3.58-2.16-3.88-.07-3.95-1.42-4.4,2.16-5,3.95-3.5,.82-1.27,.37-3.28-2.83-4.47,.67-2.46-2.01-2.98-.89-3.06-2.68-2.46-.82-4.62,1.19-6.26-2.61-.82,2.39-13.64-11.63-6.26-3.5,.6-1.49-6.86,4.32-3.28,.22-.82-2.46-5.29-1.57-3.21,1.12-3.28-4.7-6.78-.97-2.31,1.86-8.13,1.71-1.27,1.12-12.67,1.57-1.04,1.57,3.8,3.13-2.98,1.19,1.12,1.19-2.61,2.24,7.01,3.21-.15,2.16-5.22-.22-.6,1.42-5.44-2.39-5.74,.07-3.28,1.94-4.92-1.86-8.95-3.21-5.67,.15-6.04,5,.45,3.35-4.47-2.68-1.64,5.14,1.34,.89-1.27,3.58,3.95,3.13,2.68-.15,3.21,3.13,.15,2.39,2.09,.82-1.04,2.76-3.43,.75-2.68,4.85,4.47,4.55,.3,3.13,5.44,5.59-1.86,1.94-.45,1.19-1.79-.37-3.21-2.83-1.12-.15-2.68-1.12-1.57-1.94-3.8-.97-2.16,.75-.89-.89-5.67-2.31-5.74-.75-3.43-.82-.3,.6-5.67-4.03-4.62-1.79-3.8-2.76,2.68-.75,2.39-3.88-2.46-1.86,5.14-1.94-.3-1.04-3.21,.75-.3-2.01,1.64-1.34,3.58-.3,.22-1.57-1.34-2.61,.97-2.39-.3-1.42-5.74-1.49-2.16,.07-2.68-2.16-2.68,.75-5-1.64-.07-.89-1.71-2.01-2.91-.22-.6-1.42,.67-.97-2.83-2.61-3.65,.45-1.12-.22-.75,1.04-1.34-.15-1.49-2.98-1.12-1.49,.6-.45,2.91,.15,1.19-.97-1.27-1.19-2.53-.82v-.82l-1.57-.82-2.83-2.98,.52-1.19-.82-2.16-3.58-1.04-1.79,.52-.67-1.12-3.95-1.12-1.57-2.68-.75-2.16-1.86-.97,1.19-1.42-1.79-4.17,1.94-2.53-.67-.75,3.35-2.46-4.03-2.09,5.96-5.52,2.53-2.53,.67-2.16-5.52-2.91,.67-2.83-3.65-3.13,1.27-3.58-4.85-4.7,2.16-3.13-5.44-2.76-.3-2.83,2.39-.37,4.77-1.57,2.76-1.42,5.74,2.39,8.72,.97,13.2,4.62,3.06,1.94,1.12,2.76-2.76,2.16-4.85,1.12-15.06-3.13-2.16,.52,6.04,3.06,.75,1.94,1.42,4.32,4.55,1.27,2.83,1.12-.15-2.09-2.53-1.79,1.57-1.64,8.65,2.68,2.39-1.04-3.21-3.13,6.04-4.03,3.06,.22,3.43,1.42,.82-2.83-3.5-2.46,.6-2.46-3.21-2.53,9.17,1.34,2.68,2.24-3.8,.52,.89,2.31,3.06,1.42,4.47-.89-.3-2.61,5.74-2.01,9.24-3.43,2.39,.15-1.86,2.46,4.03,.45,1.57-1.42,5.74-.07,3.73-1.71,4.77,2.46,2.09-2.68-4.47-2.31,.89-1.34,9.69,1.19,4.92,1.27,13.87,4.62,.82-2.09-4.4-2.16-.6-.82-3.95-.45-.15-1.86-3.5-3.13-.82-1.27,3.21-3.5-.45-3.58,1.64-.75,8.5,1.04,2.16,2.16-.67,3.13,2.76,1.27,2.83,2.76,2.83,5.52,5,2.46,.37,2.76-2.61,5.82,3.95,.6,.37-1.49,2.83-1.04-.37-2.01,1.42-2.01-3.28-2.31-.3-2.68-3.58-.3-2.16-2.24-.3-4.03-6.11-3.21,3.5-2.61-2.76-2.76,1.42-.07,3.13,2.09,1.57,3.8,3.73,.75-3.43-2.83,3.8-1.57,6.04-.22,7.16,2.24-5.14-3.21-3.65-4.1,4.4-.75,7.08,.15,5.82-.52-4.18-1.94,.97-2.46,3.13-.15,3.65-1.79,6.93-.52-.15-1.04,6.93-.3,3.21,.82,4.03-1.94,5.22,.07-1.12-1.64,.67-1.49,4.62-1.49,6.19,1.19-2.61,.89,7.01,.52,3.06,1.79,1.42-.89,8.13,.07,8.65,1.79,4.1,1.34,1.86,1.94-1.79,1.12-4.92,2.09-.82,1.12,4.17,.52,5.37,.97,1.79-.75,4.32,2.46,.15-.97,3.88-.6,10.14,.6,2.83,1.79,12.97,.6-3.58-2.91,7.08,.67,4.55-.07,7.38,2.01,4.47,2.46,.3,1.64,7.53,3.13,6.71,1.57-2.24-4.1,7.01,1.71,3.73-1.04,7.31,1.19,.75-1.04,5.67,.52-7.01-3.65,1.57-1.64,30.12,2.53,5.89,2.31,12.15,2.98,11.03-.75,6.93,.67,4.92,1.64,3.8,2.91,5.44,1.12,2.91-.82,5.22-.07,6.93,.75,5.14-.45,10.66,3.58,1.86-1.27-6.34-2.53-1.34-1.79,11.41,1.12,5.96-.22,11.78,1.86,7.08,1.79,24.75,16.48-1.49,1.86-4.62-.3,6.11,2.24,6.78,3.5,3.13,1.12,2.83,1.79,.75,1.12-7.46-.89-4.92,3.21-2.24,.52-1.19,3.06-1.49,2.68,1.27,2.01-8.57-3.06-4.55,3.43-3.5-1.64-1.04,1.94-5.22-.67,2.31,2.91,.82,4.32,2.16,1.79,5.07,.97,6.78,6.49-3.06,.22,2.53,3.73,3.5,1.94-3.73,2.31,4.03,5.22-4.25,1.12,3.35,4.62-1.27,4.32-4.25-3.21-7.83-6.64-12.08-10.14-4.85-6.19,.07-2.68-2.09-2.09,4.25-.97-.15-5.59,.52-4.47,1.86-3.5-4.92-6.11-3.5,.37,2.39,3.58-2.68,4.77-9.17-5.37-6.78,1.49v7.31l5.74,2.68-6.34,1.19-4.77,.45-3.21-3.21-5.96-.67-1.86,2.16-11.26-.75-9.84,1.27-2.61,8.72-3.73,10.59,6.11,.6,4.25,2.83,4.32,.97,.3-2.24,4.17,.3,9.54,5,3.5,3.88,1.04,4.62,4.1,5.52,3.95,7.38-.75,6.78,.97,3.21-1.49,5.52-1.57,5.44-.67,2.76-3.43,2.76-2.31,.07-3.88-2.31-3.06,3.5,.37,1.57Z"/>
      <path id="ES" class="cls-1" d="M54.57,29.21l1.49,1.79,7.08,2.16,1.42-1.04,4.32,2.16,4.4-.6,.3,2.76-3.65,3.13-4.92,1.04-.37,1.57-2.39,2.61-1.49,3.88,1.49,2.76-2.24,2.09-.89,3.13-2.98,.97-2.76,3.65-5.07,.07-3.73-.07-2.53,1.64-1.57,1.79-1.94-.37-1.42-1.64-1.04-2.68-3.65-.75-.3-1.64,1.49-1.79,.6-1.27-1.34-1.42,1.19-3.13-1.49-2.83,1.71-.37,.22-2.31,.6-.67,.22-3.73,1.79-1.27-.97-2.39-2.31-.15-.67,.6h-2.24l-.89-2.31-1.64,.67-1.42,1.19,.37-3.35-1.49-2.01,5.52-3.43,4.62,.82h5.14l4.03,.82,3.21-.3,6.19,.22h0Z"/>
      <path class="cls-1" d="M98.63,35.18l-1.12,3.65-1.79-.97-.97-3.13,.67-1.79,2.39-1.79,.82,4.03Z"/>
      <path class="cls-1" d="M82.75,.59l.82,.37,1.04-.07,1.79,1.19,5.37,.89-1.79,3.13-.3,3.35-.97,.82-1.71-.45,.15,1.19-2.68,2.61v2.16l1.79-.75,1.34,2.01-.07,1.34,1.12,1.79-1.27,1.42,1.12,3.65,2.09,.6-.37,2.01-3.35,2.68-7.6-1.27-5.52,1.57-.45,2.83-4.4,.6-4.32-2.16-1.42,1.04-7.08-2.16-1.49-1.79,2.01-2.83,.75-9.39-3.8-4.92-2.76-2.39-5.67-1.79-.3-3.43,4.85-.97,6.19,1.19-1.12-5.29,3.5,2.01,8.5-3.58,1.12-3.8,3.13-.97,.6,1.64,1.64,.07,1.79,1.86,2.61,2.16,1.86-.37,3.28,2.16Z"/>
      <path id="BH" class="cls-1" d="M268.91,111.15l.22,.07,.15-.07,.3,.52-.07,.15,.07,.67v.52l-.15,.3-.07-.3-.45-.6,.07-.3-.15-.52v-.3l.07-.15h0Z"/>
      <path class="cls-1" d="M245.87,296.04l-.67-.07-.15-.3v-.22l.37,.07,.52,.37-.07,.15Z"/>
      <path class="cls-1" d="M248.63,294.62l.15,.75v.52l-.07,.15-.15-.22-.3-.22-.07-.15-.22-.07-.45-.3,.07-.07,.37,.15,.22-.07,.15-.3v-.15l.22-.07,.07,.07Z"/>
      <path class="cls-1" d="M244.38,293.88l-.37-.3-.22-.07-.22-.15-.15-.45,.07-.22v-.15l.15-.89-.07-.07,.15-.3,.37-.07,.15,.22-.15,.89,.07,.22,.15,.3,.07,.37,.15,.45-.15,.22Z"/>
      <path class="cls-1" d="M197.41,68.95l.07,.15,.22,.3-.3-.07h-.22l-.3,.15-.22-.22v-.22l.22-.07,.15,.07,.37-.07Z"/>
      <path class="cls-1" d="M196.14,69.32v.07l-.15,.15-.07,.45-.07,.15h-.22l-.15,.15-.37,.15-.15,.07-.45,.22-.3-.07-.37,.07-.22,.3-.15-.22-.22,.07h-.15l-.22-.22-.3,.22h-.37l-.37-.15-.37-.07-.3-.22-.22-.45-.22-.22-.15-.52-.15-.22,.07-.22,.37,.22,.3-.07,.15-.22,.07-.22,.22-.07,.15,.07,.15-.15h.15l.07,.3,.37,.15,.07,.15h.45l.45-.37,.3,.07,.22-.15,.22,.07,.3,.15,.15-.22h.22l.22,.3v.45l.22-.15,.22,.15,.07-.07,.52,.15Z"/>
      <path class="cls-1" d="M750,211.35l-.15,.22-.37-.07v-.15l.37-.3,.15,.3Z"/>
      <path class="cls-1" d="M728.97,203.44h.3l.22,.15,.07,.3-.15,.07,.07,.15-.07,.15h-.45l-.15-.15v-.15l-.15-.22v-.22l.3-.07Z"/>
      <path class="cls-1" d="M643.46,191.07l.07,.22h-.22l-.22,.37-.07-.07,.22-.6,.3-.07-.07,.15Z"/>
      <path id="GU" class="cls-1" d="M669.03,172.43l-.07,.3v.45l-.07,.22h-.22l-.15-.22-.07-.37v-.37l.45-.37,.07-.15,.07-.37,.15-.07,.07,.15,.3,.07-.15,.37-.37,.37Z"/>
      <path id="MV" class="cls-1" d="M372.39,216.64v.15l-.15-.07,.15-.15v.07Z"/>
      <path id="MH" class="cls-1" d="M783.1,202.62l.75,.3h-.15l-.6-.3Z"/>
      <path class="cls-1" d="M119.65,65.22l-.15,.22-.37-.15-.37-.22v-.37l-.07-.07h.45l.3,.22,.15,.15,.07,.22Z"/>
      <path class="cls-1" d="M118.46,64.4l-.37-.07v-.15l.3-.07,.3,.22-.22,.07Z"/>
      <path class="cls-1" d="M670.3,169.15l-.07,.07-.15-.07-.07-.15,.37-.15,.15,.15-.22,.15Z"/>
      <path class="cls-1" d="M671.42,165.35h-.15l-.22-.45,.07-.22h.22v.22l.15,.15-.07,.3Z"/>
      <path class="cls-1" d="M671.79,164.15l-.15,.15,.07,.22h-.3v-.52l.07-.15,.3-.15-.07,.37,.07,.07Z"/>
      <path class="cls-1" d="M670.37,158.56h-.22l-.07-.15h.3v.15Z"/>
      <path class="cls-1" d="M668.96,150.36l-.07-.15v-.37l.22-.07,.15,.22-.3,.37Z"/>
      <path class="cls-1" d="M668.06,147.16l-.3-.07v-.22l.15-.07,.15,.15v.22Z"/>
      <path class="cls-1" d="M301.41,332.94l.3,.67-.15,.45-.3,.3,.07,.22-.22,.22-.37,.15h-.37l-.45-.07-.07,.07-.22-.22,.15-.15,.07-.3,.07-.52,.15-.3,.37-.3,.07-.15,.15-.37,.3-.22,.3,.07,.15,.45Z"/>
      <path class="cls-1" d="M325.12,331.38l-.22-.22,.3-.15,.22-.07,.15,.07-.07,.15-.37,.22Z"/>
      <path class="cls-1" d="M754.32,344.95l-.15,.07-.15,.3-.3-.15,.15-.37,.07-.15,.22,.07,.15,.22Z"/>
      <path class="cls-1" d="M757.6,339.13l-.07,.07,.15,.3h.22l.3-.15-.07,.45-.15,.15-.07,.3-.37,.22-.3-.15v-.07l-.22-.22,.07-.15-.15-.15,.07-.3-.07-.3h.07l.3,.07,.3-.07Z"/>
      <path class="cls-1" d="M755.59,335.92l-.15,.37v.3l-.15,.22,.22,.15,.15,.07,.07,.15-.07,.15,.22,.3h-.15l-.15,.37-.15,.15-.22-.07-.15-.22-.07-.15-.45-.07-.22-.37v-.15l-.07-.22h.22l.22-.15,.3-.22,.07-.22-.3-.15-.3,.07,.15-.3,.22-.07,.15,.07,.3-.22,.3,.22Z"/>
      <path class="cls-1" d="M753.05,334.73l-.22,.45-.07,.22h.22l-.37,.37-.15,.15-.07-.15,.22-.3,.15-.37,.3-.37Z"/>
      <path class="cls-1" d="M753.05,334.73l-.15-.3h.3l.07,.3h-.22Z"/>
      <path class="cls-1" d="M742.69,332.94l.15,.07,.37,.67,.22,.22,.22-.07,.15-.22,.67,.37,.22,.37,.52,.45,.22,.3,.07,.22,.3,.3,.07,.15h.15l.22,.22,.67,.15,.07,.22v.3l.22,.3,.3,.07-.22,.37,.07,.15,.3,.37h.07l.3,.37-.07,.3,.52,.15,.3,.37h.22l.22,.15,.37,.3-.07,.22h.22l.3,.37,.45,.3v.15l.22,.07,.22,.22v.15l.22,.45,.3,.3,.07-.07,.3,.45,.37,.07,.22,.22v.3l.07,.3,.07,.07-.15,.45-.52,.3-.07-.22-.22,.07-.22,.22-.45-.6h-.3l-.07-.15h-.15l-.15,.22-.67-.67h-.15l-.3-.37,.07-.6h-.52l-.22-.15-.07-.15-.15-.07h-.22v-.22l-.15-.37-.3,.07-.6-.37-.07-.15v-.22l-.22,.15-.45-.22-.07-.3-.3-.22-.15-.37-.37-.07,.15-.15-.22-.22-.22-.07-.22-.52v-.3l-.15-.22h-.22l-.15-.45,.07-.15-.52-.3-.22-.15-.3-.45,.22-.15-.15-.15-.15-.22v-.37l-.37-.22v-.45l-.15-.22h.22l.07-.22-.07-.15h-.45l-.15-.22,.37-.52-.22-.22,.15-.07Z"/>
      <path class="cls-1" d="M743.51,333.17l-.22-.07,.07-.3,.15,.37Z"/>
      <path class="cls-1" d="M741.8,331.38l-.15,.15-.07-.3,.15-.15,.07,.3Z"/>
      <path id="NR" class="cls-1" d="M767.59,239.38h-.15l-.07-.22h.22v.22h0Z"/>
      <path id="PW" class="cls-1" d="M629.44,200.46l-.15,.3,.07,.07-.15,.45,.07,.15-.37,.15-.15-.52,.22-.15-.15-.15,.22-.45,.22-.07,.15,.22h0Z"/>
      <path class="cls-1" d="M762.97,292.24l.22,.15-.07,.3h.22v.15h-.6l-.22-.37,.15-.22h.3Z"/>
      <path class="cls-1" d="M734.42,291.79h.15l.75,.6,.37,.22,.67,.52-.07,.22h-.15l-.15,.15-.15-.22h-.07l-.15-.15-.07-.3-.3-.07v-.22l-.22-.07-.07,.07h-.15l-.67-.3-.15-.3,.22-.3,.22,.15Z"/>
      <path class="cls-1" d="M761.93,290.67l-.15,.22-.22-.15v-.15l.22-.15,.15,.22Z"/>
      <path class="cls-1" d="M760.21,287.76l.07,.07h.22l-.07,.3-.37,.15h-.22l-.3,.07-.3,.45-.07-.22-.22,.07-.15-.15v-.22l.37-.07v-.15l.22-.3,.52,.07,.3-.07Z"/>
      <path class="cls-1" d="M740.6,285.68l.22-.07,.45,.22,.37,.37,.22,.22h.15l.15,.15h.15l.22,.22,.22-.07,.3,.07,.15,.15h.3l.22-.07,.15,.22,.15,.6,.22,.22v.37l-.15,.15,.07,.22-.3-.15-.22,.15-.22-.07-.37-.22h-.15l-.45-.15-.3-.07-.15-.22-.22-.15-.22-.07-.15-.22-.3-.15,.15-.3-.07-.3v-.3l-.15-.07-.45-.15-.22,.07-.07-.15,.07-.22,.07-.22h.15Z"/>
      <path class="cls-1" d="M743.59,283.14l-.07,.15v.52l-.15-.15v-.37l.22-.15Z"/>
      <path class="cls-1" d="M741.42,281.8l.22,.67,.15,.3v.3l.07,.37-.15,.22-.3-.52-.07,.22-.22-.37,.07-.75,.07-.15v-.22l.15-.07Z"/>
      <path class="cls-1" d="M735.16,281.95h.22l.22-.07,.3,.07,.07-.07h.97l.15,.22,.22,.07,.15,.22h.15l.15,.07,.3,.3v.45h.15l.3,.15,.07,.22v.45l-.07,.07-.52,.15-.15,.07-.3-.07-.3-.15h-.3l-.07-.15-.37-.22h-.45l-.37,.07h-.37l-.37-.07-.22-.15-.22,.07-.22-.3-.22-.15-.22-.6-.15-.3,.15-.15-.07-.15v-.52l.07-.22,.45-.22,.3,.15,.3,.37,.07,.22,.22,.15Z"/>
      <path class="cls-1" d="M736.88,280.16l.37,.37-.22,.22-.22-.15v-.07l.07-.37Z"/>
      <path class="cls-1" d="M736.88,280.16l-.15,.3h-.07l-.3-.22-.22,.07-.15-.07-.07-.15,.22-.07,.15-.15,.37,.07,.22,.22Z"/>
      <path class="cls-1" d="M731.95,279.79l.07,.15,.15,.07-.15,.3-.3,.15-.22-.3,.45-.37Z"/>
      <path class="cls-1" d="M725.62,278.44l.15,.22-.07,.22-.6-.3,.37-.22,.15,.07Z"/>
      <path class="cls-1" d="M728.15,279.04l-.22-.15,.07-.22,.22-.22v.37l.07,.15-.15,.07Z"/>
      <path class="cls-1" d="M727.48,277.7l.15-.07h.3v.15l-.3,.22,.15,.15v.22l-.3,.3-.15,.07-.22-.07-.3-.3,.07-.45,.22-.07,.15-.3,.22-.07v.22Z"/>
      <path class="cls-1" d="M724.8,277.77l-.15,.07-.15,.37,.3,.37-.37-.15v-.15l-.07-.22-.3-.3v-.15l.3-.15,.07-.22,.3-.22,.22,.15v.3l-.15,.3Z"/>
      <path class="cls-1" d="M734.42,277.4l.15,.15-.07,.15-.15-.07-.45-.37,.15-.3,.22-.07,.15,.15-.07,.22,.07,.15Z"/>
      <path class="cls-1" d="M739.26,276.8l.3,.6,.45,.6v.22l-.3,.15v.6l.07,.15h.15l.15,.22,.37,.3,.07,.37,.07,.22,.15,.15-.15,.15,.22,.22-.07,.07,.07,.37-.15,.15,.22,.22,.07,.37,.15,.37v.45l-.07,.07-.22-.22-.22-.37v-.22l-.22-.3-.3-.22-.22-.22-.37-.45-.3-.22-.22-.67-.15-.75-.15-.52v-.37l-.07-.3,.3-.3-.07-.22-.37-.52-.07-.22,.07-.07,.3,.07,.15,.07,.22-.22,.15,.22Z"/>
      <path class="cls-1" d="M723.83,276.58l-.15-.3-.22-.22h.3l.07,.52Z"/>
      <path class="cls-1" d="M723.75,275.83l.3,.07,.07,.07,.07,.37h-.15l-.15-.3-.15-.22Z"/>
      <path class="cls-1" d="M726.07,275.98l-.07,.22h.52l.3,.52v.15l.15,.22,.07,.37-.15,.15v.22l-.45-.15-.15-.15h-.22l-.3-.22-.07-.15-.07-.22,.3,.07-.22-.6-.07-.15-.37,.07-.15,.07h-.3l-.22,.3-.3-.15v-.45l.15-.15h.3v-.3l.3-.45,.3-.22,.22-.15,.3,.22,.15,.3-.07,.52,.15,.07Z"/>
      <path class="cls-1" d="M721.67,275.98h-.07l-.15-.6,.07-.22v-.3l.15,.07,.07,.3v.52l-.07,.22Z"/>
      <path class="cls-1" d="M724.2,275.61l-.22,.15-.07-.07h-.3l-.22-.22-.07-.22-.07-.22,.07-.22,.22-.3,.37-.15,.15,.15,.22,.37v.45l-.07,.3Z"/>
      <path class="cls-1" d="M721.96,273l.3,.37v.07l.52,.3-.07,.22-.45,.52v.22l-.22,.07v-.3h-.15v-.3l-.15-.3-.22-.15-.07-.22,.07-.22,.15-.15,.15-.15h.15Z"/>
      <path class="cls-1" d="M729.64,273.08l.22,.15-.15,.07-.37,.07-.07-.22,.15-.15,.22,.07Z"/>
      <path class="cls-1" d="M730.31,273.08l.15-.07,.37,.22,.22,.07,.15,.15,.22,.37,.22,.07,.22,.22v.22l.37,.07v.22l.22,.07,.22-.07,.07,.07,.3,.15,.07,.15,.22-.07,.22,.07,.07,.22,.3,.22,.22,.22,.3,.22,.75,.75-.22,.3,.22,.37,.07,.45-.22-.07-.22-.3-.52-.6-.3-.07-.37-.3-.45-.07-.07-.22-.45-.15-.37-.37h-.15l-.6-.45-.37-.22v-.15l-.3-.15-.15-.15-.15-.3-.3-.22-.07-.15v-.3l-.3-.37-.15-.07v-.22l.52,.22Z"/>
      <path class="cls-1" d="M729.2,272.63l.15,.15,.15-.07,.22,.15-.07,.15-.22-.07-.22-.3Z"/>
      <path class="cls-1" d="M725.84,272.18h.37l-.15,.15-.22-.07v-.07Z"/>
      <path class="cls-1" d="M729.05,272.18l-.15,.37-.07-.15,.22-.22Z"/>
      <path class="cls-1" d="M727.03,272.48l-.37,.07-.15-.15,.22-.3,.22,.07,.07,.3Z"/>
      <path class="cls-1" d="M717.72,271.81l.15,.22-.15,.15-.22-.07-.07-.07,.3-.22Z"/>
      <path class="cls-1" d="M718.83,270.39l.22,.15-.07,.22-.52,.15-.22-.22,.22-.45,.15-.07,.22,.22Z"/>
      <path class="cls-1" d="M720.1,269.72v.37l-.15-.15v-.15l.15-.07Z"/>
      <path class="cls-1" d="M722.26,268.6l.22,.07,.3,.37,.22,.15,.22,.07,.22,.22,.6,.3,.3,.37v.3l.07,.45,.15,.15,.22,.22h.15l.07,.3,.52,.22,.3-.07,.07,.07v.22l-.22,.07-.15,.22-.37-.15-.6-.3h-.37l-.22-.3-.52-.3-.45-.75-.45-.75-.37-.22-.52-.52v-.52l.22-.15,.22,.07,.15,.15Z"/>
      <path class="cls-1" d="M89.83,236.4h-.15l-.15,.22h-.15l-.07-.3-.15-.6v-.22l.3-.37,.22-.07,.22-.22,.3,.07,.15,.3,.07,.22-.07,.3-.15,.22-.22,.3-.15,.15Z"/>
      <path class="cls-1" d="M93.26,229.09l-.07,.22-.15,.07-.22-.07v-.22l.15-.07v-.22l.15-.15,.22,.07-.07,.37Z"/>
      <path class="cls-1" d="M257.65,281.72l-.22,.15h-.37l-.3,.15h-.3v-.15h.37l.3-.07,.3-.22h.15l.07,.15Z"/>
      <path class="cls-1" d="M257.28,281.5l-.15,.07h-.3v-.15l.45,.07Z"/>
      <path class="cls-1" d="M295.97,258.91l.3,.3-.15,.22-.15-.22-.22-.15,.15-.37,.07,.22Z"/>
      <path class="cls-1" d="M766.7,333.69l-.37-.15,.15-.3,.37-.07,.15,.3-.07,.15-.22,.07Z"/>
      <path class="cls-1" d="M765.8,330.85h-.15l-.22-.07-.3-.37-.07-.3v-.3l.15-.15,.07-.3,.22-.07h.3l-.15,.22v.37l.52,.37-.22,.22-.15,.37Z"/>
      <path class="cls-1" d="M765.8,326.46h.22l.07,.15-.37,.07,.07,.22,.3,.15,.07,.22-.07,.3-.3,.07-.3-.22h-.3l-.15-.15-.22-.15,.07-.3v-.22l.15-.37,.22-.3h.37l.15,.07-.07,.3,.07,.15Z"/>
      <path class="cls-1" d="M763.57,320.79l.45-.07,.07,.07,.15,.45,.15,.22,.07,.07-.3,.45-.6,.15-.22-.22-.07-.37-.22-.07-.3,.22-.07-.07,.15-.3,.3-.22,.3-.37,.15,.07Z"/>
      <path class="cls-1" d="M765.28,317.88l-.07-.22h.22l-.15,.22Z"/>
      <path class="cls-1" d="M764.09,316.09l.07,.37v.15l.3,.07,.15,.37h.37v.3l-.07,.07-.22-.22-.22-.07-.45,.15-.22-.07-.07-.15-.07-.3,.15-.37,.15-.22,.15-.07Z"/>
      <path class="cls-1" d="M764.76,315.94h-.07l-.07-.22h.15v.22Z"/>
      <path class="cls-1" d="M764.91,314.9l-.15,.15h-.45l-.22,.07-.15-.15-.3-.07-.37-.3,.07-.15,.37-.15,.3-.07,.3-.22,.07-.22h.15l.07,.22v.45l.37,.3-.07,.15Z"/>
      <path class="cls-1" d="M761.4,313.93l.15,.22,.45,.3,.52,.52,.07,.07v.3l.15,.22-.22,.15-.3,.3v-.15l-.22-.07h-.3l-.15,.07v.15l-.3,.15-.22-.07v-.52l-.07-.45,.07-.45,.07-.37-.15-.37-.45,.22-.15-.15-.07-.22v-.22l.22-.22v-.3l.07-.22,.22-.07,.45,.22-.07,.15,.15,.37-.07,.15,.15,.3Z"/>
      <path class="cls-1" d="M760.96,312.14h-.22l-.37-.22v-.07l.15-.22,.15-.07,.37,.07-.07,.3v.22Z"/>
      <path class="cls-1" d="M760.58,311.4l.3-.22,.07,.07,.07,.22h-.37l-.07-.07Z"/>
      <path class="cls-1" d="M764.83,313.33l-.15-.07,.07-.89-.07-.22,.07-.37,.22-.6,.07-.37,.15,.45-.07,.22v1.19l-.07,.45-.22,.22Z"/>
      <path class="cls-1" d="M763.86,310.87h-.52l-.22-.07v-.15l.67-.52,.37-.15,.37-.07v.15l-.22,.3-.15,.22-.3,.3Z"/>
      <path class="cls-1" d="M765.28,310.35v.15h-.22l.07-.22,.15-.97v-.07l.07-.89,.15,.07-.07,.97,.07,.22-.07,.37-.15,.37Z"/>
      <path class="cls-1" d="M760.58,311.4l-.67-.07-.45,.22-.07,.15h-.15l-.07-.45-.15-.07-.3-.75,.3-.6v-.3l-.07-.15v-1.04l-.07-.22v-.37l.15-.22v-.22l.15-.22v-.15l.22-.07,.07,.37,.15,.3,.15,.22,.07,.97-.07,.6v.07l.45-.07,.22-.22,.15-.6v-.15l.22-.15,.22,.07-.07,.3v.67l.22,.07v.37l-.15,.07,.22,.3-.15,.15v.37l.15,.37-.07,.15h-.22l-.37,.3Z"/>
      <path class="cls-1" d="M763.71,304.46l.3,.22-.07,.3-.22,.22-.15,.15h-.45v-.3l.07-.3,.15-.22,.37-.07Z"/>
      <path class="cls-1" d="M764.16,303.05l-.22,.15-.15,.07v.15l-.15,.07v-.22l-.15-.15-.07-.22,.07-.3,.15-.07,.3-.15,.07,.15,.07,.3v.07l.07,.15Z"/>
      <path class="cls-1" d="M760.43,299.92l-.07-.07,.07-.37,.15,.15-.15,.3Z"/>
      <path class="cls-1" d="M3.72,102.13l-.22,.3-.3,.07-.22-.07h-.3v-.15h.22l.45-.15,.3-.22,.22-.22,.07-.37,.07-.22,.15-.37,.22-.3,.22-.45,.15-.6,.15-.15,.3-.07,.22,.22,.07,.37-.07,.37-.07,.37v.37l-.07,.07-.22,.52-.22,.22-.45,.07-.52,.22-.15,.15Z"/>
      <path class="cls-1" d="M7.08,97.28v.3l-.15,.37-.52,.37-.37,.07-.3,.37-.37-.15v-.07l.15-.3v-.3l.15-.22,.22-.15h.22l.22-.22h.37l.07-.07,.15-.37,.15-.07,.15,.15-.15,.3Z"/>
      <path id="YT" class="cls-1" d="M251.09,297.38l.15,.22,.37,.15v.22l-.15,.15,.07,.15-.22,.45,.07,.15-.22,.07-.15-.22v-.22l.15-.15-.15-.52-.07-.07-.07-.15,.22-.22Z"/>
      <path id="RE" class="cls-1" d="M291.94,336.67h.3l.3,.15,.22,.22v.22l.07,.37,.22,.15,.15,.15,.07,.15-.15,.45-.07,.3-.15,.15-.3,.07h-.67l-.15-.15-.6-.3-.22-.37v-.22l-.22-.45,.07-.3,.15-.15,.15-.3h.07l.37-.15h.37Z"/>
      <rect id="_0" data-name="0" class="cls-1" x="70.45" y="3.64"/>
      <rect id="_2" data-name="2" class="cls-1" x="667.09" y="398.92"/>
    </g>
  </g>
</svg>